<svg xmlns="http://www.w3.org/2000/svg" width="53.76" height="47.038" viewBox="0 0 53.76 47.038">
  <g id="credit-card" transform="translate(0 -32.008)">
    <g id="Group_24908" data-name="Group 24908" transform="translate(0 42.086)">
      <g id="Group_24907" data-name="Group 24907">
        <path id="Path_12881" data-name="Path 12881" d="M23.52,131.352v-3.36H3.36A3.366,3.366,0,0,0,0,131.352v6.72H24.229A30.084,30.084,0,0,1,23.52,131.352Z" transform="translate(0 -127.992)" fill="#80c627"/>
      </g>
    </g>
    <g id="Group_24910" data-name="Group 24910" transform="translate(0 58.886)">
      <g id="Group_24909" data-name="Group 24909">
        <path id="Path_12882" data-name="Path 12882" d="M53.622,287.992c-2.292,3.531-5.786,6.535-10.792,9.411a5.048,5.048,0,0,1-5.01.007c-5.006-2.883-8.5-5.89-10.8-9.418H0v16.8a3.363,3.363,0,0,0,3.36,3.36H50.4a3.361,3.361,0,0,0,3.36-3.36v-16.8h-.138Zm-38.5,10.08H8.4a1.68,1.68,0,0,1,0-3.36h6.72a1.68,1.68,0,1,1,0,3.36Z" transform="translate(0 -287.992)" fill="#80c627"/>
      </g>
    </g>
    <g id="Group_24912" data-name="Group 24912" transform="translate(26.88 32.008)">
      <g id="Group_24911" data-name="Group 24911">
        <path id="Path_12883" data-name="Path 12883" d="M281.862,37.184l-11.76-5.04a1.686,1.686,0,0,0-1.327,0l-11.76,5.04A1.676,1.676,0,0,0,256,38.726v6.72c0,9.243,3.417,14.646,12.6,19.938a1.689,1.689,0,0,0,1.673,0c9.186-5.279,12.6-10.681,12.6-19.938v-6.72A1.674,1.674,0,0,0,281.862,37.184Zm-6.068,7.634-6.72,8.4a1.7,1.7,0,0,1-1.314.628h-.071a1.686,1.686,0,0,1-1.327-.746L263,48.06a1.679,1.679,0,0,1,2.8-1.861l2.087,3.128,5.282-6.606a1.681,1.681,0,0,1,2.628,2.1Z" transform="translate(-256 -32.008)" fill="#80c627"/>
      </g>
    </g>
  </g>
</svg>
