<svg xmlns="http://www.w3.org/2000/svg" width="80" height="80" viewBox="0 0 80 80">
  <g id="Lab_Flavors" data-name="Lab Flavors" transform="translate(-795 -5497)">
    <g id="Ellipse_49" data-name="Ellipse 49" transform="translate(795 5497)" fill="#fff" stroke="#80c627" stroke-width="3" stroke-dasharray="9">
      <circle cx="40" cy="40" r="40" stroke="none"/>
      <circle cx="40" cy="40" r="38.5" fill="none"/>
    </g>
    <g id="Group_95" data-name="Group 95" transform="translate(10.535 670.423)">
      <path id="Path_1013" data-name="Path 1013" d="M41.065,2.075a7.823,7.823,0,0,0-10-.51l-.366.275-.366-.275a7.823,7.823,0,0,0-10,.51L13.385,8.487l.29-.058L24.254,6.313A8.9,8.9,0,0,1,30.7,7.486a8.9,8.9,0,0,1,6.445-1.173L48.012,8.487Z" transform="translate(793.705 4848.577)" fill="#80c627"/>
      <path id="Path_1014" data-name="Path 1014" d="M75.766,119.205H77a9.216,9.216,0,0,1,5.075,1.507,9.215,9.215,0,0,1,5.075-1.507h1.231a4.194,4.194,0,0,1,3.144,1.417,39.962,39.962,0,0,0,3.992-1.37L88.1,117.77A6.794,6.794,0,0,0,82.7,119a1.051,1.051,0,0,1-1.261,0,6.793,6.793,0,0,0-5.4-1.225l-7.41,1.482a40,40,0,0,0,3.992,1.37A4.194,4.194,0,0,1,75.766,119.205Z" transform="translate(742.332 4739.182)" fill="#80c627"/>
      <path id="Path_1015" data-name="Path 1015" d="M20.468,153.351c-1.288-.381-2.565-.824-3.812-1.328l-3.07-1.24a35.051,35.051,0,0,0,6.788,6.58v-3.131A4.2,4.2,0,0,1,20.468,153.351Z" transform="translate(793.518 4708.36)" fill="#80c627"/>
      <path id="Path_1016" data-name="Path 1016" d="M416.007,150.789l-3.069,1.24c-1.247.5-2.524.947-3.812,1.328a4.2,4.2,0,0,1,.094.881v3.131A35.08,35.08,0,0,0,416.007,150.789Z" transform="translate(425.696 4708.354)" fill="#80c627"/>
      <g id="Group_94" data-name="Group 94" transform="translate(806.465 4860.49)">
        <path id="Path_1017" data-name="Path 1017" d="M181.043,443.8a2.449,2.449,0,0,0-2.361-1.819,2.476,2.476,0,0,0-.641.085,2.453,2.453,0,1,0,3,1.734Z" transform="translate(-164.186 -422.926)" fill="#80c627"/>
        <path id="Path_1018" data-name="Path 1018" d="M94.58,442.757a2.447,2.447,0,0,0-1.778-.771,2.474,2.474,0,0,0-.641.085,2.452,2.452,0,0,0-.592,4.493,2.465,2.465,0,0,0,3.013-.444A4.569,4.569,0,0,1,94.58,442.757Z" transform="translate(-84.325 -422.927)" fill="#80c627"/>
        <path id="Path_1019" data-name="Path 1019" d="M8.7,442.756a2.448,2.448,0,0,0-1.778-.771,2.478,2.478,0,0,0-.641.085,2.452,2.452,0,0,0-.592,4.493,2.465,2.465,0,0,0,3.013-.444A4.569,4.569,0,0,1,8.7,442.756Z" transform="translate(-4.462 -422.926)" fill="#80c627"/>
        <path id="Path_1020" data-name="Path 1020" d="M136.976,366.433a2.452,2.452,0,0,0-3.538,2.941,4.534,4.534,0,0,1,2.31,1.08,4.514,4.514,0,0,1,2.316-1.08A2.458,2.458,0,0,0,136.976,366.433Z" transform="translate(-124.27 -352.363)" fill="#80c627"/>
        <path id="Path_1021" data-name="Path 1021" d="M51.652,366.875a2.452,2.452,0,0,0-4.1,2.5,4.53,4.53,0,0,1,2.31,1.08,4.5,4.5,0,0,1,1.577-.9A4.565,4.565,0,0,1,51.652,366.875Z" transform="translate(-44.406 -352.362)" fill="#80c627"/>
        <path id="Path_1022" data-name="Path 1022" d="M5.981,275.047a4.542,4.542,0,0,1,1.034-1.227,4.553,4.553,0,0,1,.16-4.246,1.051,1.051,0,1,0-1.821-1.051,6.666,6.666,0,0,0,.323,7.161,4.552,4.552,0,0,1,.3-.637Z" transform="translate(-4.464 -261.13)" fill="#80c627"/>
        <path id="Path_1023" data-name="Path 1023" d="M155.177,170h-1.231a7.177,7.177,0,0,0-4.024,1.235v9.7a1.08,1.08,0,1,1-2.1,0v-9.7A7.177,7.177,0,0,0,143.8,170h-1.231a2.1,2.1,0,0,0-2.1,2.1v4.345a4.556,4.556,0,0,1,3.387,5.425,4.554,4.554,0,0,1,3.013,5.3q.071.034.14.071a4.533,4.533,0,0,1,2.818,3.092,4.622,4.622,0,0,1,.136.758,8.41,8.41,0,0,0,7.324-8.338V172.1A2.1,2.1,0,0,0,155.177,170Z" transform="translate(-130.932 -170)" fill="#80c627"/>
        <path id="Path_1024" data-name="Path 1024" d="M92.076,294.045h0a4.538,4.538,0,0,1,.729.524,4.513,4.513,0,0,1,2.316-1.08,2.454,2.454,0,1,0-4.626,0A4.553,4.553,0,0,1,92.076,294.045Z" transform="translate(-84.337 -281.795)" fill="#80c627"/>
      </g>
    </g>
    <line id="Line_3" data-name="Line 3" y1="63" x2="46" transform="translate(811 5506)" fill="none" stroke="#80c627" stroke-width="3"/>
  </g>
</svg>
