<svg xmlns="http://www.w3.org/2000/svg" width="200.66" height="63.487" viewBox="0 0 200.66 63.487">
  <g id="Group_24753" data-name="Group 24753" transform="translate(-369.5 -28.5)">
    <g id="Group_8" data-name="Group 8" transform="translate(1773.412 -517.109)">
      <g id="Group_7" data-name="Group 7" transform="translate(-1321.78 548.892)">
        <g id="Group_4" data-name="Group 4" transform="translate(2.334 -2.311)">
          <path id="Path_5" data-name="Path 5" d="M-1137.686,599.176V566.187a2.185,2.185,0,0,1,.5-1.6,2.188,2.188,0,0,1,1.6-.5h11a15.925,15.925,0,0,1,8.692,2.383q3.771,2.384,3.771,9.085,0,4.608-2.2,7.147a11.071,11.071,0,0,1-4.922,3.43,15.746,15.746,0,0,1-4.817.89h-5.551v12.149q0,1.677-3.142,1.676h-1.78Q-1137.686,600.852-1137.686,599.176Zm12.724-19.06a5.234,5.234,0,0,0,3.221-1q1.335-.994,1.335-3.56a4.257,4.257,0,0,0-1.335-3.587,5.146,5.146,0,0,0-3.221-1.021h-4.66v9.164Z" transform="translate(1137.686 -561.265)" fill="#80c627"/>
          <path id="Path_6" data-name="Path 6" d="M-1045.824,586.715V556.973q0-1.676,3.142-1.676h1.466q3.142,0,3.142,1.676V586.82a2.661,2.661,0,0,0,.445,1.728,1.79,1.79,0,0,0,1.44.524,3.242,3.242,0,0,0,.707-.1,3.269,3.269,0,0,1,.707-.1q.471,0,.838.785a8.423,8.423,0,0,1,.576,1.728,7.409,7.409,0,0,1,.209,1.257q0,2.566-5.027,2.566Q-1045.825,595.2-1045.824,586.715Z" transform="translate(1075.357 -555.297)" fill="#80c627"/>
          <path id="Path_7" data-name="Path 7" d="M-999.011,617.749a8.051,8.051,0,0,1-1.859-5.551,9,9,0,0,1,3.063-6.964q3.063-2.775,11.965-2.775V600.73a2.644,2.644,0,0,0-.969-2.252,5.22,5.22,0,0,0-3.115-.733,11.841,11.841,0,0,0-3.116.367,16.383,16.383,0,0,0-2.383.838,6.248,6.248,0,0,1-1.2.471q-.524,0-1.152-.786a8.723,8.723,0,0,1-1.1-1.806,4.167,4.167,0,0,1-.471-1.6q0-.89,1.309-1.728a11.52,11.52,0,0,1,3.613-1.361,22.963,22.963,0,0,1,5.079-.524q5.917,0,8.588,2.33a8.069,8.069,0,0,1,2.67,6.414v9.845q0,2.409.131,3.665t.34,2.775a5.266,5.266,0,0,1,.157,1.152q0,.838-2.121,1.257a19.6,19.6,0,0,1-3.744.419,1.326,1.326,0,0,1-1.309-.759,7,7,0,0,1-.55-1.65q-.184-.89-.236-1.2a7.079,7.079,0,0,1-1.257,1.492,9.565,9.565,0,0,1-2.618,1.7,8.912,8.912,0,0,1-3.823.785Q-997.153,619.843-999.011,617.749Zm11.232-4.974a5.746,5.746,0,0,0,1.937-2.357v-2.88q-7.332,0-7.331,3.875a2.168,2.168,0,0,0,.681,1.676,2.752,2.752,0,0,0,1.937.628A4.673,4.673,0,0,0-987.779,612.774Z" transform="translate(1044.855 -579.942)" fill="#80c627"/>
          <path id="Path_8" data-name="Path 8" d="M-910.17,617.853v-16.6q0-2.3-.131-3.535t-.34-2.749a5.769,5.769,0,0,1-.157-1.1q0-.837,2.121-1.257a19.626,19.626,0,0,1,3.744-.419,1.345,1.345,0,0,1,1.309.707,6.3,6.3,0,0,1,.55,1.545q.183.838.236,1.152a10.328,10.328,0,0,1,3.351-2.828,9.1,9.1,0,0,1,4.451-1.152q3.927,0,5.812,2.068t1.885,6.414v17.751q0,1.677-3.142,1.676h-1.466q-3.142,0-3.142-1.676v-16.6a3.537,3.537,0,0,0-.733-2.435,3.112,3.112,0,0,0-2.409-.811,3.718,3.718,0,0,0-2.487.916,7.076,7.076,0,0,0-1.7,2.121v16.809q0,1.677-3.142,1.676h-1.466Q-910.17,619.529-910.17,617.853Z" transform="translate(983.741 -579.942)" fill="#80c627"/>
          <path id="Path_9" data-name="Path 9" d="M-820.763,598.209v-13.2h-.838a1.284,1.284,0,0,1-1.2-.628,4.1,4.1,0,0,1-.367-1.99v-.89a4.1,4.1,0,0,1,.367-1.99,1.284,1.284,0,0,1,1.2-.629h.838l.681-4.975q.261-1.675,2.828-1.675h1.623q2.618,0,2.618,1.675v4.975h2.566a1.286,1.286,0,0,1,1.2.629,4.114,4.114,0,0,1,.367,1.99v.89a4.112,4.112,0,0,1-.367,1.99,1.286,1.286,0,0,1-1.2.628h-2.566v13.3a2.662,2.662,0,0,0,.445,1.728,1.791,1.791,0,0,0,1.44.524,3.244,3.244,0,0,0,.707-.1,3.274,3.274,0,0,1,.707-.1q.472,0,.838.785a8.4,8.4,0,0,1,.576,1.728,7.391,7.391,0,0,1,.209,1.257q0,2.566-5.027,2.566Q-820.764,606.692-820.763,598.209Z" transform="translate(924.285 -566.791)" fill="#80c627"/>
        </g>
        <g id="Group_6" data-name="Group 6" transform="translate(0 45.107)">
          <g id="Group_5" data-name="Group 5">
            <path id="Path_10" data-name="Path 10" d="M-1140.772,714.892l-1.907-3.411q-.2-.341-.341-.6l-.062.016v6.419q0,.5-.93.5h-.45q-.93,0-.93-.5v-9.923q0-.5.93-.5h.822a1.02,1.02,0,0,1,.977.419l2.573,4.589.155.264.14-.264,2.62-4.589a1.019,1.019,0,0,1,.977-.419h.806q.93,0,.93.5v9.923q0,.5-.93.5h-.449q-.93,0-.93-.5v-6.419l-.062-.016q-.14.264-.341.6l-1.907,3.411a.725.725,0,0,1-.62.295h-.45A.723.723,0,0,1-1140.772,714.892Z" transform="translate(1145.392 -706.086)" fill="#80c627"/>
            <path id="Path_11" data-name="Path 11" d="M-1090.363,706.929v-1.1q0-.573,1.148-.574t1.147.574v1.1q0,.59-1.147.589T-1090.363,706.929Zm0,9.241v-7.179q0-.5.93-.5h.434q.93,0,.93.5v7.179q0,.5-.93.5h-.434Q-1090.363,716.665-1090.363,716.169Z" transform="translate(1107.03 -704.944)" fill="#80c627"/>
            <path id="Path_12" data-name="Path 12" d="M-1064.2,713.533v-8.807q0-.5.93-.5h.434q.93,0,.93.5v8.837a.79.79,0,0,0,.132.512.53.53,0,0,0,.426.155.96.96,0,0,0,.209-.031.993.993,0,0,1,.209-.031q.139,0,.248.233a2.493,2.493,0,0,1,.171.512,2.219,2.219,0,0,1,.062.372q0,.76-1.488.76Q-1064.2,716.045-1064.2,713.533Z" transform="translate(1088.793 -704.23)" fill="#80c627"/>
            <path id="Path_13" data-name="Path 13" d="M-1029.482,715.719q0,.233-.883.233h-.651q-.76,0-.93-.294l-2.155-3.566-.062.016v3.349q0,.5-.93.5h-.434q-.931,0-.93-.5V704.726q0-.5.93-.5h.434q.93,0,.93.5v6.14l.062.015,1.876-2.806a.562.562,0,0,1,.341-.24,2.628,2.628,0,0,1,.6-.054h.574q.868,0,.868.233a.564.564,0,0,1-.14.31l-2.155,3.07,2.527,4A.614.614,0,0,1-1029.482,715.719Z" transform="translate(1069.451 -704.23)" fill="#80c627"/>
            <path id="Path_14" data-name="Path 14" d="M-967.953,714.892l-1.907-3.411q-.2-.341-.341-.6l-.062.016v6.419q0,.5-.93.5h-.449q-.931,0-.93-.5v-9.923q0-.5.93-.5h.822a1.019,1.019,0,0,1,.977.419l2.574,4.589.155.264.14-.264,2.62-4.589a1.019,1.019,0,0,1,.977-.419h.806q.93,0,.93.5v9.923q0,.5-.93.5h-.449q-.93,0-.93-.5v-6.419l-.062-.016q-.14.264-.341.6l-1.907,3.411a.724.724,0,0,1-.62.295h-.45A.724.724,0,0,1-967.953,714.892Z" transform="translate(1024.914 -706.086)" fill="#80c627"/>
            <path id="Path_15" data-name="Path 15" d="M-917.863,723.383a2.384,2.384,0,0,1-.55-1.644,2.666,2.666,0,0,1,.907-2.062q.907-.822,3.543-.822v-.512a.782.782,0,0,0-.287-.667,1.546,1.546,0,0,0-.922-.217,3.514,3.514,0,0,0-.923.108,4.844,4.844,0,0,0-.706.248,1.839,1.839,0,0,1-.357.14q-.155,0-.341-.233a2.573,2.573,0,0,1-.326-.535,1.239,1.239,0,0,1-.14-.473q0-.263.388-.512a3.411,3.411,0,0,1,1.07-.4,6.8,6.8,0,0,1,1.5-.155,3.826,3.826,0,0,1,2.543.69,2.389,2.389,0,0,1,.791,1.9v2.915q0,.713.039,1.085t.1.822a1.562,1.562,0,0,1,.046.341q0,.248-.628.372a5.779,5.779,0,0,1-1.109.124.392.392,0,0,1-.388-.224,2.075,2.075,0,0,1-.163-.489q-.055-.263-.07-.357a2.1,2.1,0,0,1-.372.442,2.817,2.817,0,0,1-.775.5,2.637,2.637,0,0,1-1.132.233A2.219,2.219,0,0,1-917.863,723.383Zm3.325-1.473a1.7,1.7,0,0,0,.574-.7v-.853q-2.171,0-2.171,1.148a.642.642,0,0,0,.2.5.816.816,0,0,0,.574.186A1.384,1.384,0,0,0-914.537,721.91Z" transform="translate(987.158 -712.188)" fill="#80c627"/>
            <path id="Path_16" data-name="Path 16" d="M-869.92,715.719q0,.233-.884.233h-.651q-.76,0-.93-.294l-2.155-3.566-.062.016v3.349q0,.5-.93.5h-.434q-.93,0-.93-.5V704.726q0-.5.93-.5h.434q.93,0,.93.5v6.14l.062.015,1.876-2.806a.562.562,0,0,1,.341-.24,2.63,2.63,0,0,1,.6-.054h.574q.868,0,.868.233a.564.564,0,0,1-.139.31l-2.155,3.07,2.527,4A.614.614,0,0,1-869.92,715.719Z" transform="translate(958.216 -704.23)" fill="#80c627"/>
            <path id="Path_17" data-name="Path 17" d="M-838.067,722.91a4.322,4.322,0,0,1-1-3.031,4.447,4.447,0,0,1,1-3.21,3.692,3.692,0,0,1,2.767-1.023,2.928,2.928,0,0,1,2.535,1.116,4.776,4.776,0,0,1,.814,2.884,1.048,1.048,0,0,1-.318.55q-.318.364-.473.364h-3.954a1.758,1.758,0,0,0,.527,1.256,1.913,1.913,0,0,0,1.256.372,2.894,2.894,0,0,0,.791-.1,7.418,7.418,0,0,0,.744-.256.979.979,0,0,1,.341-.124.518.518,0,0,1,.349.225,2.167,2.167,0,0,1,.326.512,1.174,1.174,0,0,1,.132.442q0,.357-.481.612a3.991,3.991,0,0,1-1.147.38,6.5,6.5,0,0,1-1.163.124A3.931,3.931,0,0,1-838.067,722.91Zm3.884-3.884a2.054,2.054,0,0,0-.279-1.14.934.934,0,0,0-.837-.426q-1.148,0-1.4,1.566Z" transform="translate(931.843 -712.188)" fill="#80c627"/>
            <path id="Path_18" data-name="Path 18" d="M-798.492,723.414V718.5q0-.682-.039-1.046t-.1-.814a1.722,1.722,0,0,1-.046-.326q0-.248.628-.372a5.807,5.807,0,0,1,1.108-.124.4.4,0,0,1,.388.21,1.862,1.862,0,0,1,.163.457c.036.166.059.279.07.341a2.792,2.792,0,0,1,.69-.86,1.547,1.547,0,0,1,1-.318.815.815,0,0,1,.69.256.938.938,0,0,1,.193.581,3.073,3.073,0,0,1-.139.814q-.139.488-.341.488a1.5,1.5,0,0,1-.326-.062,1.616,1.616,0,0,0-.4-.062,1.185,1.185,0,0,0-.736.24,2.046,2.046,0,0,0-.5.535v4.977q0,.5-.93.5h-.434Q-798.492,723.91-798.492,723.414Z" transform="translate(903.687 -712.188)" fill="#80c627"/>
            <path id="Path_12763" data-name="Path 12763" d="M3.136.128A5.4,5.4,0,0,1,1.888-.016,3.18,3.18,0,0,1,.9-.408Q.512-.656.512-.928a1.322,1.322,0,0,1,.272-.68q.272-.408.48-.408a1.282,1.282,0,0,1,.352.152,4.281,4.281,0,0,0,.616.264,2.3,2.3,0,0,0,.744.112q1.152,0,1.152-.9a.773.773,0,0,0-.344-.672,4.94,4.94,0,0,0-1.112-.512,3.742,3.742,0,0,1-1.456-.864A2.12,2.12,0,0,1,.7-5.968a2.337,2.337,0,0,1,.776-1.84A2.985,2.985,0,0,1,3.536-8.5,5.186,5.186,0,0,1,5.1-8.264q.736.232.736.616a1.591,1.591,0,0,1-.224.7q-.224.424-.416.424A3.652,3.652,0,0,1,4.768-6.7a2.374,2.374,0,0,0-.96-.176A1.411,1.411,0,0,0,3.04-6.7a.583.583,0,0,0-.288.52.791.791,0,0,0,.208.56,1.583,1.583,0,0,0,.472.352q.264.128.936.4a3.374,3.374,0,0,1,1.36.88A2.223,2.223,0,0,1,6.16-2.512,2.429,2.429,0,0,1,5.336-.6,3.2,3.2,0,0,1,3.136.128Z" transform="translate(112.368 11.593)" fill="#80c627"/>
          </g>
        </g>
      </g>
    </g>
    <g id="Group_104" data-name="Group 104" transform="translate(98 -6)">
      <g id="Group_2" data-name="Group 2" transform="translate(284.783 46.415)">
        <path id="Path_1" data-name="Path 1" d="M-1331.552,628.39a24.67,24.67,0,0,0,24.67-24.67,24.547,24.547,0,0,0-4.506-14.205c-.525-.564-.991-1.092-1.383-1.572-4.681-5.736-5.7-4.032-5.993-3.455-.857,2.4,1.828,2.712,3.181,3.721,1.149.857.291,3.5-.626,3.429-.869-.069-1.578-.343-2.881-3.155s-4.835-3.052-5.178-1.2,2.058,3.018,3.978,3.7,4.085,3.168,3.4,3.978c-.619.726-1.689.913-2.5-.514-1.577-2.812-2.606-3.266-3.841-2.778a1.034,1.034,0,0,0-.224,1.907c.524.284,2.282,1.089.944,1.934-1.749.96-1.612-1.269-3.772-2.229a1.993,1.993,0,0,0-2.915,2.263c.475,1.014,4.63,1.44,5.384,3.635,2.229,6.481-7.853,7.71-14.386,4.975a22.781,22.781,0,0,0-17.644-.449.876.876,0,0,0-.351.739A24.666,24.666,0,0,0-1331.552,628.39Z" transform="translate(1356.205 -583.799)" fill="#80c627"/>
        <path id="Path_2" data-name="Path 2" d="M-1262.872,603.31a12.669,12.669,0,0,1-3.018.24,1.472,1.472,0,0,1-1.338-1.612c.172-.995,2.366-1.132,3.532.343Z" transform="translate(1294.191 -595.917)" fill="#80c627"/>
        <path id="Path_3" data-name="Path 3" d="M-1242.36,586.052a6.347,6.347,0,0,1-1.507-.168.738.738,0,0,1-.5-.92c.179-.473,1.271-.332,1.705.5Z" transform="translate(1278.274 -584.423)" fill="#80c627"/>
      </g>
      <path id="Union_1" data-name="Union 1" d="M37.34,62.487h-.1A31.256,31.256,0,0,1,7.02,39.19C4.49,39.024,0,35.53,0,31.244s4.49-7.78,7.02-7.946A31.256,31.256,0,0,1,37.244,0h.192A31.256,31.256,0,0,1,67.659,23.3c2.529.166,7.02,3.66,7.02,7.946s-4.49,7.78-7.02,7.946a31.256,31.256,0,0,1-30.224,23.3ZM10.734,31.244A26.606,26.606,0,1,0,37.34,4.543,26.732,26.732,0,0,0,10.734,31.244Z" transform="translate(272 35)" fill="#80c627" stroke="rgba(0,0,0,0)" stroke-miterlimit="10" stroke-width="1"/>
    </g>
  </g>
</svg>
