<svg xmlns="http://www.w3.org/2000/svg" width="52.001" height="52" viewBox="0 0 52.001 52">
  <g id="money" transform="translate(0)">
    <path id="Path_12884" data-name="Path 12884" d="M120.817,105.535A15.282,15.282,0,1,0,136.1,120.817,15.3,15.3,0,0,0,120.817,105.535Zm1.169,20.433v1.573h-2v-1.5a8.338,8.338,0,0,1-3.642-.992l1.077-2.438a6.806,6.806,0,0,0,3.274.907c.95,0,1.29-.2,1.29-.539,0-1.247-5.485-.241-5.485-3.94,0-1.6,1.162-2.948,3.486-3.274v-1.545h2v1.516a7.4,7.4,0,0,1,2.877.822l-1.006,2.423a6.12,6.12,0,0,0-2.764-.737c-.978,0-1.29.283-1.29.624,0,1.191,5.485.2,5.485,3.855C125.288,124.253,124.183,125.586,121.986,125.968Z" transform="translate(-94.816 -94.816)" fill="#80c627"/>
    <path id="Path_12885" data-name="Path 12885" d="M74.88,228.182l-3.031.335a22.943,22.943,0,0,1-22.815,25.442,23.325,23.325,0,0,1-18.262-8.8h3.019v-3.049H25.638v8.528h3.049v-3.212a26.307,26.307,0,0,0,28.6,8.239A26,26,0,0,0,74.88,228.182Z" transform="translate(-23.034 -205.007)" fill="#80c627"/>
    <path id="Path_12886" data-name="Path 12886" d="M6.5,13.924a22.975,22.975,0,0,1,12.217-9.67,22.71,22.71,0,0,1,15.019.152,23.13,23.13,0,0,1,9.818,6.817H40.644v3.049l8.243,0V6.127H45.837v3.08A26.2,26.2,0,0,0,34.761,1.536a25.731,25.731,0,0,0-17.017-.173A26,26,0,0,0,.211,29.317l3.024-.391a23,23,0,0,1,3.26-15Z" transform="translate(0 0)" fill="#80c627"/>
  </g>
</svg>
