<svg xmlns="http://www.w3.org/2000/svg" width="52.738" height="52.001" viewBox="0 0 52.738 52.001">
  <path id="Path_12888" data-name="Path 12888" d="M63.828,35.614l-2.966-2.649a5.155,5.155,0,0,1-1.712-4.142l.227-3.934c.009-.164.011-.329,0-.494a5.156,5.156,0,0,0-5.349-4.955l-4.225.162a5.157,5.157,0,0,1-4.04-1.715l-2.819-3.153q-.165-.184-.347-.352a5.156,5.156,0,0,0-7.285.292l-2.673,2.9a5.155,5.155,0,0,1-4.17,1.645l-3.966-.294a5.153,5.153,0,0,0-5.528,5.444l.216,3.679a5.157,5.157,0,0,1-1.789,4.215l-2.8,2.4a5.243,5.243,0,0,0-.489.479,5.156,5.156,0,0,0,.413,7.28L17.5,45.066a5.156,5.156,0,0,1,1.713,4.143l-.228,3.933c-.009.164-.011.329,0,.494a5.156,5.156,0,0,0,5.349,4.956l4.226-.161a5.155,5.155,0,0,1,4.04,1.715L35.413,63.3q.165.184.347.352a5.156,5.156,0,0,0,7.286-.292l2.672-2.9a5.157,5.157,0,0,1,4.17-1.645l3.966.3a5.153,5.153,0,0,0,5.528-5.444l-.216-3.679a5.154,5.154,0,0,1,1.789-4.215l2.8-2.4a5.157,5.157,0,0,0,.077-7.758ZM35.935,48.872,34.274,47.21,26.3,39.269l2.981-2.981,6.637,6.637,13.43-13.43,2.981,2.981Z" transform="translate(-12.812 -13.015)" fill="#80c627"/>
</svg>
