<svg xmlns="http://www.w3.org/2000/svg">
      <defs>
            <g id="arrow">
                  <path d="M10.6,16.4c0.6,0.6,0.6,1.5,0,2.1C10.3,18.9,9.9,19,9.5,19s-0.8-0.1-1.1-0.4l-8-8C0.1,10.3,0,9.9,0,9.5
	            c0-0.4,0.1-0.8,0.4-1.1l8-8c0.6-0.6,1.5-0.6,2.1,0c0.6,0.6,0.6,1.5,0,2.1L3.6,9.5L10.6,16.4z" />
            </g>
            <g id="facebook">
                  <path data-name="Path 14041" d="M10.354-5.937H7.57V2.375H3.859V-5.937H.854V-9.389H3.859v-2.6a5.282,5.282,0,0,1,.557-2.523,3.731,3.731,0,0,1,1.577-1.577,4.978,4.978,0,0,1,2.356-.538q.594,0,1.262.056a9.74,9.74,0,0,1,1.039.13l.371.037v2.932H9.537a1.886,1.886,0,0,0-1.5.538,1.948,1.948,0,0,0-.464,1.317v2.227h3.3Z" transform="translate(-0.854 16.625)" />
            </g>
            <g id="twitter">
                  <path data-name="Path 14042" d="M17.033-10.984a2.211,2.211,0,0,1,.037.482,10.925,10.925,0,0,1-.742,3.915,12.343,12.343,0,0,1-2.1,3.563A10,10,0,0,1,10.725-.408a11.117,11.117,0,0,1-4.75,1A10.811,10.811,0,0,1,0-1.15q.408.037.928.037a7.725,7.725,0,0,0,4.861-1.67,3.625,3.625,0,0,1-2.282-.761A3.875,3.875,0,0,1,2.152-5.455q.371.037.705.037A4.946,4.946,0,0,0,3.9-5.529a3.786,3.786,0,0,1-1.6-.742A4.066,4.066,0,0,1,1.188-7.626,3.734,3.734,0,0,1,.779-9.352v-.074a3.668,3.668,0,0,0,1.744.52A3.745,3.745,0,0,1,.779-12.172a3.762,3.762,0,0,1,.557-1.967A10.745,10.745,0,0,0,4.88-11.244a10.786,10.786,0,0,0,4.472,1.188,5.409,5.409,0,0,1-.074-.891,3.779,3.779,0,0,1,1.132-2.746,3.688,3.688,0,0,1,2.728-1.15,3.761,3.761,0,0,1,2.857,1.225,7.928,7.928,0,0,0,2.486-.928,3.867,3.867,0,0,1-1.707,2.152A8.37,8.37,0,0,0,19-13.025,8.565,8.565,0,0,1,17.033-10.984Z" transform="translate(0 14.844)" />
            </g>
            <g id="instagram">
                  <path data-name="Path 14043" d="M5.045-9.615A3.9,3.9,0,0,1,7.91-10.793a3.9,3.9,0,0,1,2.865,1.178A3.9,3.9,0,0,1,11.953-6.75a3.9,3.9,0,0,1-1.178,2.865A3.9,3.9,0,0,1,7.91-2.707,3.9,3.9,0,0,1,5.045-3.885,3.9,3.9,0,0,1,3.867-6.75,3.9,3.9,0,0,1,5.045-9.615Zm1,4.729a2.54,2.54,0,0,0,1.863.773,2.54,2.54,0,0,0,1.863-.773,2.54,2.54,0,0,0,.773-1.863,2.54,2.54,0,0,0-.773-1.863A2.54,2.54,0,0,0,7.91-9.387a2.54,2.54,0,0,0-1.863.773A2.54,2.54,0,0,0,5.273-6.75,2.54,2.54,0,0,0,6.047-4.887Zm6.732-6.732a.884.884,0,0,1,.264.65.943.943,0,0,1-.264.668.856.856,0,0,1-.65.281.913.913,0,0,1-.668-.281.913.913,0,0,1-.281-.668.856.856,0,0,1,.281-.65.943.943,0,0,1,.668-.264A.884.884,0,0,1,12.779-11.619ZM15.75-9.984q.035.949.035,3.234T15.75-3.516A4.848,4.848,0,0,1,14.467-.193a4.724,4.724,0,0,1-3.322,1.248q-.949.07-3.234.07t-3.234-.07a4.825,4.825,0,0,1-3.3-1.266A3.393,3.393,0,0,1,.633-1.2a4.974,4.974,0,0,1-.4-1.09,5.458,5.458,0,0,1-.123-1.23Q.035-4.465.035-6.75t.07-3.27a4.778,4.778,0,0,1,1.266-3.27,4.737,4.737,0,0,1,3.3-1.3q.949-.035,3.234-.035t3.234.035a4.848,4.848,0,0,1,3.322,1.283A4.848,4.848,0,0,1,15.75-9.984ZM14.063-2.109a3.813,3.813,0,0,0,.176-.721q.07-.439.105-1.055t.035-1V-8.613q0-.387-.035-1t-.105-1.055a3.813,3.813,0,0,0-.176-.721A2.537,2.537,0,0,0,12.551-12.9a3.813,3.813,0,0,0-.721-.176q-.439-.07-1.055-.105t-.984-.035H6.047q-.387,0-1,.035t-1.055.105a3.813,3.813,0,0,0-.721.176,2.537,2.537,0,0,0-1.512,1.512,3.813,3.813,0,0,0-.176.721q-.07.439-.105,1.055t-.035.984v3.375q0,.334.018.861t.053.9q.035.369.105.756t.141.633A2.665,2.665,0,0,0,3.27-.6a3.813,3.813,0,0,0,.721.176q.439.07,1.055.105t.984.035H9.773q.387,0,1-.035T11.83-.422A3.813,3.813,0,0,0,12.551-.6,2.665,2.665,0,0,0,14.063-2.109Z" transform="translate(-0.035 14.625)" />
            </g>
            <g id="youtube">
                  <path d="M12.3,17.8c-0.8,0-7.4,0-9.3-0.5C1.8,17,0.8,16,0.5,14.7c-0.7-3.9-0.7-7.7,0-11.6
                        c0.3-1.3,1.3-2.3,2.6-2.7C4.9,0,11.6,0,12.3,0s7.4,0,9.3,0.5c1.3,0.3,2.2,1.3,2.6,2.6l0,0.1c0.7,3.8,0.7,7.7,0,11.5
                        c-0.4,1.3-1.3,2.3-2.6,2.6C19.7,17.8,13.1,17.8,12.3,17.8z M12.3,1.5c-2,0-7.5,0.1-8.9,0.5C2.7,2.2,2.2,2.8,2,3.5
                        c-0.6,3.6-0.6,7.3,0,10.9c0.2,0.7,0.8,1.2,1.5,1.4c1.4,0.4,6.9,0.5,8.9,0.5c2,0,7.5-0.1,8.9-0.5c0.7-0.2,1.3-0.8,1.5-1.5
                        c0.6-3.6,0.6-7.2,0-10.9c-0.2-0.7-0.8-1.3-1.5-1.5C19.8,1.6,14.3,1.5,12.3,1.5z M9.2,13.7V4.2l8.3,4.7L9.2,13.7z M10.7,6.8v4.3
                        l3.8-2.2L10.7,6.8z"/>
            </g>
            <g id="pinterest">
                  <path d="M7.766,6.5C3.86,6.5,0,9.1,0,13.318c0,2.68,1.507,4.2,2.421,4.2.377,0,.594-1.051.594-1.348,0-.354-.9-1.108-.9-2.581A5.145,5.145,0,0,1,7.458,8.362c2.592,0,4.511,1.473,4.511,4.18,0,2.021-.811,5.813-3.438,5.813a1.69,1.69,0,0,1-1.759-1.667c0-1.439,1-2.832,1-4.317,0-2.52-3.575-2.063-3.575.982a4.472,4.472,0,0,0,.365,1.93c-.525,2.261-1.6,5.63-1.6,7.96,0,.719.1,1.428.171,2.147.129.145.065.129.263.057,1.919-2.627,1.85-3.141,2.718-6.578a3.088,3.088,0,0,0,2.638,1.37c4.043,0,5.859-3.94,5.859-7.492C14.618,8.967,11.352,6.5,7.766,6.5Z" transform="translate(0 -6.5)" />
            </g>
      </defs>
</svg>