<svg xmlns="http://www.w3.org/2000/svg" width="80" height="80" viewBox="0 0 80 80">
  <g id="Stabilizers" transform="translate(-395 -5497)">
    <g id="Ellipse_48" data-name="Ellipse 48" transform="translate(395 5497)" fill="#fff" stroke="#80c627" stroke-width="3" stroke-dasharray="9">
      <circle cx="40" cy="40" r="40" stroke="none"/>
      <circle cx="40" cy="40" r="38.5" fill="none"/>
    </g>
    <g id="test-tube" transform="translate(412 5519.73)">
      <path id="Path_994" data-name="Path 994" d="M8.061,87.51a1.731,1.731,0,0,1,2.728,2.082L27.306,106.11a5.8,5.8,0,0,1-8.2,8.2L2.589,97.792A1.731,1.731,0,0,1,.507,95.064ZM5.534,96.691l1.509-1.509a.935.935,0,0,1,1.323,1.323L6.857,98.014l2.937,2.937L11.3,99.442a.935.935,0,0,1,1.323,1.323l-1.508,1.509L21.13,112.286a2.937,2.937,0,1,0,4.153-4.153L8.809,91.66,4.657,95.813Z" transform="translate(9.739 -80.468)" fill="#80c627"/>
      <path id="Path_995" data-name="Path 995" d="M55.556,258.11a1.431,1.431,0,1,1-2.023,2.023L46.7,253.3l2.023-2.023Z" transform="translate(-21.599 -229.379)" fill="#80c627"/>
      <path id="Path_996" data-name="Path 996" d="M373.17,27.262a1.949,1.949,0,1,1,0,2.756A1.951,1.951,0,0,1,373.17,27.262Z" transform="translate(-372.6 -25.798)" fill="#80c627"/>
      <path id="Path_997" data-name="Path 997" d="M268.234,24.042a3.294,3.294,0,0,0-3.432-1.576,3.479,3.479,0,1,1,3.432,1.576Z" transform="translate(-257.185 -17.125)" fill="#80c627"/>
      <path id="Path_998" data-name="Path 998" d="M302.3,80.866a2.7,2.7,0,1,1-3.816,0A2.7,2.7,0,0,1,302.3,80.866Z" transform="translate(-292.188 -74.189)" fill="#80c627"/>
    </g>
    <line id="Line_8" data-name="Line 8" y1="62" x2="46" transform="translate(412 5506)" fill="none" stroke="#80c627" stroke-width="3"/>
  </g>
</svg>
