<svg xmlns="http://www.w3.org/2000/svg" width="104.027" height="143.923" viewBox="0 0 104.027 143.923">
  <g id="Group_25072" data-name="Group 25072" transform="translate(450.46 -20.751)">
    <g id="Group_25065" data-name="Group 25065" transform="translate(-417.213 20.751)">
      <g id="Group_25060" data-name="Group 25060" transform="translate(0 10.291)">
        <path id="Path_13293" data-name="Path 13293" d="M-375.171,116.395a14.349,14.349,0,0,1-14.3-12.885l-5.8-55.46-6.155-8.581a1.974,1.974,0,0,1-.153-2.062,1.975,1.975,0,0,1,1.765-1.078h51.008a1.988,1.988,0,0,1,1.474.656,1.986,1.986,0,0,1,.5,1.534l-1.548,14.8a.729.729,0,0,0,.186.571.729.729,0,0,0,.549.244h8.3a7.347,7.347,0,0,1,2.84.525,7.13,7.13,0,0,1,4.4,7.434l-3.631,31.782a7.143,7.143,0,0,1-7.1,6.336s-6.984-.01-9.776-.019a.736.736,0,0,0-.733.662l-.277,2.654a14.349,14.349,0,0,1-14.3,12.885ZM-348.2,60.016a.974.974,0,0,0-.969.874l-3.381,32.348a.964.964,0,0,0,.246.755.966.966,0,0,0,.725.322h8.742a1.249,1.249,0,0,0,1.241-1.107l3.631-31.783a1.233,1.233,0,0,0-.309-.973,1.234,1.234,0,0,0-.932-.418s-6.189-.01-8.992-.018l0-.52Z" transform="translate(402.32 -35.809)" fill="#fff"/>
        <path id="Path_13294" data-name="Path 13294" d="M-349.036,36.621a1.463,1.463,0,0,1,1.455,1.615l-1.547,14.8a1.26,1.26,0,0,0,1.253,1.391h8.3a6.866,6.866,0,0,1,2.64.484,6.64,6.64,0,0,1,4.083,6.894l-3.631,31.782a6.623,6.623,0,0,1-6.583,5.874s-6.982-.01-9.775-.019h0a1.255,1.255,0,0,0-1.248,1.128l-.278,2.654a13.861,13.861,0,0,1-13.785,12.419H-375.4a13.86,13.86,0,0,1-13.785-12.419L-395,47.629l-6.235-8.692a1.463,1.463,0,0,1,1.189-2.316h51.008m-2.776,57.986h8.742a1.771,1.771,0,0,0,1.758-1.569l3.631-31.783a1.749,1.749,0,0,0-.438-1.379,1.75,1.75,0,0,0-1.32-.591s-6.188-.01-8.99-.019h0a1.5,1.5,0,0,0-1.486,1.341L-353.3,92.954a1.5,1.5,0,0,0,1.489,1.652m2.776-59.027h-51.008a2.494,2.494,0,0,0-2.228,1.36,2.494,2.494,0,0,0,.193,2.6L-396,48.012l5.783,55.322A14.867,14.867,0,0,0-375.4,116.686h7.241a14.867,14.867,0,0,0,14.821-13.352l.277-2.654a.216.216,0,0,1,.214-.2c2.794.009,9.777.019,9.777.019a7.665,7.665,0,0,0,7.62-6.8l3.631-31.782a7.646,7.646,0,0,0-4.717-7.973,7.877,7.877,0,0,0-3.04-.565h-8.3a.215.215,0,0,1-.162-.072.215.215,0,0,1-.055-.169l1.547-14.8a2.508,2.508,0,0,0-.63-1.936,2.505,2.505,0,0,0-1.86-.828Zm-2.776,57.986a.45.45,0,0,1-.339-.151.449.449,0,0,1-.115-.352l3.381-32.348a.454.454,0,0,1,.451-.408c2.8.008,8.993.019,8.993.019a.713.713,0,0,1,.545.244.711.711,0,0,1,.18.568l-3.631,31.783a.728.728,0,0,1-.724.646Z" transform="translate(402.55 -35.58)" fill="#c6c1c7"/>
      </g>
      <g id="Group_25062" data-name="Group 25062" transform="translate(9.998 43.177)">
        <path id="Path_13295" data-name="Path 13295" d="M-346.6,85.575l-3.371,32.191a13.857,13.857,0,0,1-13.783,12.424h-7.236a13.867,13.867,0,0,1-13.794-12.424l-3.361-32.191c2.116-2.082,8.667-3.668,16.96-1.272C-362.929,86.741-356,89.76-346.6,85.575Z" transform="translate(388.142 -83.011)" fill="#fcecd6"/>
        <g id="Group_25061" data-name="Group 25061" transform="translate(0.228)">
          <path id="Path_13296" data-name="Path 13296" d="M-340.408,105.427a1.009,1.009,0,0,1,.446,1.261l-1.431.381Z" transform="translate(373.606 -89.844)" fill="#ab6a3b" opacity="0.659"/>
          <path id="Path_13297" data-name="Path 13297" d="M-382.455,96.593a1.009,1.009,0,0,1,.787,1.081l-1.262.774Z" transform="translate(386.319 -87.14)" fill="#ab6a3b" opacity="0.614"/>
          <path id="Path_13298" data-name="Path 13298" d="M-337,141.117a1.008,1.008,0,0,1-.424-1.268l1.436-.357Z" transform="translate(372.417 -100.269)" fill="#ab6a3b" opacity="0.477"/>
          <path id="Path_13299" data-name="Path 13299" d="M-383.981,93.054a1.008,1.008,0,0,1,0,1.337l-1.475-.123Z" transform="translate(387.093 -86.057)" fill="#ab6a3b" opacity="0.248"/>
          <path id="Path_13300" data-name="Path 13300" d="M-375.578,97.261a1.009,1.009,0,0,1,1.33-.136l.034,1.48Z" transform="translate(384.068 -87.242)" fill="#ab6a3b" opacity="0.467"/>
          <path id="Path_13301" data-name="Path 13301" d="M-375.992,102.739a1.009,1.009,0,0,1,.228-1.318l1.434.367Z" transform="translate(384.242 -88.618)" fill="#ab6a3b" opacity="0.061"/>
          <path id="Path_13302" data-name="Path 13302" d="M-376.561,121.574a1.009,1.009,0,0,1,.973-.917l.928,1.154Z" transform="translate(384.369 -94.505)" fill="#ab6a3b" opacity="0.461"/>
          <path id="Path_13303" data-name="Path 13303" d="M-344.527,117.553a1.009,1.009,0,0,1-.135,1.33l-1.457-.266Z" transform="translate(375.052 -93.555)" fill="#ab6a3b" opacity="0.519"/>
          <path id="Path_13304" data-name="Path 13304" d="M-350.118,118.6a1.009,1.009,0,0,1,.6-1.194l1.266.769Z" transform="translate(376.285 -93.511)" fill="#ab6a3b" opacity="0.697"/>
          <path id="Path_13305" data-name="Path 13305" d="M-340.67,91.491a1.009,1.009,0,0,1-.241,1.315l-1.431-.382Z" transform="translate(373.897 -85.579)" fill="#ab6a3b" opacity="0.67"/>
          <path id="Path_13306" data-name="Path 13306" d="M-362.808,121.988a1.008,1.008,0,0,1,.324-1.3l1.4.471Z" transform="translate(380.195 -94.515)" fill="#ab6a3b" opacity="0.396"/>
          <path id="Path_13307" data-name="Path 13307" d="M-378.235,132.344a1.008,1.008,0,0,1-1.089.776l-.761-1.27Z" transform="translate(385.448 -97.931)" fill="#ab6a3b" opacity="0.563"/>
          <path id="Path_13308" data-name="Path 13308" d="M-386.44,105.458a1.008,1.008,0,0,1,1.337-.007l-.109,1.477Z" transform="translate(387.393 -89.772)" fill="#ab6a3b" opacity="0.543"/>
          <path id="Path_13309" data-name="Path 13309" d="M-372.625,146.218a1.008,1.008,0,0,1,.505-1.238l1.322.666Z" transform="translate(383.181 -101.949)" fill="#ab6a3b" opacity="0.638"/>
          <path id="Path_13310" data-name="Path 13310" d="M-367.262,85.758a1.009,1.009,0,0,1,.1-1.333l1.462.231Z" transform="translate(381.587 -83.416)" fill="#ab6a3b" opacity="0.007"/>
          <path id="Path_13311" data-name="Path 13311" d="M-346.72,127.4a1.009,1.009,0,0,1-.412,1.273l-1.368-.566Z" transform="translate(375.781 -96.568)" fill="#ab6a3b" opacity="0.305"/>
          <path id="Path_13312" data-name="Path 13312" d="M-355.848,97.637a1.008,1.008,0,0,1-.874,1.011l-1.04-1.054Z" transform="translate(378.616 -87.446)" fill="#ab6a3b" opacity="0.695"/>
          <path id="Path_13313" data-name="Path 13313" d="M-378.327,135.435a1.008,1.008,0,0,1-.38-1.282l1.448-.308Z" transform="translate(385.057 -98.541)" fill="#ab6a3b" opacity="0.14"/>
          <path id="Path_13314" data-name="Path 13314" d="M-367.756,105.527a1.009,1.009,0,0,1-1.3.312l-.23-1.463Z" transform="translate(382.143 -89.522)" fill="#ab6a3b" opacity="0.354"/>
          <path id="Path_13315" data-name="Path 13315" d="M-361.442,137.906a1.008,1.008,0,0,1-1.319-.218l.356-1.437Z" transform="translate(380.146 -99.277)" fill="#ab6a3b" opacity="0.552"/>
          <path id="Path_13316" data-name="Path 13316" d="M-342.527,105.568a1.009,1.009,0,0,1-.443,1.262l-1.354-.6Z" transform="translate(374.503 -89.887)" fill="#ab6a3b" opacity="0.051"/>
          <path id="Path_13317" data-name="Path 13317" d="M-332.641,117.171a1.009,1.009,0,0,1-.888-1l1.181-.893Z" transform="translate(371.199 -92.859)" fill="#ab6a3b" opacity="0.396"/>
          <path id="Path_13318" data-name="Path 13318" d="M-332.82,104.743a1.009,1.009,0,0,1-.147-1.329l1.48-.045Z" transform="translate(371.087 -89.214)" fill="#ab6a3b" opacity="0.139"/>
          <path id="Path_13319" data-name="Path 13319" d="M-360.99,143.785a1.008,1.008,0,0,1-.367,1.286l-1.387-.518Z" transform="translate(380.141 -101.583)" fill="#ab6a3b" opacity="0.162"/>
          <path id="Path_13320" data-name="Path 13320" d="M-384.488,96.062a1.009,1.009,0,0,1,.137,1.33l-1.48.035Z" transform="translate(387.207 -86.978)" fill="#ab6a3b" opacity="0.273"/>
          <path id="Path_13321" data-name="Path 13321" d="M-334.366,132.625a1.008,1.008,0,0,1-.827-1.051l1.232-.821Z" transform="translate(371.709 -97.595)" fill="#ab6a3b" opacity="0.221"/>
          <path id="Path_13322" data-name="Path 13322" d="M-370.3,98.824a1.008,1.008,0,0,1-1.328-.159l.292-1.452Z" transform="translate(382.861 -87.33)" fill="#ab6a3b" opacity="0.456"/>
          <path id="Path_13323" data-name="Path 13323" d="M-350.156,134.163a1.008,1.008,0,0,1-.965.926l-.938-1.146Z" transform="translate(376.87 -98.571)" fill="#ab6a3b" opacity="0.763"/>
          <path id="Path_13324" data-name="Path 13324" d="M-371.673,135.4a1.008,1.008,0,0,1,1.259-.451l.388,1.429Z" transform="translate(382.873 -98.856)" fill="#ab6a3b" opacity="0.672"/>
          <path id="Path_13325" data-name="Path 13325" d="M-368.447,111.185a1.008,1.008,0,0,1,.733-1.118l1.171.907Z" transform="translate(381.888 -91.264)" fill="#ab6a3b" opacity="0.036"/>
          <path id="Path_13326" data-name="Path 13326" d="M-354.2,137.53a1.009,1.009,0,0,1,.991-.9l.9,1.173Z" transform="translate(377.525 -99.394)" fill="#ab6a3b" opacity="0.037"/>
          <path id="Path_13327" data-name="Path 13327" d="M-337.878,119.935a1.009,1.009,0,0,1,1.244-.491l.434,1.416Z" transform="translate(372.53 -94.113)" fill="#ab6a3b" opacity="0.219"/>
          <path id="Path_13328" data-name="Path 13328" d="M-365.973,114.094a1.009,1.009,0,0,1-.842,1.039l-1.074-1.02Z" transform="translate(381.715 -92.496)" fill="#ab6a3b" opacity="0.365"/>
          <path id="Path_13329" data-name="Path 13329" d="M-339.072,141.711a1.009,1.009,0,0,1,1.153.679l-.85,1.212Z" transform="translate(372.896 -100.944)" fill="#ab6a3b" opacity="0.345"/>
          <path id="Path_13330" data-name="Path 13330" d="M-341.491,139.985a1.009,1.009,0,0,1,1.269.422l-.577,1.364Z" transform="translate(373.636 -100.396)" fill="#ab6a3b" opacity="0.519"/>
          <path id="Path_13331" data-name="Path 13331" d="M-374.891,133.048a1.009,1.009,0,0,1-.454,1.257l-1.349-.611Z" transform="translate(384.41 -98.297)" fill="#ab6a3b" opacity="0.188"/>
          <path id="Path_13332" data-name="Path 13332" d="M-345.57,105.382a1.009,1.009,0,0,1,.246,1.314l-1.473.156Z" transform="translate(375.26 -89.83)" fill="#ab6a3b" opacity="0.719"/>
          <path id="Path_13333" data-name="Path 13333" d="M-352.09,105.312a1.009,1.009,0,0,1,.266-1.31l1.423.409Z" transform="translate(376.922 -89.408)" fill="#ab6a3b" opacity="0.489"/>
          <path id="Path_13334" data-name="Path 13334" d="M-384.807,88.017a1.009,1.009,0,0,1,.386,1.28l-1.448.313Z" transform="translate(387.218 -84.515)" fill="#ab6a3b" opacity="0.32"/>
          <path id="Path_13335" data-name="Path 13335" d="M-358.065,94.112a1.008,1.008,0,0,1,1.063.811l-.987,1.1Z" transform="translate(378.709 -86.38)" fill="#ab6a3b" opacity="0.367"/>
          <path id="Path_13336" data-name="Path 13336" d="M-378.937,101.125a1.008,1.008,0,0,1,.381,1.282l-1.448.308Z" transform="translate(385.423 -88.527)" fill="#ab6a3b" opacity="0.218"/>
          <path id="Path_13337" data-name="Path 13337" d="M-333.55,128.931a1.009,1.009,0,0,1-1.278.394l-.323-1.445Z" transform="translate(371.696 -96.715)" fill="#ab6a3b" opacity="0.673"/>
          <path id="Path_13338" data-name="Path 13338" d="M-352.839,110a1.009,1.009,0,0,1-1.294-.339l.488-1.4Z" transform="translate(377.505 -90.712)" fill="#ab6a3b" opacity="0.199"/>
          <path id="Path_13339" data-name="Path 13339" d="M-339.567,99.419a1.008,1.008,0,0,1-1.2.6l-.554-1.373Z" transform="translate(373.583 -87.767)" fill="#ab6a3b" opacity="0.525"/>
          <path id="Path_13340" data-name="Path 13340" d="M-380.641,117.909a1.008,1.008,0,0,1-1.337.035l.077-1.478Z" transform="translate(386.027 -93.222)" fill="#ab6a3b" opacity="0.387"/>
          <path id="Path_13341" data-name="Path 13341" d="M-359.293,106.768a1.009,1.009,0,0,1,1.062-.813l.8,1.244Z" transform="translate(379.084 -90.005)" fill="#ab6a3b" opacity="0.117"/>
          <path id="Path_13342" data-name="Path 13342" d="M-371.34,83.818a1.009,1.009,0,0,1-1.22.547l-.5-1.394Z" transform="translate(383.297 -82.971)" fill="#ab6a3b" opacity="0.636"/>
          <path id="Path_13343" data-name="Path 13343" d="M-376.048,107.3a1.009,1.009,0,0,1,.4-1.275l1.371.559Z" transform="translate(384.238 -90.026)" fill="#ab6a3b" opacity="0.739"/>
          <path id="Path_13344" data-name="Path 13344" d="M-335.237,112.143a1.01,1.01,0,0,1,.5,1.241l-1.414.441Z" transform="translate(372.002 -91.899)" fill="#ab6a3b" opacity="0.485"/>
          <path id="Path_13345" data-name="Path 13345" d="M-350.361,106.881a1.009,1.009,0,0,1-.69,1.145l-1.2-.863Z" transform="translate(376.93 -90.289)" fill="#ab6a3b" opacity="0.307"/>
          <path id="Path_13346" data-name="Path 13346" d="M-338.886,109.4a1.008,1.008,0,0,1-1.146.689l-.661-1.325Z" transform="translate(373.392 -90.866)" fill="#ab6a3b" opacity="0.37"/>
          <path id="Path_13347" data-name="Path 13347" d="M-361.2,109.716a1.008,1.008,0,0,1,1.326-.167l.068,1.479Z" transform="translate(379.667 -91.049)" fill="#ab6a3b" opacity="0.232"/>
          <path id="Path_13348" data-name="Path 13348" d="M-386.542,100.216a1.009,1.009,0,0,1,1.114-.74l.72,1.294Z" transform="translate(387.424 -88.019)" fill="#ab6a3b" opacity="0.357"/>
          <path id="Path_13349" data-name="Path 13349" d="M-369.559,144.4a1.008,1.008,0,0,1,1.311.261l-.4,1.425Z" transform="translate(382.226 -101.727)" fill="#ab6a3b" opacity="0.794"/>
          <path id="Path_13350" data-name="Path 13350" d="M-355.784,96.363a1.009,1.009,0,0,1,.942-.949l.965,1.123Z" transform="translate(378.01 -86.779)" fill="#ab6a3b" opacity="0.253"/>
          <path id="Path_13351" data-name="Path 13351" d="M-384.263,115.441a1.008,1.008,0,0,1,1.319.214l-.352,1.438Z" transform="translate(386.726 -92.86)" fill="#ab6a3b" opacity="0.264"/>
          <path id="Path_13352" data-name="Path 13352" d="M-381.422,92.866a1.009,1.009,0,0,1,.889-1l1.024,1.069Z" transform="translate(385.857 -85.694)" fill="#ab6a3b" opacity="0.34"/>
          <path id="Path_13353" data-name="Path 13353" d="M-343.96,120.982a1.009,1.009,0,0,1-1.321-.21l.348-1.439Z" transform="translate(374.796 -94.099)" fill="#ab6a3b" opacity="0.676"/>
          <path id="Path_13354" data-name="Path 13354" d="M-359.195,118.844a1.009,1.009,0,0,1-1.33.143l-.042-1.48Z" transform="translate(379.474 -93.541)" fill="#ab6a3b" opacity="0.019"/>
          <path id="Path_13355" data-name="Path 13355" d="M-366.423,142.453a1.009,1.009,0,0,1-.074,1.335l-1.467-.2Z" transform="translate(381.738 -101.176)" fill="#ab6a3b" opacity="0.139"/>
          <path id="Path_13356" data-name="Path 13356" d="M-362.425,89.478a1.01,1.01,0,0,1-.285-1.307l1.468-.2Z" transform="translate(380.172 -84.501)" fill="#ab6a3b" opacity="0.24"/>
          <path id="Path_13357" data-name="Path 13357" d="M-339.643,135.814a1.009,1.009,0,0,1,1.337.012l-.13,1.475Z" transform="translate(373.07 -99.066)" fill="#ab6a3b" opacity="0.225"/>
          <path id="Path_13358" data-name="Path 13358" d="M-346.453,92.606a1.008,1.008,0,0,1,.171,1.326l-1.479.072Z" transform="translate(375.555 -85.92)" fill="#ab6a3b" opacity="0.753"/>
          <path id="Path_13359" data-name="Path 13359" d="M-355.709,118.164a1.009,1.009,0,0,1-.415,1.271l-1.367-.57Z" transform="translate(378.533 -93.742)" fill="#ab6a3b" opacity="0.735"/>
          <path id="Path_13360" data-name="Path 13360" d="M-337.728,116.031a1.009,1.009,0,0,1,.232-1.317l1.433.372Z" transform="translate(372.531 -92.686)" fill="#ab6a3b" opacity="0.274"/>
          <path id="Path_13361" data-name="Path 13361" d="M-348.18,114.722a1.009,1.009,0,0,1-1.337-.046l.167-1.471Z" transform="translate(376.092 -92.224)" fill="#ab6a3b" opacity="0.043"/>
          <path id="Path_13362" data-name="Path 13362" d="M-365.317,105.9a1.008,1.008,0,0,1,1.333.1l-.228,1.464Z" transform="translate(380.928 -89.925)" fill="#ab6a3b" opacity="0.593"/>
          <path id="Path_13363" data-name="Path 13363" d="M-335.818,94.555a1.008,1.008,0,0,1,.3-1.3l1.41.45Z" transform="translate(371.937 -86.118)" fill="#ab6a3b" opacity="0.409"/>
          <path id="Path_13364" data-name="Path 13364" d="M-369.989,99.573a1.008,1.008,0,0,1,1.28-.385l.314,1.447Z" transform="translate(382.358 -87.903)" fill="#ab6a3b" opacity="0.612"/>
          <path id="Path_13365" data-name="Path 13365" d="M-355.118,125.207a1.008,1.008,0,0,1,.611,1.189l-1.366.571Z" transform="translate(378.038 -95.897)" fill="#ab6a3b" opacity="0.258"/>
          <path id="Path_13366" data-name="Path 13366" d="M-374.617,141.882a1.008,1.008,0,0,1-1.049.829l-.822-1.231Z" transform="translate(384.347 -100.878)" fill="#ab6a3b" opacity="0.025"/>
          <path id="Path_13367" data-name="Path 13367" d="M-367.043,103.749a1.008,1.008,0,0,1,1.334-.094l-.014,1.48Z" transform="translate(381.456 -89.235)" fill="#ab6a3b" opacity="0.343"/>
          <path id="Path_13368" data-name="Path 13368" d="M-358.609,93.075a1.009,1.009,0,0,1-.944-.947l1.128-.959Z" transform="translate(379.164 -85.48)" fill="#ab6a3b" opacity="0.375"/>
          <path id="Path_13369" data-name="Path 13369" d="M-334.585,120.681a1.009,1.009,0,0,1,1.091.773l-.949,1.137Z" transform="translate(371.522 -94.511)" fill="#ab6a3b" opacity="0.472"/>
          <path id="Path_13370" data-name="Path 13370" d="M-380.7,85.934a1.008,1.008,0,0,1,1.2-.586l.543,1.377Z" transform="translate(385.635 -83.686)" fill="#ab6a3b" opacity="0.225"/>
          <path id="Path_13371" data-name="Path 13371" d="M-337.527,102.915a1.008,1.008,0,0,1,1.3-.312l.23,1.463Z" transform="translate(372.423 -88.941)" fill="#ab6a3b" opacity="0.667"/>
          <path id="Path_13372" data-name="Path 13372" d="M-364.509,115.525a1.009,1.009,0,0,1,.836,1.044l-1.226.831Z" transform="translate(380.8 -92.934)" fill="#ab6a3b" opacity="0.777"/>
          <path id="Path_13373" data-name="Path 13373" d="M-376.368,91.546a1.009,1.009,0,0,1-1.3-.3l.442-1.414Z" transform="translate(384.709 -85.072)" fill="#ab6a3b" opacity="0.525"/>
          <path id="Path_13374" data-name="Path 13374" d="M-368.545,92.717a1.009,1.009,0,0,1,1.3.332l-.48,1.4Z" transform="translate(381.916 -85.919)" fill="#ab6a3b" opacity="0.327"/>
          <path id="Path_13375" data-name="Path 13375" d="M-373.347,129.265a1.008,1.008,0,0,1,1.189-.61l.57,1.366Z" transform="translate(383.386 -96.942)" fill="#ab6a3b" opacity="0.273"/>
          <path id="Path_13376" data-name="Path 13376" d="M-375.517,128.23a1.009,1.009,0,0,1-.829-1.05l1.232-.822Z" transform="translate(384.304 -96.25)" fill="#ab6a3b" opacity="0.353"/>
          <path id="Path_13377" data-name="Path 13377" d="M-369.315,84.307a1.008,1.008,0,0,1,.15,1.328l-1.479.049Z" transform="translate(382.559 -83.38)" fill="#ab6a3b" opacity="0.06"/>
          <path id="Path_13378" data-name="Path 13378" d="M-361.173,87.088a1.009,1.009,0,0,1,.867-1.019l1.049,1.045Z" transform="translate(379.66 -83.919)" fill="#ab6a3b" opacity="0.06"/>
          <path id="Path_13379" data-name="Path 13379" d="M-346.7,137.157a1.008,1.008,0,0,1-1.321.2l-.108-1.477Z" transform="translate(375.668 -99.165)" fill="#ab6a3b" opacity="0.546"/>
          <path id="Path_13380" data-name="Path 13380" d="M-382.4,95.625a1.009,1.009,0,0,1,.295-1.3l1.414.44Z" transform="translate(386.194 -86.444)" fill="#ab6a3b" opacity="0.133"/>
          <path id="Path_13381" data-name="Path 13381" d="M-351.491,100.34a1.009,1.009,0,0,1,.5,1.241l-1.414.441Z" transform="translate(376.977 -88.287)" fill="#ab6a3b" opacity="0.071"/>
          <path id="Path_13382" data-name="Path 13382" d="M-332.391,111.655a1.009,1.009,0,0,1,.746,1.11l-1.291.725Z" transform="translate(371.018 -91.75)" fill="#ab6a3b" opacity="0.686"/>
          <path id="Path_13383" data-name="Path 13383" d="M-336.31,92.1a1.009,1.009,0,0,1-.709,1.133l-1.189-.883Z" transform="translate(372.631 -85.765)" fill="#ab6a3b" opacity="0.175"/>
          <path id="Path_13384" data-name="Path 13384" d="M-354.119,92.063a1.008,1.008,0,0,1,.727,1.121l-1.3.705Z" transform="translate(377.677 -85.754)" fill="#ab6a3b" opacity="0.213"/>
          <path id="Path_13385" data-name="Path 13385" d="M-365.774,90.818a1.009,1.009,0,0,1-.028,1.337l-1.473-.149Z" transform="translate(381.528 -85.373)" fill="#ab6a3b" opacity="0.762"/>
          <path id="Path_13386" data-name="Path 13386" d="M-382.094,135.006a1.009,1.009,0,0,1,.247-1.314l1.429.387Z" transform="translate(386.107 -98.494)" fill="#ab6a3b" opacity="0.306"/>
          <path id="Path_13387" data-name="Path 13387" d="M-355.151,103.6a1.009,1.009,0,0,1,.761-1.1l1.146.937Z" transform="translate(377.818 -88.949)" fill="#ab6a3b" opacity="0.218"/>
          <path id="Path_13388" data-name="Path 13388" d="M-361.634,146.124a1.008,1.008,0,0,1,.075,1.334l-1.48-.034Z" transform="translate(380.231 -102.299)" fill="#ab6a3b" opacity="0.656"/>
          <path id="Path_13389" data-name="Path 13389" d="M-359.135,104.34a1.009,1.009,0,0,1-.3,1.3l-1.412-.447Z" transform="translate(379.56 -89.511)" fill="#ab6a3b" opacity="0.183"/>
          <path id="Path_13390" data-name="Path 13390" d="M-346.238,110.351a1.009,1.009,0,0,1-.869,1.016l-1.045-1.049Z" transform="translate(375.675 -91.341)" fill="#ab6a3b" opacity="0.16"/>
          <path id="Path_13391" data-name="Path 13391" d="M-387.813,86.719a1.008,1.008,0,0,1,1.307-.278l.193,1.468Z" transform="translate(387.813 -83.99)" fill="#ab6a3b" opacity="0.147"/>
          <path id="Path_13392" data-name="Path 13392" d="M-382.767,102.146a1.009,1.009,0,0,1-1.1.761l-.744-1.28Z" transform="translate(386.833 -88.681)" fill="#ab6a3b" opacity="0.637"/>
          <path id="Path_13393" data-name="Path 13393" d="M-359.224,134.014a1.008,1.008,0,0,1-1.045-.833l1.012-1.081Z" transform="translate(379.383 -98.007)" fill="#ab6a3b" opacity="0.007"/>
          <path id="Path_13394" data-name="Path 13394" d="M-375.849,111.916a1.008,1.008,0,0,1,.883-1l1.03,1.063Z" transform="translate(384.151 -91.523)" fill="#ab6a3b" opacity="0.646"/>
          <path id="Path_13395" data-name="Path 13395" d="M-356.563,143.19a1.009,1.009,0,0,1,.85-1.033l1.065,1.029Z" transform="translate(378.249 -101.085)" fill="#ab6a3b" opacity="0.331"/>
          <path id="Path_13396" data-name="Path 13396" d="M-378.649,120.9a1.009,1.009,0,0,1-.4-1.275l1.443-.334Z" transform="translate(385.161 -94.087)" fill="#ab6a3b" opacity="0.704"/>
          <path id="Path_13397" data-name="Path 13397" d="M-332.707,99.383a1.009,1.009,0,0,1-1.316.239l-.148-1.473Z" transform="translate(371.396 -87.616)" fill="#ab6a3b" opacity="0.287"/>
          <path id="Path_13398" data-name="Path 13398" d="M-363.594,133.561a1.008,1.008,0,0,1,.221-1.318l1.436.359Z" transform="translate(380.449 -98.051)" fill="#ab6a3b" opacity="0.509"/>
          <path id="Path_13399" data-name="Path 13399" d="M-364.8,145.861a1.009,1.009,0,0,1-1.142.7l-.667-1.322Z" transform="translate(381.323 -102.027)" fill="#ab6a3b" opacity="0.555"/>
          <path id="Path_13400" data-name="Path 13400" d="M-347.789,133.245a1.008,1.008,0,0,1,.751-1.106l1.155.926Z" transform="translate(375.565 -98.019)" fill="#ab6a3b" opacity="0.241"/>
          <path id="Path_13401" data-name="Path 13401" d="M-369.889,88.516a1.009,1.009,0,0,1-1.337.007l.109-1.477Z" transform="translate(382.737 -84.218)" fill="#ab6a3b" opacity="0.374"/>
          <path id="Path_13402" data-name="Path 13402" d="M-385.326,87.2a1.009,1.009,0,0,1,.29-1.305l1.416.434Z" transform="translate(387.091 -83.864)" fill="#ab6a3b" opacity="0.472"/>
          <path id="Path_13403" data-name="Path 13403" d="M-364.6,93.372a1.008,1.008,0,0,1,.175,1.325l-1.479.076Z" transform="translate(381.107 -86.154)" fill="#ab6a3b" opacity="0.574"/>
          <path id="Path_13404" data-name="Path 13404" d="M-363.2,92.065a1.009,1.009,0,0,1,.875-1.011l1.04,1.054Z" transform="translate(380.28 -85.445)" fill="#ab6a3b" opacity="0.208"/>
          <path id="Path_13405" data-name="Path 13405" d="M-375.2,138.406a1.009,1.009,0,0,1,.974.915l-1.1,1Z" transform="translate(383.989 -99.937)" fill="#ab6a3b" opacity="0.79"/>
          <path id="Path_13406" data-name="Path 13406" d="M-355.441,116.9a1.009,1.009,0,0,1,.876-1.01l1.039,1.055Z" transform="translate(377.906 -93.044)" fill="#ab6a3b" opacity="0.13"/>
          <path id="Path_13407" data-name="Path 13407" d="M-340.568,127.862a1.008,1.008,0,0,1-1.329-.148l.279-1.454Z" transform="translate(373.76 -96.22)" fill="#ab6a3b" opacity="0.432"/>
          <path id="Path_13408" data-name="Path 13408" d="M-356.608,88.622a1.009,1.009,0,0,1-.816,1.06l-1.1-.994Z" transform="translate(378.848 -84.7)" fill="#ab6a3b" opacity="0.576"/>
          <path id="Path_13409" data-name="Path 13409" d="M-359.216,142.626a1.009,1.009,0,0,1-.321-1.3l1.461-.24Z" transform="translate(379.197 -100.758)" fill="#ab6a3b" opacity="0.462"/>
          <path id="Path_13410" data-name="Path 13410" d="M-352.375,125.724a1.009,1.009,0,0,1-1.242-.5l.657-1.328Z" transform="translate(377.347 -95.498)" fill="#ab6a3b" opacity="0.618"/>
          <path id="Path_13411" data-name="Path 13411" d="M-385.249,91.879a1.009,1.009,0,0,1-1.3.327l-.248-1.46Z" transform="translate(387.501 -85.351)" fill="#ab6a3b" opacity="0.778"/>
          <path id="Path_13412" data-name="Path 13412" d="M-383.656,126.78a1.009,1.009,0,0,1,1.313.255l-.4,1.427Z" transform="translate(386.541 -96.335)" fill="#ab6a3b" opacity="0.531"/>
          <path id="Path_13413" data-name="Path 13413" d="M-356.185,113.771a1.008,1.008,0,0,1,.5-1.239l1.323.663Z" transform="translate(378.15 -92.018)" fill="#ab6a3b" opacity="0.437"/>
          <path id="Path_13414" data-name="Path 13414" d="M-330.443,95.018a1.008,1.008,0,0,1-1.224-.537l.7-1.3Z" transform="translate(370.629 -86.094)" fill="#ab6a3b" opacity="0.767"/>
          <path id="Path_13415" data-name="Path 13415" d="M-344.065,147.114a1.009,1.009,0,0,1-1.272-.413l.567-1.368Z" transform="translate(374.813 -102.057)" fill="#ab6a3b" opacity="0.17"/>
          <path id="Path_13416" data-name="Path 13416" d="M-364.773,99.438a1.009,1.009,0,0,1,1.252.471l-.63,1.34Z" transform="translate(380.762 -87.991)" fill="#ab6a3b" opacity="0.554"/>
          <path id="Path_13417" data-name="Path 13417" d="M-346.438,97.37a1.009,1.009,0,0,1-.359,1.288l-1.39-.511Z" transform="translate(375.685 -87.378)" fill="#ab6a3b" opacity="0.372"/>
          <path id="Path_13418" data-name="Path 13418" d="M-377.968,130.687a1.01,1.01,0,0,1,1.337.049l-.172,1.471Z" transform="translate(384.8 -97.502)" fill="#ab6a3b" opacity="0.061"/>
          <path id="Path_13419" data-name="Path 13419" d="M-335.172,117.392a1.009,1.009,0,0,1-.973.918l-.928-1.154Z" transform="translate(372.284 -93.433)" fill="#ab6a3b" opacity="0.763"/>
          <path id="Path_13420" data-name="Path 13420" d="M-381.033,126.789a1.009,1.009,0,0,1,1.314-.246l.156,1.473Z" transform="translate(385.738 -96.26)" fill="#ab6a3b" opacity="0.155"/>
          <path id="Path_13421" data-name="Path 13421" d="M-368.835,124.15a1.009,1.009,0,0,1-.967.924l-.935-1.148Z" transform="translate(382.587 -95.506)" fill="#ab6a3b" opacity="0.245"/>
          <path id="Path_13422" data-name="Path 13422" d="M-339.364,127.548a1.008,1.008,0,0,1,.061-1.335l1.469.184Z" transform="translate(373.056 -96.205)" fill="#ab6a3b" opacity="0.033"/>
          <path id="Path_13423" data-name="Path 13423" d="M-364.367,114.3a1.008,1.008,0,0,1,1.082-.785l.772,1.264Z" transform="translate(380.637 -92.318)" fill="#ab6a3b" opacity="0.46"/>
          <path id="Path_13424" data-name="Path 13424" d="M-377.353,108.355a1.01,1.01,0,0,1-.886-1l1.184-.89Z" transform="translate(384.883 -90.161)" fill="#ab6a3b" opacity="0.577"/>
          <path id="Path_13425" data-name="Path 13425" d="M-332.486,91.467a1.008,1.008,0,0,1,.532,1.226l-1.4.48Z" transform="translate(371.146 -85.571)" fill="#ab6a3b" opacity="0.436"/>
          <path id="Path_13426" data-name="Path 13426" d="M-363.9,135.756a1.009,1.009,0,0,1-.933-.958l1.139-.947Z" transform="translate(380.781 -98.543)" fill="#ab6a3b" opacity="0.593"/>
          <path id="Path_13427" data-name="Path 13427" d="M-334.148,115.364a1.008,1.008,0,0,1-.405-1.274l1.441-.336Z" transform="translate(371.541 -92.392)" fill="#ab6a3b" opacity="0.761"/>
          <path id="Path_13428" data-name="Path 13428" d="M-372.46,122.441a1.008,1.008,0,0,1,.338-1.294l1.4.487Z" transform="translate(383.148 -94.655)" fill="#ab6a3b" opacity="0.283"/>
          <path id="Path_13429" data-name="Path 13429" d="M-384.607,103.153a1.009,1.009,0,0,1-1.009.878l-.88-1.19Z" transform="translate(387.41 -89.052)" fill="#ab6a3b" opacity="0.017"/>
          <path id="Path_13430" data-name="Path 13430" d="M-381,113.7a1.009,1.009,0,0,1-1.18.627l-.589-1.359Z" transform="translate(386.271 -92.152)" fill="#ab6a3b" opacity="0.648"/>
          <path id="Path_13431" data-name="Path 13431" d="M-346.824,108.083a1.008,1.008,0,0,1-1.07.8l-.791-1.252Z" transform="translate(375.838 -90.519)" fill="#ab6a3b" opacity="0.562"/>
          <path id="Path_13432" data-name="Path 13432" d="M-379.032,142.682a1.009,1.009,0,0,1,1.251-.472l.412,1.423Z" transform="translate(385.126 -101.079)" fill="#ab6a3b" opacity="0.243"/>
          <path id="Path_13433" data-name="Path 13433" d="M-336.93,108.105a1.009,1.009,0,0,1,1.314-.25l.161,1.472Z" transform="translate(372.24 -90.541)" fill="#ab6a3b" opacity="0.326"/>
          <path id="Path_13434" data-name="Path 13434" d="M-343.906,114.109a1.009,1.009,0,0,1,1.318.228l-.368,1.434Z" transform="translate(374.375 -92.454)" fill="#ab6a3b" opacity="0.013"/>
          <path id="Path_13435" data-name="Path 13435" d="M-369.1,142.458a1.009,1.009,0,0,1-1,.883l-.888-1.185Z" transform="translate(382.666 -101.085)" fill="#ab6a3b" opacity="0.139"/>
          <path id="Path_13436" data-name="Path 13436" d="M-366.682,148.473a1.008,1.008,0,0,1-.531,1.227l-1.308-.693Z" transform="translate(381.909 -103.018)" fill="#ab6a3b" opacity="0.335"/>
          <path id="Path_13437" data-name="Path 13437" d="M-378.5,98.152a1.009,1.009,0,0,1-.694,1.143l-1.2-.867Z" transform="translate(385.544 -87.617)" fill="#ab6a3b" opacity="0.662"/>
          <path id="Path_13438" data-name="Path 13438" d="M-352.919,134.187a1.009,1.009,0,0,1-.928-.963l1.144-.94Z" transform="translate(377.418 -98.063)" fill="#ab6a3b" opacity="0.54"/>
          <path id="Path_13439" data-name="Path 13439" d="M-357.924,120.208a1.009,1.009,0,0,1-.168,1.327l-1.45-.3Z" transform="translate(379.161 -94.367)" fill="#ab6a3b" opacity="0.558"/>
          <path id="Path_13440" data-name="Path 13440" d="M-349.4,109.7a1.008,1.008,0,0,1-1.332.115l-.011-1.48Z" transform="translate(376.467 -90.734)" fill="#ab6a3b" opacity="0.12"/>
          <path id="Path_13441" data-name="Path 13441" d="M-369.021,114.794a1.009,1.009,0,0,1-1.153-.677l.848-1.214Z" transform="translate(382.415 -92.132)" fill="#ab6a3b" opacity="0.267"/>
          <path id="Path_13442" data-name="Path 13442" d="M-338.332,138.219a1.01,1.01,0,0,1-.484,1.247l-1.334-.643Z" transform="translate(373.225 -99.88)" fill="#ab6a3b" opacity="0.107"/>
          <path id="Path_13443" data-name="Path 13443" d="M-351.747,141.512a1.009,1.009,0,0,1-1.273.408l-.339-1.441Z" transform="translate(377.268 -100.571)" fill="#ab6a3b" opacity="0.359"/>
          <path id="Path_13444" data-name="Path 13444" d="M-361.694,104.269a1.008,1.008,0,0,1-.524,1.23l-1.312-.686Z" transform="translate(380.381 -89.489)" fill="#ab6a3b" opacity="0.02"/>
          <path id="Path_13445" data-name="Path 13445" d="M-372.208,102.35a1.01,1.01,0,0,1,.86-1.025l1.056,1.039Z" transform="translate(383.037 -88.588)" fill="#ab6a3b" opacity="0.672"/>
          <path id="Path_13446" data-name="Path 13446" d="M-332.734,110.115a1.009,1.009,0,0,1-.457,1.257l-1.347-.615Z" transform="translate(371.508 -91.278)" fill="#ab6a3b" opacity="0.641"/>
          <path id="Path_13447" data-name="Path 13447" d="M-365.811,100.028a1.009,1.009,0,0,1-1.277.4l-.327-1.444Z" transform="translate(381.57 -87.871)" fill="#ab6a3b" opacity="0.421"/>
          <path id="Path_13448" data-name="Path 13448" d="M-381.361,122.382a1.008,1.008,0,0,1,.491-1.244l1.33.651Z" transform="translate(385.856 -94.652)" fill="#ab6a3b" opacity="0.19"/>
          <path id="Path_13449" data-name="Path 13449" d="M-335.922,134.166a1.009,1.009,0,0,1,1.321.209l-.346,1.439Z" transform="translate(371.932 -98.59)" fill="#ab6a3b" opacity="0.514"/>
          <path id="Path_13450" data-name="Path 13450" d="M-373.514,107.778a1.008,1.008,0,0,1,1.226.533l-.7,1.307Z" transform="translate(383.437 -90.549)" fill="#ab6a3b" opacity="0.405"/>
          <path id="Path_13451" data-name="Path 13451" d="M-373.854,95.378a1.008,1.008,0,0,1,1.3-.3l.218,1.464Z" transform="translate(383.541 -86.636)" fill="#ab6a3b" opacity="0.048"/>
          <path id="Path_13452" data-name="Path 13452" d="M-341.535,97.022a1.009,1.009,0,0,1,.473-1.251l1.339.631Z" transform="translate(373.669 -86.888)" fill="#ab6a3b" opacity="0.752"/>
          <path id="Path_13453" data-name="Path 13453" d="M-361.029,111.714a1.008,1.008,0,0,1,.185,1.324l-1.478.087Z" transform="translate(380.012 -91.768)" fill="#ab6a3b" opacity="0.343"/>
          <path id="Path_13454" data-name="Path 13454" d="M-333.6,118.177a1.009,1.009,0,0,1,1.177.635l-.8,1.244Z" transform="translate(371.221 -93.739)" fill="#ab6a3b" opacity="0.373"/>
          <path id="Path_13455" data-name="Path 13455" d="M-344.924,91.154a1.01,1.01,0,0,1,.541-1.223l1.3.7Z" transform="translate(374.7 -85.101)" fill="#ab6a3b" opacity="0.423"/>
          <path id="Path_13456" data-name="Path 13456" d="M-344.685,141.307a1.009,1.009,0,0,1-1.287.364l-.289-1.452Z" transform="translate(375.096 -100.492)" fill="#ab6a3b" opacity="0.39"/>
          <path id="Path_13457" data-name="Path 13457" d="M-351.458,92.6a1.009,1.009,0,0,1-.47,1.252l-1.34-.629Z" transform="translate(377.241 -85.919)" fill="#ab6a3b" opacity="0.021"/>
          <path id="Path_13458" data-name="Path 13458" d="M-350.622,135.99a1.009,1.009,0,0,1,.588,1.2l-1.377.544Z" transform="translate(376.672 -99.198)" fill="#ab6a3b" opacity="0.044"/>
          <path id="Path_13459" data-name="Path 13459" d="M-376.718,88.053a1.008,1.008,0,0,1,1.336.045l-.167,1.471Z" transform="translate(384.417 -84.453)" fill="#ab6a3b" opacity="0.351"/>
          <path id="Path_13460" data-name="Path 13460" d="M-371.2,92.78a1.009,1.009,0,0,1,1.246-.486l.428,1.417Z" transform="translate(382.728 -85.803)" fill="#ab6a3b" opacity="0.55"/>
          <path id="Path_13461" data-name="Path 13461" d="M-347.831,121.28a1.009,1.009,0,0,1-1.076-.794l.97-1.119Z" transform="translate(375.906 -94.11)" fill="#ab6a3b" opacity="0.318"/>
          <path id="Path_13462" data-name="Path 13462" d="M-350.8,123.151a1.008,1.008,0,0,1,1-.885l.89,1.183Z" transform="translate(376.484 -94.997)" fill="#ab6a3b" opacity="0.032"/>
          <path id="Path_13463" data-name="Path 13463" d="M-379.417,94.622a1.009,1.009,0,0,1,1.139-.7l.672,1.319Z" transform="translate(385.243 -86.318)" fill="#ab6a3b" opacity="0.791"/>
          <path id="Path_13464" data-name="Path 13464" d="M-360.626,90.167a1.009,1.009,0,0,1,.48-1.248l1.336.64Z" transform="translate(379.511 -84.791)" fill="#ab6a3b" opacity="0.22"/>
          <path id="Path_13465" data-name="Path 13465" d="M-367.679,136.5a1.008,1.008,0,0,1,1.121-.727l.705,1.3Z" transform="translate(381.651 -99.128)" fill="#ab6a3b" opacity="0.109"/>
          <path id="Path_13466" data-name="Path 13466" d="M-336.53,136.585a1.009,1.009,0,0,1,1.327.169l-.3,1.449Z" transform="translate(372.118 -99.325)" fill="#ab6a3b" opacity="0.714"/>
          <path id="Path_13467" data-name="Path 13467" d="M-377.617,99.205a1.009,1.009,0,0,1,1.244-.49l.432,1.416Z" transform="translate(384.692 -87.769)" fill="#ab6a3b" opacity="0.314"/>
          <path id="Path_13468" data-name="Path 13468" d="M-338.183,110.688a1.01,1.01,0,0,1,.736-1.117l1.168.91Z" transform="translate(372.626 -91.112)" fill="#ab6a3b" opacity="0.38"/>
          <path id="Path_13469" data-name="Path 13469" d="M-369.008,134.071a1.008,1.008,0,0,1,1.335-.062l-.048,1.48Z" transform="translate(382.058 -98.52)" fill="#ab6a3b" opacity="0.216"/>
          <path id="Path_13470" data-name="Path 13470" d="M-353.825,90.327a1.009,1.009,0,0,1,1.275-.4l.335,1.442Z" transform="translate(377.411 -85.07)" fill="#ab6a3b" opacity="0.292"/>
          <path id="Path_13471" data-name="Path 13471" d="M-366.208,130.353a1.01,1.01,0,0,1,1.314-.248l.159,1.473Z" transform="translate(381.201 -97.35)" fill="#ab6a3b" opacity="0.009"/>
          <path id="Path_13472" data-name="Path 13472" d="M-365.444,133.217a1.009,1.009,0,0,1-1.059.817l-.808-1.24Z" transform="translate(381.538 -98.219)" fill="#ab6a3b" opacity="0.339"/>
          <path id="Path_13473" data-name="Path 13473" d="M-363.438,93.66a1.008,1.008,0,0,1,1.3-.315l.234,1.462Z" transform="translate(380.353 -86.107)" fill="#ab6a3b" opacity="0.765"/>
          <path id="Path_13474" data-name="Path 13474" d="M-347.937,95.954a1.009,1.009,0,0,1-1.337.045l.068-1.479Z" transform="translate(376.018 -86.506)" fill="#ab6a3b" opacity="0.221"/>
          <path id="Path_13475" data-name="Path 13475" d="M-353.666,149.165a1.009,1.009,0,0,1,.528-1.228l1.309.691Z" transform="translate(377.377 -102.854)" fill="#ab6a3b" opacity="0.309"/>
          <path id="Path_13476" data-name="Path 13476" d="M-341.534,105.105a1.009,1.009,0,0,1-.141-1.33l1.48-.039Z" transform="translate(373.752 -89.326)" fill="#ab6a3b" opacity="0.587"/>
          <path id="Path_13477" data-name="Path 13477" d="M-364.463,137.3a1.008,1.008,0,0,1,.151,1.328l-1.479.05Z" transform="translate(381.073 -99.6)" fill="#ab6a3b" opacity="0.32"/>
          <path id="Path_13478" data-name="Path 13478" d="M-351.874,140.1a1.009,1.009,0,0,1,.77-1.094l1.139.946Z" transform="translate(376.815 -100.12)" fill="#ab6a3b" opacity="0.267"/>
          <path id="Path_13479" data-name="Path 13479" d="M-337.345,130.8a1.009,1.009,0,0,1-.632-1.178l1.356-.595Z" transform="translate(372.57 -97.065)" fill="#ab6a3b" opacity="0.013"/>
          <path id="Path_13480" data-name="Path 13480" d="M-377.179,125.3a1.01,1.01,0,0,1-1.33.139l-.036-1.48Z" transform="translate(384.976 -95.514)" fill="#ab6a3b" opacity="0.161"/>
          <path id="Path_13481" data-name="Path 13481" d="M-340.221,119.171a1.008,1.008,0,0,1,.263,1.311l-1.47.176Z" transform="translate(373.617 -94.05)" fill="#ab6a3b" opacity="0.03"/>
          <path id="Path_13482" data-name="Path 13482" d="M-354.438,134.826a1.009,1.009,0,0,1,.206,1.321l-1.476.112Z" transform="translate(377.987 -98.841)" fill="#ab6a3b" opacity="0.178"/>
          <path id="Path_13483" data-name="Path 13483" d="M-371.6,127.708a1.009,1.009,0,0,1-1.167-.654l.824-1.23Z" transform="translate(383.209 -96.086)" fill="#ab6a3b" opacity="0.471"/>
          <path id="Path_13484" data-name="Path 13484" d="M-344.85,113.047a1.009,1.009,0,0,1-1.312.263l-.176-1.47Z" transform="translate(375.119 -91.806)" fill="#ab6a3b" opacity="0.09"/>
          <path id="Path_13485" data-name="Path 13485" d="M-344.5,139.877a1.008,1.008,0,0,1,1.078-.79l.778,1.26Z" transform="translate(374.556 -100.144)" fill="#ab6a3b" opacity="0.477"/>
          <path id="Path_13486" data-name="Path 13486" d="M-382.591,105.737a1.009,1.009,0,0,1-.605,1.192l-1.263-.772Z" transform="translate(386.786 -89.939)" fill="#ab6a3b" opacity="0.633"/>
          <path id="Path_13487" data-name="Path 13487" d="M-353.332,97.647a1.009,1.009,0,0,1,1.3-.3l.221,1.464Z" transform="translate(377.26 -87.33)" fill="#ab6a3b" opacity="0.312"/>
          <path id="Path_13488" data-name="Path 13488" d="M-337.652,121.426a1.009,1.009,0,0,1-1.1.758l-.74-1.282Z" transform="translate(373.025 -94.58)" fill="#ab6a3b" opacity="0.312"/>
          <path id="Path_13489" data-name="Path 13489" d="M-376.474,84.279a1.009,1.009,0,0,1,.539-1.224l1.3.7Z" transform="translate(384.356 -82.997)" fill="#ab6a3b" opacity="0.766"/>
          <path id="Path_13490" data-name="Path 13490" d="M-375.506,96.706a1.008,1.008,0,0,1-1.337-.019l.138-1.474Z" transform="translate(384.456 -86.718)" fill="#ab6a3b" opacity="0.118"/>
          <path id="Path_13491" data-name="Path 13491" d="M-368.585,129.732a1.008,1.008,0,0,1,.347,1.291l-1.456.269Z" transform="translate(382.268 -97.282)" fill="#ab6a3b" opacity="0.584"/>
          <path id="Path_13492" data-name="Path 13492" d="M-370.675,138.563a1.008,1.008,0,0,1-.687,1.147l-1.206-.859Z" transform="translate(383.147 -99.985)" fill="#ab6a3b" opacity="0.741"/>
          <path id="Path_13493" data-name="Path 13493" d="M-362.6,100.645a1.007,1.007,0,0,1,.593-1.2l1.271.76Z" transform="translate(380.105 -88.014)" fill="#ab6a3b" opacity="0.248"/>
          <path id="Path_13494" data-name="Path 13494" d="M-347.422,139.038a1.009,1.009,0,0,1-.666,1.16l-1.221-.837Z" transform="translate(376.029 -100.13)" fill="#ab6a3b" opacity="0.058"/>
          <path id="Path_13495" data-name="Path 13495" d="M-380.709,107.357a1.3,1.3,0,0,1,.117-1.365l1.348.409-.229.693Z" transform="translate(385.681 -90.017)" fill="#ab6a3b" opacity="0.096"/>
          <path id="Path_13496" data-name="Path 13496" d="M-380.921,131.242a1.3,1.3,0,0,1-1.207.648l-.393-1.353.706-.187Z" transform="translate(386.193 -97.471)" fill="#ab6a3b" opacity="0.241"/>
          <path id="Path_13497" data-name="Path 13497" d="M-367.533,96.147a1.3,1.3,0,0,1-.736,1.155l-1-.988.524-.508Z" transform="translate(382.139 -86.899)" fill="#ab6a3b" opacity="0.005"/>
          <path id="Path_13498" data-name="Path 13498" d="M-379.008,88.175a1.3,1.3,0,0,1,1.315-.384l.1,1.406-.729.036Z" transform="translate(385.118 -84.434)" fill="#ab6a3b" opacity="0.292"/>
          <path id="Path_13499" data-name="Path 13499" d="M-337.508,99.809a1.3,1.3,0,0,1,.359-1.323l1.253.645-.35.641Z" transform="translate(372.434 -87.719)" fill="#ab6a3b" opacity="0.331"/>
          <path id="Path_13500" data-name="Path 13500" d="M-372.429,141.895a1.3,1.3,0,0,1,.008-1.37l1.376.3-.173.709Z" transform="translate(383.162 -100.585)" fill="#ab6a3b" opacity="0.117"/>
          <path id="Path_13501" data-name="Path 13501" d="M-343.028,97.17a1.3,1.3,0,0,1-.371,1.319l-1.247-.656.355-.637Z" transform="translate(374.602 -87.317)" fill="#ab6a3b" opacity="0.396"/>
          <path id="Path_13502" data-name="Path 13502" d="M-338.618,112.283a1.3,1.3,0,0,1,.859,1.067l-1.258.635-.313-.659Z" transform="translate(372.975 -91.942)" fill="#ab6a3b" opacity="0.434"/>
          <path id="Path_13503" data-name="Path 13503" d="M-367.669,102.983a1.3,1.3,0,0,1-1.255-.55l.823-1.144.582.441Z" transform="translate(382.032 -88.577)" fill="#ab6a3b" opacity="0.61"/>
          <path id="Path_13504" data-name="Path 13504" d="M-366.234,96.742a1.3,1.3,0,0,1,.981-.957l.752,1.192-.626.374Z" transform="translate(381.209 -86.893)" fill="#ab6a3b" opacity="0.688"/>
          <path id="Path_13505" data-name="Path 13505" d="M-353.363,99.684a1.3,1.3,0,0,1-1.106.808l-.575-1.286.672-.282Z" transform="translate(377.784 -87.853)" fill="#ab6a3b" opacity="0.612"/>
          <path id="Path_13506" data-name="Path 13506" d="M-379.76,139.238a1.3,1.3,0,0,1,1.3-.43l.154,1.4-.727.062Z" transform="translate(385.348 -100.051)" fill="#ab6a3b" opacity="0.552"/>
          <path id="Path_13507" data-name="Path 13507" d="M-371.291,111.907a1.3,1.3,0,0,1,.667-1.2l1.061.927-.493.538Z" transform="translate(382.758 -91.461)" fill="#ab6a3b" opacity="0.122"/>
          <path id="Path_13508" data-name="Path 13508" d="M-356.39,103.732a1.3,1.3,0,0,1,.867,1.06l-1.253.645-.319-.656Z" transform="translate(378.411 -89.325)" fill="#ab6a3b" opacity="0.315"/>
          <path id="Path_13509" data-name="Path 13509" d="M-367.784,120.463a1.3,1.3,0,0,1-1.357.182l.108-1.405.726.074Z" transform="translate(382.098 -94.071)" fill="#ab6a3b" opacity="0.023"/>
          <path id="Path_13510" data-name="Path 13510" d="M-330.257,98.708a1.3,1.3,0,0,1-1.356-.194l.486-1.323.679.269Z" transform="translate(370.613 -87.323)" fill="#ab6a3b" opacity="0.642"/>
          <path id="Path_13511" data-name="Path 13511" d="M-347.055,143.245a1.3,1.3,0,0,1,.947-.99l.793,1.165-.613.4Z" transform="translate(375.339 -101.115)" fill="#ab6a3b" opacity="0.49"/>
          <path id="Path_13512" data-name="Path 13512" d="M-343.142,103.106a1.3,1.3,0,0,1-.93,1.006l-.813-1.151.607-.407Z" transform="translate(374.675 -88.964)" fill="#ab6a3b" opacity="0.778"/>
          <path id="Path_13513" data-name="Path 13513" d="M-387.179,95.087a1.3,1.3,0,0,1,1.365.117l-.412,1.348-.693-.23Z" transform="translate(387.619 -86.637)" fill="#ab6a3b" opacity="0.764"/>
          <path id="Path_13514" data-name="Path 13514" d="M-347.447,91.564a1.3,1.3,0,0,1-.611-1.226l1.365-.351.164.711Z" transform="translate(375.646 -85.118)" fill="#ab6a3b" opacity="0.139"/>
          <path id="Path_13515" data-name="Path 13515" d="M-366.953,139.708a1.3,1.3,0,0,1-.121,1.365l-1.347-.415.232-.692Z" transform="translate(381.878 -100.335)" fill="#ab6a3b" opacity="0.668"/>
          <path id="Path_13516" data-name="Path 13516" d="M-359.2,112.528a1.3,1.3,0,0,1,1.28.487l-.765,1.184-.6-.411Z" transform="translate(379.082 -92.009)" fill="#ab6a3b" opacity="0.665"/>
          <path id="Path_13517" data-name="Path 13517" d="M-339.058,107.68a1.3,1.3,0,0,1,1.348-.242l-.045,1.408-.729-.041Z" transform="translate(372.891 -90.433)" fill="#ab6a3b" opacity="0.634"/>
          <path id="Path_13518" data-name="Path 13518" d="M-344.142,127.483a1.3,1.3,0,0,1,1.344.265l-.554,1.295-.664-.3Z" transform="translate(374.447 -96.569)" fill="#ab6a3b" opacity="0.084"/>
          <path id="Path_13519" data-name="Path 13519" d="M-368.625,127.489a1.3,1.3,0,0,1-.957.981l-.781-1.172.617-.39Z" transform="translate(382.472 -96.418)" fill="#ab6a3b" opacity="0.796"/>
          <path id="Path_13520" data-name="Path 13520" d="M-348.03,104.346a1.3,1.3,0,0,1-.182,1.357l-1.327-.474.262-.681Z" transform="translate(376.099 -89.513)" fill="#ab6a3b" opacity="0.218"/>
          <path id="Path_13521" data-name="Path 13521" d="M-347.516,146.739a1.3,1.3,0,0,1-.528-1.264l1.385-.26.117.72Z" transform="translate(375.645 -102.021)" fill="#ab6a3b" opacity="0.387"/>
          <path id="Path_13522" data-name="Path 13522" d="M-357.587,133.18a1.3,1.3,0,0,1,.881-1.049l.866,1.111-.586.435Z" transform="translate(378.562 -98.016)" fill="#ab6a3b" opacity="0.203"/>
          <path id="Path_13523" data-name="Path 13523" d="M-359.1,126.369a1.3,1.3,0,0,1,.994-.943l.736,1.2-.631.366Z" transform="translate(379.025 -95.964)" fill="#ab6a3b" opacity="0.463"/>
          <path id="Path_13524" data-name="Path 13524" d="M-334.975,101.266a1.3,1.3,0,0,1,1.368-.083l-.21,1.393-.718-.126Z" transform="translate(371.642 -88.499)" fill="#ab6a3b" opacity="0.33"/>
          <path id="Path_13525" data-name="Path 13525" d="M-382.753,100.81A1.3,1.3,0,0,1-383,99.463l1.409.035-.035.729Z" transform="translate(386.366 -88.018)" fill="#ab6a3b" opacity="0.234"/>
          <path id="Path_13526" data-name="Path 13526" d="M-343.005,138.1a1.3,1.3,0,0,1,.579-1.241l1.125.848-.453.572Z" transform="translate(374.103 -99.464)" fill="#ab6a3b" opacity="0.319"/>
          <path id="Path_13527" data-name="Path 13527" d="M-358.5,116.5a1.3,1.3,0,0,1,.8-1.112l.948,1.042-.551.477Z" transform="translate(378.842 -92.891)" fill="#ab6a3b" opacity="0.326"/>
          <path id="Path_13528" data-name="Path 13528" d="M-340.357,130.936a1.3,1.3,0,0,1,.7-1.179l1.037.954-.507.525Z" transform="translate(373.289 -97.29)" fill="#ab6a3b" opacity="0.113"/>
          <path id="Path_13529" data-name="Path 13529" d="M-330.976,100.4a1.3,1.3,0,0,1,.222,1.352l-1.407-.067.051-.728Z" transform="translate(370.781 -88.306)" fill="#ab6a3b" opacity="0.516"/>
          <path id="Path_13530" data-name="Path 13530" d="M-348.828,134.525a1.3,1.3,0,0,1,1.207-.649l.393,1.353-.705.187Z" transform="translate(375.882 -98.551)" fill="#ab6a3b" opacity="0.159"/>
          <path id="Path_13531" data-name="Path 13531" d="M-345.452,126a1.3,1.3,0,0,1,.82,1.1l-1.281.588-.289-.67Z" transform="translate(375.078 -96.14)" fill="#ab6a3b" opacity="0.748"/>
          <path id="Path_13532" data-name="Path 13532" d="M-356.548,107.492a1.3,1.3,0,0,1,.822-1.1l.926,1.062-.561.466Z" transform="translate(378.244 -90.14)" fill="#ab6a3b" opacity="0.399"/>
          <path id="Path_13533" data-name="Path 13533" d="M-333.152,107.153a1.3,1.3,0,0,1,.663,1.2l-1.348.409-.195-.7Z" transform="translate(371.354 -90.372)" fill="#ab6a3b" opacity="0.405"/>
          <path id="Path_13534" data-name="Path 13534" d="M-363.406,148.479a1.3,1.3,0,0,1-1.124.783l-.546-1.3.679-.267Z" transform="translate(380.854 -102.78)" fill="#ab6a3b" opacity="0.018"/>
          <path id="Path_13535" data-name="Path 13535" d="M-381.159,137.327a1.3,1.3,0,0,1,.382-1.316l1.242.668-.361.634Z" transform="translate(385.791 -99.204)" fill="#ab6a3b" opacity="0.324"/>
          <path id="Path_13536" data-name="Path 13536" d="M-334.6,125.789a1.3,1.3,0,0,1,.168-1.36l1.332.461-.255.684Z" transform="translate(371.564 -95.659)" fill="#ab6a3b" opacity="0.456"/>
          <path id="Path_13537" data-name="Path 13537" d="M-378.8,103.494a1.3,1.3,0,0,1,.951.986l-1.2.745-.371-.628Z" transform="translate(385.242 -89.252)" fill="#ab6a3b" opacity="0.315"/>
          <path id="Path_13538" data-name="Path 13538" d="M-357.807,109.9a1.3,1.3,0,0,1-1.331.324l-.04-1.408.729,0Z" transform="translate(379.049 -90.878)" fill="#ab6a3b" opacity="0.76"/>
          <path id="Path_13539" data-name="Path 13539" d="M-338.222,117.108a1.3,1.3,0,0,1-.428,1.3l-1.217-.709.382-.621Z" transform="translate(373.139 -93.41)" fill="#ab6a3b" opacity="0.755"/>
          <path id="Path_13540" data-name="Path 13540" d="M-365.891,128.363a1.3,1.3,0,0,1-1.355.2l.089-1.406.727.063Z" transform="translate(381.518 -96.495)" fill="#ab6a3b" opacity="0.172"/>
          <path id="Path_13541" data-name="Path 13541" d="M-373.185,85.532a1.3,1.3,0,0,1,1.273-.507l.236,1.389-.722.1Z" transform="translate(383.336 -83.596)" fill="#ab6a3b" opacity="0.791"/>
          <path id="Path_13542" data-name="Path 13542" d="M-364.06,112.328a1.3,1.3,0,0,1-1.031.9l-.686-1.231.645-.339Z" transform="translate(381.069 -91.751)" fill="#ab6a3b" opacity="0.746"/>
          <path id="Path_13543" data-name="Path 13543" d="M-335.473,96.385a1.3,1.3,0,0,1-1.039.894l-.676-1.236.648-.335Z" transform="translate(372.319 -86.869)" fill="#ab6a3b" opacity="0.074"/>
          <path id="Path_13544" data-name="Path 13544" d="M-360.271,116.123a1.3,1.3,0,0,1-1.231.6l-.34-1.367.712-.16Z" transform="translate(379.865 -92.834)" fill="#ab6a3b" opacity="0.518"/>
          <path id="Path_13545" data-name="Path 13545" d="M-368.987,117.126a1.3,1.3,0,0,1,.311-1.334l1.276.6-.326.653Z" transform="translate(382.072 -93.016)" fill="#ab6a3b" opacity="0.595"/>
          <path id="Path_13546" data-name="Path 13546" d="M-355.807,128.171a1.3,1.3,0,0,1,.991.947l-1.164.794-.4-.613Z" transform="translate(378.192 -96.805)" fill="#ab6a3b" opacity="0.604"/>
          <path id="Path_13547" data-name="Path 13547" d="M-350.349,142.711a1.3,1.3,0,0,1,1.148-.747l.505,1.316-.687.245Z" transform="translate(376.347 -101.026)" fill="#ab6a3b" opacity="0.304"/>
          <path id="Path_13548" data-name="Path 13548" d="M-359.754,140.306a1.3,1.3,0,0,1-.6-1.229l1.366-.344.161.711Z" transform="translate(379.411 -100.037)" fill="#ab6a3b" opacity="0.585"/>
          <path id="Path_13549" data-name="Path 13549" d="M-360.838,94.535a1.3,1.3,0,0,1,1.057.872l-1.1.876-.44-.582Z" transform="translate(379.706 -86.51)" fill="#ab6a3b" opacity="0.519"/>
          <path id="Path_13550" data-name="Path 13550" d="M-380.07,117.21a1.3,1.3,0,0,1,.781-1.126l.965,1.027-.543.486Z" transform="translate(385.443 -93.105)" fill="#ab6a3b" opacity="0.115"/>
          <path id="Path_13551" data-name="Path 13551" d="M-344.848,92.553a1.3,1.3,0,0,1,1.336.3l-.592,1.279-.655-.323Z" transform="translate(374.663 -85.882)" fill="#ab6a3b" opacity="0.21"/>
          <path id="Path_13552" data-name="Path 13552" d="M-383.636,124.65a1.3,1.3,0,0,1-.443-1.3l1.4-.167.069.726Z" transform="translate(386.678 -95.279)" fill="#ab6a3b" opacity="0.272"/>
          <path id="Path_13553" data-name="Path 13553" d="M-348.4,130.256a1.3,1.3,0,0,1,.667,1.2l-1.347.414-.2-.7Z" transform="translate(376.019 -97.443)" fill="#ab6a3b" opacity="0.269"/>
          <path id="Path_13554" data-name="Path 13554" d="M-330.951,106.871a1.3,1.3,0,0,1-1.363.139l.152-1.4.724.1Z" transform="translate(370.827 -89.899)" fill="#ab6a3b" opacity="0.004"/>
          <path id="Path_13555" data-name="Path 13555" d="M-365.71,88.843a1.3,1.3,0,0,1-1.317.379l-.1-1.405.729-.034Z" transform="translate(381.482 -84.444)" fill="#ab6a3b" opacity="0.755"/>
          <path id="Path_13556" data-name="Path 13556" d="M-369.748,138.144a1.3,1.3,0,0,1,1.182-.693l.443,1.338-.7.213Z" transform="translate(382.284 -99.645)" fill="#ab6a3b" opacity="0.238"/>
          <path id="Path_13557" data-name="Path 13557" d="M-362.416,109.122a1.3,1.3,0,0,1-.436,1.3l-1.213-.718.386-.619Z" transform="translate(380.545 -90.963)" fill="#ab6a3b" opacity="0.523"/>
          <path id="Path_13558" data-name="Path 13558" d="M-357.6,129.53a1.3,1.3,0,0,1-.312,1.334l-1.275-.6.326-.652Z" transform="translate(379.051 -97.22)" fill="#ab6a3b" opacity="0.653"/>
          <path id="Path_13559" data-name="Path 13559" d="M-354.205,105.859a1.3,1.3,0,0,1,.685-1.187l1.046.944-.5.53Z" transform="translate(377.528 -89.613)" fill="#ab6a3b" opacity="0.296"/>
          <path id="Path_13560" data-name="Path 13560" d="M-377.36,137.438a1.3,1.3,0,0,1,.815-1.1l.933,1.055-.558.47Z" transform="translate(384.614 -99.303)" fill="#ab6a3b" opacity="0.388"/>
          <path id="Path_13561" data-name="Path 13561" d="M-350.105,129.455a1.3,1.3,0,0,1-.57-1.246l1.375-.306.142.715Z" transform="translate(376.448 -96.723)" fill="#ab6a3b" opacity="0.24"/>
          <path id="Path_13562" data-name="Path 13562" d="M-353.292,120.3a1.3,1.3,0,0,1-.748,1.148l-.994-1,.529-.5Z" transform="translate(377.781 -94.288)" fill="#ab6a3b" opacity="0.242"/>
          <path id="Path_13563" data-name="Path 13563" d="M-359.422,98.573a1.3,1.3,0,0,1-1.053-.876l1.107-.872.438.584Z" transform="translate(379.446 -87.211)" fill="#ab6a3b" opacity="0.69"/>
          <path id="Path_13564" data-name="Path 13564" d="M-354.084,89.785a1.3,1.3,0,0,1-1.094-.824l1.064-.924.466.562Z" transform="translate(377.825 -84.521)" fill="#ab6a3b" opacity="0.45"/>
          <path id="Path_13565" data-name="Path 13565" d="M-350.313,96.088a1.3,1.3,0,0,1-1.318.371l-.091-1.407.729-.029Z" transform="translate(376.767 -86.66)" fill="#ab6a3b" opacity="0.003"/>
          <path id="Path_13566" data-name="Path 13566" d="M-358.748,148.267a1.3,1.3,0,0,1,1.085.837l-1.075.911-.458-.567Z" transform="translate(379.055 -102.955)" fill="#ab6a3b" opacity="0.334"/>
          <path id="Path_13567" data-name="Path 13567" d="M-367.9,89.974a1.3,1.3,0,0,1-.745,1.151l-1-1,.527-.5Z" transform="translate(382.252 -85.007)" fill="#ab6a3b" opacity="0.363"/>
          <path id="Path_13568" data-name="Path 13568" d="M-339.2,115.017a1.3,1.3,0,0,1-.9,1.033l-.847-1.127.594-.424Z" transform="translate(373.469 -92.62)" fill="#ab6a3b" opacity="0.365"/>
          <path id="Path_13569" data-name="Path 13569" d="M-375.182,131.614a1.3,1.3,0,0,1-.132-1.364l1.4.16-.1.722Z" transform="translate(384.027 -97.441)" fill="#ab6a3b" opacity="0.298"/>
          <path id="Path_13570" data-name="Path 13570" d="M-342.974,124.94a1.3,1.3,0,0,1-.83,1.09l-.918-1.069.564-.462Z" transform="translate(374.625 -95.681)" fill="#ab6a3b" opacity="0.335"/>
          <path id="Path_13571" data-name="Path 13571" d="M-339.823,97.53a1.3,1.3,0,0,1,1.034-.9l.681,1.234-.647.337Z" transform="translate(373.126 -87.152)" fill="#ab6a3b" opacity="0.653"/>
          <path id="Path_13572" data-name="Path 13572" d="M-374.471,118.745a1.3,1.3,0,0,1,1.359-.171l-.119,1.4-.725-.079Z" transform="translate(383.73 -93.833)" fill="#ab6a3b" opacity="0.082"/>
          <path id="Path_13573" data-name="Path 13573" d="M-364.4,102.652a1.3,1.3,0,0,1,1.264-.527l.259,1.385-.72.117Z" transform="translate(380.646 -88.83)" fill="#ab6a3b" opacity="0.176"/>
          <path id="Path_13574" data-name="Path 13574" d="M-345.337,110.626a1.3,1.3,0,0,1,.259-1.346l1.3.549-.3.665Z" transform="translate(374.839 -91.023)" fill="#ab6a3b" opacity="0.18"/>
          <path id="Path_13575" data-name="Path 13575" d="M-333.774,89.647a1.3,1.3,0,0,1-.515,1.27l-1.167-.79.423-.594Z" transform="translate(371.789 -84.979)" fill="#ab6a3b" opacity="0.554"/>
          <path id="Path_13576" data-name="Path 13576" d="M-385.222,111.343a1.3,1.3,0,0,1,1.369.024l-.318,1.373-.706-.182Z" transform="translate(387.02 -91.599)" fill="#ab6a3b" opacity="0.127"/>
          <path id="Path_13577" data-name="Path 13577" d="M-350.677,89.055a1.3,1.3,0,0,1,.759,1.141l-1.309.518-.253-.684Z" transform="translate(376.693 -84.833)" fill="#ab6a3b" opacity="0.722"/>
          <path id="Path_13578" data-name="Path 13578" d="M-339.087,91.287a1.3,1.3,0,0,1-.974-.962l1.178-.774.386.619Z" transform="translate(373.198 -84.985)" fill="#ab6a3b" opacity="0.06"/>
          <path id="Path_13579" data-name="Path 13579" d="M-365.51,108.782a1.3,1.3,0,0,1-1.369-.044l.339-1.368.7.192Z" transform="translate(381.406 -90.438)" fill="#ab6a3b" opacity="0.798"/>
          <path id="Path_13580" data-name="Path 13580" d="M-337.717,134.04a1.3,1.3,0,0,1-.913-1.021l1.223-.7.346.642Z" transform="translate(372.76 -98.074)" fill="#ab6a3b" opacity="0.61"/>
          <path id="Path_13581" data-name="Path 13581" d="M-352.9,119.087a1.3,1.3,0,0,1,.843-1.08l.9,1.08-.57.455Z" transform="translate(377.127 -93.694)" fill="#ab6a3b" opacity="0.167"/>
          <path id="Path_13582" data-name="Path 13582" d="M-370.489,107.564a1.3,1.3,0,0,1,1.351.225l-.516,1.312-.672-.284Z" transform="translate(382.511 -90.468)" fill="#ab6a3b" opacity="0.049"/>
          <path id="Path_13583" data-name="Path 13583" d="M-377.147,114.539a1.3,1.3,0,0,1-1.369.056l.238-1.389.716.14Z" transform="translate(384.968 -92.224)" fill="#ab6a3b" opacity="0.295"/>
          <path id="Path_13584" data-name="Path 13584" d="M-373.895,112.619a1.3,1.3,0,0,1,1.35-.234l-.053,1.408-.728-.046Z" transform="translate(383.553 -91.947)" fill="#ab6a3b" opacity="0.332"/>
          <path id="Path_13585" data-name="Path 13585" d="M-375.386,144.744a1.3,1.3,0,0,1,1.089-.831l.6,1.273-.667.3Z" transform="translate(384.01 -101.622)" fill="#ab6a3b" opacity="0.594"/>
          <path id="Path_13586" data-name="Path 13586" d="M-369.629,146.976a1.3,1.3,0,0,1-.444,1.3l-1.208-.725.39-.616Z" transform="translate(382.753 -102.546)" fill="#ab6a3b" opacity="0.751"/>
          <path id="Path_13587" data-name="Path 13587" d="M-351.239,116.668a1.3,1.3,0,0,1-1.151-.743l1-1,.5.527Z" transform="translate(376.972 -92.751)" fill="#ab6a3b" opacity="0.105"/>
          <path id="Path_13588" data-name="Path 13588" d="M-343.625,99.479a1.3,1.3,0,0,1,1.371.01l-.3,1.376-.709-.174Z" transform="translate(374.289 -87.966)" fill="#ab6a3b" opacity="0.577"/>
          <path id="Path_13589" data-name="Path 13589" d="M-377.773,129.158a1.3,1.3,0,0,1-1.144.754l-.513-1.312.686-.249Z" transform="translate(385.247 -96.859)" fill="#ab6a3b" opacity="0.29"/>
          <path id="Path_13590" data-name="Path 13590" d="M-347.012,104.207a1.3,1.3,0,0,1,.25-1.347l1.3.541-.3.667Z" transform="translate(375.353 -89.058)" fill="#ab6a3b" opacity="0.293"/>
          <path id="Path_13591" data-name="Path 13591" d="M-373.263,131.771a1.3,1.3,0,0,1,1.193-.674l.422,1.344-.7.2Z" transform="translate(383.36 -97.7)" fill="#ab6a3b" opacity="0.52"/>
          <path id="Path_13592" data-name="Path 13592" d="M-346.981,124.11a1.3,1.3,0,0,1,.923,1.012l-1.216.711-.353-.638Z" transform="translate(375.514 -95.562)" fill="#ab6a3b" opacity="0.221"/>
          <path id="Path_13593" data-name="Path 13593" d="M-359.946,146.082a1.3,1.3,0,0,1,1.368-.069l-.224,1.391-.718-.133Z" transform="translate(379.284 -102.217)" fill="#ab6a3b" opacity="0.759"/>
          <path id="Path_13594" data-name="Path 13594" d="M-368.425,88.429a1.3,1.3,0,0,1-.922-1.013l1.217-.71.353.638Z" transform="translate(382.161 -84.114)" fill="#ab6a3b" opacity="0.278"/>
          <path id="Path_13595" data-name="Path 13595" d="M-357.425,144.408a1.3,1.3,0,0,1-1.019.916l-.7-1.221.641-.349Z" transform="translate(379.04 -101.574)" fill="#ab6a3b" opacity="0.483"/>
          <path id="Path_13596" data-name="Path 13596" d="M-364.649,86.53a1.3,1.3,0,0,1,1.247-.568l.3,1.376-.716.14Z" transform="translate(380.724 -83.885)" fill="#ab6a3b" opacity="0.613"/>
          <path id="Path_13597" data-name="Path 13597" d="M-373.889,137.7a1.3,1.3,0,0,1-.26-1.345l1.409.027-.031.729Z" transform="translate(383.655 -99.309)" fill="#ab6a3b" opacity="0.221"/>
          <path id="Path_13598" data-name="Path 13598" d="M-341,124.427a1.3,1.3,0,0,1-1.25.559l-.294-1.378.718-.135Z" transform="translate(373.957 -95.367)" fill="#ab6a3b" opacity="0.672"/>
          <path id="Path_13599" data-name="Path 13599" d="M-381.084,123.785a1.3,1.3,0,0,1,.778,1.128l-1.3.541-.264-.68Z" transform="translate(385.994 -95.462)" fill="#ab6a3b" opacity="0.607"/>
          <path id="Path_13600" data-name="Path 13600" d="M-344.962,100.679a1.3,1.3,0,0,1-.812,1.1l-.935-1.053.557-.471Z" transform="translate(375.233 -88.262)" fill="#ab6a3b" opacity="0.447"/>
          <path id="Path_13601" data-name="Path 13601" d="M-355.492,149.341a1.3,1.3,0,0,1-1.162-.726l.979-1.013.513.519Z" transform="translate(378.277 -102.751)" fill="#ab6a3b" opacity="0.748"/>
          <path id="Path_13602" data-name="Path 13602" d="M-355.312,92.726a1.3,1.3,0,0,1-1.339.289l0-1.409.729.016Z" transform="translate(378.277 -85.613)" fill="#ab6a3b" opacity="0.325"/>
          <path id="Path_13603" data-name="Path 13603" d="M-341.413,112.614a1.3,1.3,0,0,1-1.049-.882l1.112-.865.434.586Z" transform="translate(373.933 -91.509)" fill="#ab6a3b" opacity="0.262"/>
          <path id="Path_13604" data-name="Path 13604" d="M-349.76,91.854a1.3,1.3,0,0,1,.913,1.021l-1.223.7-.347-.642Z" transform="translate(376.368 -85.69)" fill="#ab6a3b" opacity="0.306"/>
          <path id="Path_13605" data-name="Path 13605" d="M-343.117,144.825a1.3,1.3,0,0,1-.871-1.058l1.251-.649.32.655Z" transform="translate(374.4 -101.379)" fill="#ab6a3b" opacity="0.774"/>
          <path id="Path_13606" data-name="Path 13606" d="M-374.306,124.129a1.3,1.3,0,0,1-.909,1.025l-.836-1.135.6-.418Z" transform="translate(384.213 -95.406)" fill="#ab6a3b" opacity="0.15"/>
          <path id="Path_13607" data-name="Path 13607" d="M-342.656,94.161a1.3,1.3,0,0,1,1.24.583l-.852,1.122-.57-.455Z" transform="translate(374.048 -86.392)" fill="#ab6a3b" opacity="0.769"/>
          <path id="Path_13608" data-name="Path 13608" d="M-377.658,110.092a1.3,1.3,0,0,1,.849-1.075l.9,1.085-.573.452Z" transform="translate(384.705 -90.942)" fill="#ab6a3b" opacity="0.737"/>
          <path id="Path_13609" data-name="Path 13609" d="M-360.336,137a1.3,1.3,0,0,1-.364-1.321l1.407-.083.026.729Z" transform="translate(379.529 -99.076)" fill="#ab6a3b" opacity="0.638"/>
          <path id="Path_13610" data-name="Path 13610" d="M-363.272,96.77a1.3,1.3,0,0,1,1.165.721l-.975,1.017-.515-.517Z" transform="translate(380.402 -87.194)" fill="#ab6a3b" opacity="0.649"/>
          <path id="Path_13611" data-name="Path 13611" d="M-364.7,141.347a1.3,1.3,0,0,1-.961-.976l1.187-.758.378.625Z" transform="translate(381.035 -100.307)" fill="#ab6a3b" opacity="0.364"/>
          <path id="Path_13612" data-name="Path 13612" d="M-352.681,113.808a1.3,1.3,0,0,1-.373-1.319l1.406-.093.031.729Z" transform="translate(377.188 -91.977)" fill="#ab6a3b" opacity="0.222"/>
          <path id="Path_13613" data-name="Path 13613" d="M-361.984,124.088a1.3,1.3,0,0,1,.915-1.019l.829,1.139-.6.415Z" transform="translate(379.908 -95.243)" fill="#ab6a3b" opacity="0.285"/>
          <path id="Path_13614" data-name="Path 13614" d="M-351.448,144.433a1.3,1.3,0,0,1-1.04.892l-.674-1.238.649-.333Z" transform="translate(377.208 -101.574)" fill="#ab6a3b" opacity="0.524"/>
          <path id="Path_13615" data-name="Path 13615" d="M-371.744,123.587a1.3,1.3,0,0,1-.105,1.366l-1.352-.4.223-.694Z" transform="translate(383.341 -95.402)" fill="#ab6a3b" opacity="0.31"/>
          <path id="Path_13616" data-name="Path 13616" d="M-382.312,91.679a1.3,1.3,0,0,1-.937-1l1.206-.728.362.634Z" transform="translate(386.416 -85.108)" fill="#ab6a3b" opacity="0.313"/>
          <path id="Path_13617" data-name="Path 13617" d="M-357.361,100.5a1.3,1.3,0,0,1-1.242.578l-.314-1.373.715-.146Z" transform="translate(378.97 -88.046)" fill="#ab6a3b" opacity="0.139"/>
          <path id="Path_13618" data-name="Path 13618" d="M-357.127,124.592a1.3,1.3,0,0,1-.523-1.267l1.387-.253.114.72Z" transform="translate(378.585 -95.244)" fill="#ab6a3b" opacity="0.766"/>
          <path id="Path_13619" data-name="Path 13619" d="M-348.871,147.823a1.3,1.3,0,0,1-1.318.372l-.092-1.406.729-.03Z" transform="translate(376.326 -102.493)" fill="#ab6a3b" opacity="0.65"/>
          <path id="Path_13620" data-name="Path 13620" d="M-361.476,140.326a1.3,1.3,0,0,1,.18,1.358l-1.4-.11.074-.726Z" transform="translate(380.127 -100.525)" fill="#ab6a3b" opacity="0.066"/>
          <path id="Path_13621" data-name="Path 13621" d="M-363.9,91.022a1.3,1.3,0,0,1-1.368.065l.228-1.391.717.135Z" transform="translate(380.914 -85.03)" fill="#ab6a3b" opacity="0.665"/>
          <path id="Path_13622" data-name="Path 13622" d="M-330.144,89.239a1.3,1.3,0,0,1,.119,1.365l-1.4-.174.108-.722Z" transform="translate(370.555 -84.889)" fill="#ab6a3b" opacity="0.433"/>
          <path id="Path_13623" data-name="Path 13623" d="M-354.611,144.753a1.3,1.3,0,0,1-.31,1.334l-1.276-.6.325-.653Z" transform="translate(378.137 -101.879)" fill="#ab6a3b" opacity="0.113"/>
          <path id="Path_13624" data-name="Path 13624" d="M-346.463,115.045a1.3,1.3,0,0,1,.65,1.206l-1.353.4-.188-.705Z" transform="translate(375.43 -92.787)" fill="#ab6a3b" opacity="0.258"/>
          <path id="Path_13625" data-name="Path 13625" d="M-332.673,95.963a1.3,1.3,0,0,1-.831,1.089l-.917-1.069.565-.462Z" transform="translate(371.472 -86.812)" fill="#ab6a3b" opacity="0.136"/>
          <path id="Path_13626" data-name="Path 13626" d="M-348.857,110.918a1.3,1.3,0,0,1,.352,1.324l-1.407.07-.019-.729Z" transform="translate(376.219 -91.524)" fill="#ab6a3b" opacity="0.456"/>
          <path id="Path_13627" data-name="Path 13627" d="M-372.353,104.053a1.3,1.3,0,0,1,.887,1.044l-1.24.668-.331-.65Z" transform="translate(383.291 -89.423)" fill="#ab6a3b" opacity="0.333"/>
          <path id="Path_13628" data-name="Path 13628" d="M-370.2,133.722a1.3,1.3,0,0,1-.838-1.084l1.271-.61.3.665Z" transform="translate(382.677 -97.985)" fill="#ab6a3b" opacity="0.753"/>
          <path id="Path_13629" data-name="Path 13629" d="M-344.584,134.171a1.3,1.3,0,0,1,.965.972l-1.185.763-.38-.622Z" transform="translate(374.766 -98.641)" fill="#ab6a3b" opacity="0.375"/>
          <path id="Path_13630" data-name="Path 13630" d="M-375.706,85.471a1.3,1.3,0,0,1,1.364-.135l-.158,1.4-.723-.1Z" transform="translate(384.108 -83.656)" fill="#ab6a3b" opacity="0.679"/>
          <path id="Path_13631" data-name="Path 13631" d="M-338.109,106.35a1.3,1.3,0,0,1-.518-1.269l1.387-.248.112.721Z" transform="translate(372.763 -89.662)" fill="#ab6a3b" opacity="0.543"/>
          <path id="Path_13632" data-name="Path 13632" d="M-338.247,101.313a1.3,1.3,0,0,1-.434,1.3l-1.214-.715.386-.62Z" transform="translate(373.148 -88.574)" fill="#ab6a3b" opacity="0.022"/>
          <path id="Path_13633" data-name="Path 13633" d="M-379.191,109.7a1.3,1.3,0,0,1,.41,1.307l-1.4.132-.051-.728Z" transform="translate(385.494 -91.153)" fill="#ab6a3b" opacity="0.068"/>
          <path id="Path_13634" data-name="Path 13634" d="M-340.292,123.718a1.3,1.3,0,0,1,1.181-.694l.445,1.337-.7.214Z" transform="translate(373.269 -95.229)" fill="#ab6a3b" opacity="0.444"/>
          <path id="Path_13635" data-name="Path 13635" d="M-362.26,150.1a1.3,1.3,0,0,1,.139-1.363l1.341.433-.24.688Z" transform="translate(380.032 -103.099)" fill="#ab6a3b" opacity="0.555"/>
          <path id="Path_13636" data-name="Path 13636" d="M-343.908,131.506a1.3,1.3,0,0,1-1.284.476l-.2-1.394.724-.088Z" transform="translate(374.831 -97.517)" fill="#ab6a3b" opacity="0.633"/>
          <path id="Path_13637" data-name="Path 13637" d="M-336.049,122.987a1.3,1.3,0,0,1-.124,1.364l-1.346-.416.233-.692Z" transform="translate(372.42 -95.218)" fill="#ab6a3b" opacity="0.171"/>
          <path id="Path_13638" data-name="Path 13638" d="M-365.531,119.062a1.3,1.3,0,0,1-1.319.368l-.087-1.406.729-.028Z" transform="translate(381.424 -93.69)" fill="#ab6a3b" opacity="0.485"/>
          <path id="Path_13639" data-name="Path 13639" d="M-371.684,118.053a1.3,1.3,0,0,1,1.241-.579l.316,1.373-.715.147Z" transform="translate(382.877 -93.529)" fill="#ab6a3b" opacity="0.409"/>
          <path id="Path_13640" data-name="Path 13640" d="M-364.02,123.412a1.3,1.3,0,0,1,.979.958l-1.174.779-.389-.617Z" transform="translate(380.71 -95.348)" fill="#ab6a3b" opacity="0.726"/>
          <path id="Path_13641" data-name="Path 13641" d="M-381.7,84.253a1.3,1.3,0,0,1,.635,1.214l-1.357.378-.179-.707Z" transform="translate(386.219 -83.363)" fill="#ab6a3b" opacity="0.242"/>
          <path id="Path_13642" data-name="Path 13642" d="M-354.684,131.785a1.3,1.3,0,0,1-.133-1.364l1.4.158-.1.723Z" transform="translate(377.754 -97.493)" fill="#ab6a3b" opacity="0.53"/>
          <path id="Path_13643" data-name="Path 13643" d="M-340.994,143.483a1.3,1.3,0,0,1,.926,1.009l-1.214.715-.355-.637Z" transform="translate(373.681 -101.491)" fill="#ab6a3b" opacity="0.799"/>
          <path id="Path_13644" data-name="Path 13644" d="M-361.488,101.927a1.3,1.3,0,0,1,1.328-.337l.054,1.409-.73.01Z" transform="translate(379.756 -88.653)" fill="#ab6a3b" opacity="0.632"/>
          <path id="Path_13645" data-name="Path 13645" d="M-345.6,96.632a1.3,1.3,0,0,1-.908-1.026l1.227-.693.344.644Z" transform="translate(375.17 -86.626)" fill="#ab6a3b" opacity="0.049"/>
          <path id="Path_13646" data-name="Path 13646" d="M-366.587,123.982a1.3,1.3,0,0,1,.2,1.355l-1.406-.093.065-.727Z" transform="translate(381.687 -95.522)" fill="#ab6a3b" opacity="0.783"/>
          <path id="Path_13647" data-name="Path 13647" d="M-383.914,120.317a1.3,1.3,0,0,1,.851-1.074l.9,1.087-.573.451Z" transform="translate(386.62 -94.072)" fill="#ab6a3b" opacity="0.429"/>
          <path id="Path_13648" data-name="Path 13648" d="M-356.534,137.706a1.3,1.3,0,0,1-.863,1.064l-.885-1.1.578-.445Z" transform="translate(378.775 -99.577)" fill="#ab6a3b" opacity="0.656"/>
          <path id="Path_13649" data-name="Path 13649" d="M-370.988,115.524a1.3,1.3,0,0,1-.863,1.064l-.885-1.1.579-.445Z" transform="translate(383.199 -92.788)" fill="#ab6a3b" opacity="0.619"/>
          <path id="Path_13650" data-name="Path 13650" d="M-360.7,106.51a1.3,1.3,0,0,1,.022,1.37l-1.383-.272.158-.713Z" transform="translate(379.931 -90.175)" fill="#ab6a3b" opacity="0.51"/>
          <path id="Path_13651" data-name="Path 13651" d="M-372.729,89.145a1.3,1.3,0,0,1-1.024.91l-.7-1.226.643-.345Z" transform="translate(383.723 -84.658)" fill="#ab6a3b" opacity="0.063"/>
          <path id="Path_13652" data-name="Path 13652" d="M-341.648,121.372a1.3,1.3,0,0,1-.632,1.215l-1.087-.9.477-.551Z" transform="translate(374.21 -94.652)" fill="#ab6a3b" opacity="0.685"/>
          <path id="Path_13653" data-name="Path 13653" d="M-375.828,93.625a1.3,1.3,0,0,1,.679-1.189l1.051.939-.5.532Z" transform="translate(384.146 -85.868)" fill="#ab6a3b" opacity="0.616"/>
          <path id="Path_13654" data-name="Path 13654" d="M-356.109,136.286a1.3,1.3,0,0,1-1.369.031l.264-1.384.713.153Z" transform="translate(378.529 -98.874)" fill="#ab6a3b" opacity="0.203"/>
          <path id="Path_13655" data-name="Path 13655" d="M-380.569,87.039a1.3,1.3,0,0,1,.314,1.334l-1.409.031v-.73Z" transform="translate(385.931 -84.216)" fill="#ab6a3b" opacity="0.597"/>
          <path id="Path_13656" data-name="Path 13656" d="M-355.575,111.4a1.3,1.3,0,0,1-1.364.123l.169-1.4.722.1Z" transform="translate(378.364 -91.281)" fill="#ab6a3b" opacity="0.338"/>
          <path id="Path_13657" data-name="Path 13657" d="M-360.855,129.234a1.3,1.3,0,0,1-.309,1.335l-1.276-.6.325-.653Z" transform="translate(380.048 -97.13)" fill="#ab6a3b" opacity="0.755"/>
          <path id="Path_13658" data-name="Path 13658" d="M-360.782,128.269a1.3,1.3,0,0,1-.188-1.357l1.405.1-.07.727Z" transform="translate(379.63 -96.419)" fill="#ab6a3b" opacity="0.768"/>
          <path id="Path_13659" data-name="Path 13659" d="M-363.705,142.6a1.3,1.3,0,0,1,.494,1.278l-1.391.223-.1-.723Z" transform="translate(380.74 -101.22)" fill="#ab6a3b" opacity="0.456"/>
          <path id="Path_13660" data-name="Path 13660" d="M-336.973,125.655a1.3,1.3,0,0,1,1.223.618l-.884,1.1-.557-.471Z" transform="translate(372.32 -96.032)" fill="#ab6a3b" opacity="0.785"/>
          <path id="Path_13661" data-name="Path 13661" d="M-356.151,102.064a1.3,1.3,0,0,1-.788,1.121l-.958-1.033.547-.483Z" transform="translate(378.657 -88.693)" fill="#ab6a3b" opacity="0.549"/>
          <path id="Path_13662" data-name="Path 13662" d="M-350.5,131.872a1.3,1.3,0,0,1-1.368.071l.223-1.391.718.132Z" transform="translate(376.813 -97.533)" fill="#ab6a3b" opacity="0.259"/>
          <path id="Path_13663" data-name="Path 13663" d="M-353.561,128.866a1.3,1.3,0,0,1,.96-.978l.777,1.176-.618.388Z" transform="translate(377.33 -96.718)" fill="#ab6a3b" opacity="0.637"/>
          <path id="Path_13664" data-name="Path 13664" d="M-377.216,118.179a1.3,1.3,0,0,1,.484-1.282l1.185.762-.409.6Z" transform="translate(384.578 -93.354)" fill="#ab6a3b" opacity="0.412"/>
          <path id="Path_13665" data-name="Path 13665" d="M-341.974,129.793a1.3,1.3,0,0,1,.86,1.066l-1.257.637-.314-.659Z" transform="translate(374.001 -97.301)" fill="#ab6a3b" opacity="0.115"/>
          <path id="Path_13666" data-name="Path 13666" d="M-378.951,122.9a1.3,1.3,0,0,1,.319-1.332l1.271.607-.33.651Z" transform="translate(385.121 -94.785)" fill="#ab6a3b" opacity="0.122"/>
          <path id="Path_13667" data-name="Path 13667" d="M-379.423,91.292a1.3,1.3,0,0,1-1.171-.711l.967-1.025.518.514Z" transform="translate(385.604 -84.986)" fill="#ab6a3b" opacity="0.773"/>
          <path id="Path_13668" data-name="Path 13668" d="M-341.872,107.979a1.3,1.3,0,0,1,.227,1.351l-1.408-.062.05-.728Z" transform="translate(374.114 -90.625)" fill="#ab6a3b" opacity="0.583"/>
          <path id="Path_13669" data-name="Path 13669" d="M-344.8,122.709a1.3,1.3,0,0,1-1.135.769l-.529-1.306.683-.258Z" transform="translate(375.157 -94.89)" fill="#ab6a3b" opacity="0.355"/>
          <path id="Path_13670" data-name="Path 13670" d="M-385.911,108.627a1.3,1.3,0,0,1,1.01-.926l.715,1.214-.637.355Z" transform="translate(387.231 -90.54)" fill="#ab6a3b" opacity="0.61"/>
          <path id="Path_13671" data-name="Path 13671" d="M-381.147,103.847a1.3,1.3,0,0,1-.84,1.083l-.909-1.076.568-.457Z" transform="translate(386.308 -89.222)" fill="#ab6a3b" opacity="0.762"/>
          <path id="Path_13672" data-name="Path 13672" d="M-373.533,133.923a1.3,1.3,0,0,1,1.332.322l-.61,1.271-.649-.332Z" transform="translate(383.443 -98.545)" fill="#ab6a3b" opacity="0.022"/>
          <path id="Path_13673" data-name="Path 13673" d="M-348.834,98.738a1.3,1.3,0,0,1-.139,1.364l-1.341-.432.24-.689Z" transform="translate(376.336 -87.797)" fill="#ab6a3b" opacity="0.009"/>
          <path id="Path_13674" data-name="Path 13674" d="M-373.148,101.379a1.3,1.3,0,0,1-1.2-.653l.915-1.071.543.487Z" transform="translate(383.694 -88.077)" fill="#ab6a3b" opacity="0.544"/>
          <path id="Path_13675" data-name="Path 13675" d="M-349.56,125.739a1.3,1.3,0,0,1-1.113.8l-.565-1.291.675-.276Z" transform="translate(376.619 -95.825)" fill="#ab6a3b" opacity="0.683"/>
          <path id="Path_13676" data-name="Path 13676" d="M-346.049,138.766a1.3,1.3,0,0,1-.213-1.353l1.407.076-.057.727Z" transform="translate(375.125 -99.633)" fill="#ab6a3b" opacity="0.248"/>
          <path id="Path_13677" data-name="Path 13677" d="M-381.819,108.579a1.3,1.3,0,0,1,.746,1.149l-1.316.5-.244-.688Z" transform="translate(386.228 -90.808)" fill="#ab6a3b" opacity="0.525"/>
          <path id="Path_13678" data-name="Path 13678" d="M-365.724,121.259a1.3,1.3,0,0,1-.179,1.358l-1.327-.471.26-.682Z" transform="translate(381.514 -94.689)" fill="#ab6a3b" opacity="0.105"/>
          <path id="Path_13679" data-name="Path 13679" d="M-362.682,119.374a1.3,1.3,0,0,1-1.18.7l-.448-1.336.7-.216Z" transform="translate(380.62 -93.851)" fill="#ab6a3b" opacity="0.647"/>
          <path id="Path_13680" data-name="Path 13680" d="M-354.854,140.249a1.3,1.3,0,0,1-1.117-.792l1.037-.954.481.548Z" transform="translate(378.068 -99.966)" fill="#ab6a3b" opacity="0.181"/>
          <path id="Path_13681" data-name="Path 13681" d="M-371.185,94.511a1.3,1.3,0,0,1,1.192.676l-.935,1.054-.534-.5Z" transform="translate(382.809 -86.502)" fill="#ab6a3b" opacity="0.094"/>
          <path id="Path_13682" data-name="Path 13682" d="M-347.756,149.361a1.3,1.3,0,0,1-.064-1.368l1.39.229-.135.717Z" transform="translate(375.622 -102.871)" fill="#ab6a3b" opacity="0.283"/>
          <path id="Path_13683" data-name="Path 13683" d="M-341.481,118.186a1.3,1.3,0,0,1-1.225-.614l.881-1.1.558.469Z" transform="translate(374.008 -93.224)" fill="#ab6a3b" opacity="0.366"/>
          <path id="Path_13684" data-name="Path 13684" d="M-374.04,114.43a1.3,1.3,0,0,1-.475,1.285l-1.191-.754.4-.607Z" transform="translate(384.107 -92.576)" fill="#ab6a3b" opacity="0.438"/>
          <path id="Path_13685" data-name="Path 13685" d="M-372.408,92.075a1.3,1.3,0,0,1-.976-.96l1.176-.777.387.618Z" transform="translate(383.397 -85.226)" fill="#ab6a3b" opacity="0.797"/>
          <path id="Path_13686" data-name="Path 13686" d="M-347.951,102.032a1.3,1.3,0,0,1-1.155.736l-.493-1.32.69-.239Z" transform="translate(376.118 -88.553)" fill="#ab6a3b" opacity="0.148"/>
          <path id="Path_13687" data-name="Path 13687" d="M-375.207,103.421a1.3,1.3,0,0,1-.188,1.357l-1.325-.481.265-.679Z" transform="translate(384.418 -89.23)" fill="#ab6a3b" opacity="0.778"/>
          <path id="Path_13688" data-name="Path 13688" d="M-354.087,124.2a1.3,1.3,0,0,1-.985-.952l1.169-.787.393.616Z" transform="translate(377.793 -95.056)" fill="#ab6a3b" opacity="0.132"/>
          <path id="Path_13689" data-name="Path 13689" d="M-352.134,121.775a1.3,1.3,0,0,1,.906-1.027l.839,1.132-.6.421Z" transform="translate(376.893 -94.533)" fill="#ab6a3b" opacity="0.575"/>
          <path id="Path_13690" data-name="Path 13690" d="M-342.4,133.623a1.3,1.3,0,0,1,1.11-.8l.57,1.289-.675.279Z" transform="translate(373.915 -98.227)" fill="#ab6a3b" opacity="0.348"/>
          <path id="Path_13691" data-name="Path 13691" d="M-335.7,105.917a1.3,1.3,0,0,1,1.287-.47l.2,1.395-.724.085Z" transform="translate(371.862 -89.844)" fill="#ab6a3b" opacity="0.432"/>
          <path id="Path_13692" data-name="Path 13692" d="M-378.511,84.754a1.3,1.3,0,0,1,1.247-.567l.3,1.376-.716.139Z" transform="translate(384.966 -83.342)" fill="#ab6a3b" opacity="0.331"/>
          <path id="Path_13693" data-name="Path 13693" d="M-363.3,128.274a1.3,1.3,0,0,1-1.16-.73l.983-1.01.51.521Z" transform="translate(380.666 -96.304)" fill="#ab6a3b" opacity="0.755"/>
        </g>
      </g>
      <g id="Group_25063" data-name="Group 25063" transform="translate(7.971 89.315)">
        <path id="Path_13694" data-name="Path 13694" d="M-390.225,184.84l2.994-26.786a8.819,8.819,0,0,1,8.773-7.847h20.9a8.821,8.821,0,0,1,8.774,7.847l2.993,26.786Z" transform="translate(390.807 -149.686)" fill="#fff"/>
        <path id="Path_13695" data-name="Path 13695" d="M-357.815,150.5a8.308,8.308,0,0,1,8.256,7.385l2.929,26.208H-389.9l2.928-26.208a8.308,8.308,0,0,1,8.256-7.385h20.9m0-1.041h-20.9a9.34,9.34,0,0,0-9.291,8.31l-2.928,26.208-.129,1.157h45.6l-.129-1.157-2.929-26.208a9.34,9.34,0,0,0-9.291-8.31Z" transform="translate(391.063 -149.456)" fill="#80c627"/>
      </g>
      <path id="Path_13696" data-name="Path 13696" d="M-345.292,28.27h-46.014c.865-4.206,10.831-7.519,23-7.519S-346.157,24.064-345.292,28.27Z" transform="translate(399.108 -20.751)" fill="#80c627"/>
      <path id="Path_13697" data-name="Path 13697" d="M-378.2,150.957l-1.729,18.9a10.739,10.739,0,0,1-2.322,5.75l-7.139,8.937,2.933-26.207A8.3,8.3,0,0,1-378.2,150.957Z" transform="translate(398.522 -60.601)" fill="#ebf6db"/>
      <path id="Path_13698" data-name="Path 13698" d="M-331.964,184.547l-7.149-8.937a10.8,10.8,0,0,1-2.312-5.75l-1.729-18.9a8.3,8.3,0,0,1,8.257,7.383Z" transform="translate(384.372 -60.601)" fill="#ebf6db"/>
      <path id="Path_13699" data-name="Path 13699" d="M-345.281,33.041l-.253,2.3h-45.547l-.253-2.3Z" transform="translate(399.117 -24.512)" fill="#c6c1c7"/>
      <path id="Path_13700" data-name="Path 13700" d="M-390.53,40.4l1.026,9.339a2.876,2.876,0,0,0,2.865,2.574h37.155a2.889,2.889,0,0,0,2.865-2.574l1.026-9.339Z" transform="translate(398.871 -26.764)" fill="#c6c1c7"/>
      <circle id="Ellipse_1036" data-name="Ellipse 1036" cx="7.847" cy="7.847" r="7.847" transform="translate(22.922 99.305)" fill="none" stroke="#80c627" stroke-miterlimit="10" stroke-width="1.5"/>
      <path id="Path_13701" data-name="Path 13701" d="M-345.869,214.233h-47.588a2.174,2.174,0,0,1-2.153-2.477l1.477-10.52a2.175,2.175,0,0,1,2.153-1.872h44.633a2.175,2.175,0,0,1,2.154,1.872l1.477,10.52A2.175,2.175,0,0,1-345.869,214.233Z" transform="translate(400.433 -75.416)" fill="#c5bec5"/>
      <g id="Group_25064" data-name="Group 25064" transform="translate(25.263 101.67)">
        <path id="Path_13702" data-name="Path 13702" d="M-357.51,167.26v4.313l3.058-3.044A5.478,5.478,0,0,0-357.51,167.26Z" transform="translate(363.502 -167.26)" fill="#c5bec5"/>
        <path id="Path_13703" data-name="Path 13703" d="M-356.41,169.217l-3.886,3.869a.486.486,0,0,1-.342.142.482.482,0,0,1-.186-.037.484.484,0,0,1-.3-.448V167.26a5.5,5.5,0,0,0-5.021,5.482,5.507,5.507,0,0,0,5.507,5.507,5.507,5.507,0,0,0,5.507-5.507A5.482,5.482,0,0,0-356.41,169.217Z" transform="translate(366.145 -167.26)" fill="#c5bec5"/>
      </g>
    </g>
    <g id="Group_25071" data-name="Group 25071" transform="translate(-450.46 79.388)">
      <g id="Group_25066" data-name="Group 25066">
        <path id="Path_13704" data-name="Path 13704" d="M-423.862,190.244a74.371,74.371,0,0,1-18.5-2.307,4.035,4.035,0,0,1-3-3.677l-4.336-73.722a4.012,4.012,0,0,1,1.088-3.008,4.016,4.016,0,0,1,2.933-1.28l45.422-.252a4.027,4.027,0,0,1,2.96,1.262,4.015,4.015,0,0,1,1.108,3l-3.794,73.187a4.071,4.071,0,0,1-2.84,3.659,70.428,70.428,0,0,1-21.033,3.139Z" transform="translate(450.23 -105.479)" fill="#fff"/>
        <path id="Path_13705" data-name="Path 13705" d="M-400.466,106.29A3.53,3.53,0,0,1-396.941,110l-3.794,73.187a3.537,3.537,0,0,1-2.476,3.189,70,70,0,0,1-20.88,3.116,73.61,73.61,0,0,1-18.367-2.289,3.525,3.525,0,0,1-2.618-3.2l-4.336-73.721a3.53,3.53,0,0,1,3.5-3.737l45.422-.253h.02m0-1.041h-.026l-45.422.253a4.529,4.529,0,0,0-3.309,1.444,4.529,4.529,0,0,0-1.228,3.395l4.336,73.721a4.557,4.557,0,0,0,3.391,4.15,74.934,74.934,0,0,0,18.633,2.323,70.95,70.95,0,0,0,21.19-3.164,4.592,4.592,0,0,0,3.2-4.129l3.794-73.186a4.528,4.528,0,0,0-1.25-3.384,4.531,4.531,0,0,0-3.314-1.423Z" transform="translate(450.46 -105.249)" fill="#c6c1c7"/>
      </g>
      <path id="Path_13706" data-name="Path 13706" d="M-400.144,115.031c2.195-.368,2.116,5.259,2.171,9.7.323.541.547.925.688,1.2l.8-15.463a3.623,3.623,0,0,0-.062-.876c-3.2-.375-3.417-2.838-3.417-2.838h-.065l-10.812.058-34.613.194a3.474,3.474,0,0,0-1.924.584s4.372,1.493,5.253,1.786,2.644.882,2.057,1.763-2.35,0-3.526-.588-4.606-2.21-4.606-2.21a3.512,3.512,0,0,0-.758,2.4l.035.593,1.269,21.573.708,12.046.678,11.54a1.9,1.9,0,0,1,1.478,1.634c.314,1.486.608,3.249,1.49,4.13a7.269,7.269,0,0,1-2.747-2.036l.329,5.6.438,7.43c1.551-.931,3.963-2.033,5.8-1.3,2.938,1.175-.293,4.994,2.645,5.582s4.407-1.176,8.226-.588,5,3.232,9.108,3.232c3.575,0,6.463-2.938,9.7-5.876a27.012,27.012,0,0,1,10.327-6.114l.485-9.36a6.482,6.482,0,0,1-5.817,2.841c2.057-1.763,2.35-4.7,3.526-6.464s2.556-1.454,2.556-1.454l.138-2.677a12.761,12.761,0,0,1-1.225-4.1,2.807,2.807,0,0,1,1.375,1.234l.808-15.594c-1.207.294-6.1-.042-5.626-1.631.458-1.536,3.44.144,5.644,1.275l.132-2.565c-1.337.435-8.062,1.017-7.58-1.263.385-1.828,6.384.458,7.595,1.013l.144-2.8c-.162,0-.229-.221-.3-.364-2.286.291-10.292,1.592-9.816-.673.35-1.66,3.5-.9,9.542.141-.25-.464-.617-1.1-1.089-1.806-1.44.146-9.363.922-9.737-.47-.65-2.436,7.08-.57,9.345-.094a17.128,17.128,0,0,0-1.733-2.062c-10.151-3.276-7.6-5.518-5.277-4.727,2.071.705,6.008,4.563,7.589,6.845C-399.756,120.164-402.121,115.36-400.144,115.031Zm-14.067-5.365c1.14-2.659,3.232-2.35,3.232-2.35.587,2.056-.588,2.644-1.763,3.819a8.884,8.884,0,0,0-1.763,2.644A6.776,6.776,0,0,1-414.211,109.666Zm-2.644,7.251c.931-1.119,3.505-1.652,4.1-2.557a3.587,3.587,0,0,1-1.672,2.583,5.39,5.39,0,0,0-2.756,3.1c.226.917.458,2.73-1.026,3.393-2.024.908-3.144,1.652-3.517,2.5a2.8,2.8,0,0,1,.667-2.795,25.058,25.058,0,0,0,3.711-3.649l0,.009A3.562,3.562,0,0,1-416.855,116.917ZM-420,114.279c1.731,1.307,1.493,4.475,1.493,4.475C-420.346,117.449-420,114.279-420,114.279Zm-.088-6.082a2.513,2.513,0,0,1-2.057,2.644A2.32,2.32,0,0,1-420.087,108.2Zm-10.576,3.232c-2.645,0-2.645-2.057-2.645-2.057A2.874,2.874,0,0,1-430.663,111.429Zm-9.07,6.111s.843,1.822-1.8,3.584C-441.534,121.124-441.755,118.359-439.733,117.54Zm-2.682,15.043a4.974,4.974,0,0,1-3.232-3.232A4.469,4.469,0,0,1-442.415,132.583Zm-4.7-4.3a3.136,3.136,0,0,1,3.232-1.869S-444.766,128.975-447.116,128.282Zm2.532,8.7c-.8-.153-1.393-.537-1.331-.855s.758-.452,1.554-.3,1.393.538,1.331.855S-443.787,137.134-444.584,136.977Zm4.225,31.155c-.881-1.176-.672-1.528-.294-1.763.79-.488,1.763,1.468,2.057,2.644S-439.478,169.307-440.359,168.132Zm4.114,8.52a.881.881,0,0,1-.882-.882.881.881,0,0,1,.882-.881.881.881,0,0,1,.881.881A.881.881,0,0,1-436.245,176.652Zm21.153.881c-1.71.978-4.407,2.056-4.994.587-.45-1.125.294-2.056,2.33-2.35a8.316,8.316,0,0,0,4.134-1.763c.609-.467,2.057-1.763,2.645-1.175C-410.23,173.582-413.036,176.358-415.092,177.534Zm5.876-5.289a.88.88,0,0,1-.881-.881.88.88,0,0,1,.881-.881.88.88,0,0,1,.881.881A.88.88,0,0,1-409.216,172.245Zm4.7-4.994a12.976,12.976,0,0,1,2.644-2.35s.881-.588,1.19,0-.309,2.056-2.659,3.525S-405.4,168.426-404.515,167.251Zm1.469-17.188a19.831,19.831,0,0,1-19.832,19.832,19.831,19.831,0,0,1-19.832-19.832,19.831,19.831,0,0,1,19.832-19.831A19.831,19.831,0,0,1-403.046,150.063Zm-1.763-36.577a3.227,3.227,0,0,1,.1-3.526A2.9,2.9,0,0,1-404.809,113.486Z" transform="translate(450.001 -105.708)" fill="#bf7a4b"/>
      <path id="Path_13707" data-name="Path 13707" d="M-400.21,118.573H-443.4a2.056,2.056,0,0,0-2.056,2.057,2.056,2.056,0,0,0,2.056,2.057h43.189a2.056,2.056,0,0,0,2.056-2.057A2.056,2.056,0,0,0-400.21,118.573Z" transform="translate(448.928 -109.327)" fill="none" stroke="#fff" stroke-miterlimit="10" stroke-width="1"/>
      <g id="Group_25067" data-name="Group 25067" transform="translate(7.646 4.753)">
        <path id="Path_13708" data-name="Path 13708" d="M-432.628,116.4c0,.212.191-2.286-1.115-2.751h-.028c-3.72-1.368-5.187,12.965-5.67,17.5,1.966-.1,1.7-2.762,2.2-8.212.017,0,2.187.281,2.216.285-.364,10.1,2.609,5.7,2.739,5.074C-432.956,127.721-432.654,117.284-432.628,116.4Zm-2.368,5.91c-.211,0-1.677-.242-1.707-.265l-.371-.061a.117.117,0,0,0-.069-.02q.675-6.643,1.955-6.725C-434.457,115.234-434.847,119.014-435,122.305Z" transform="translate(439.441 -112.543)" fill="#392116"/>
        <path id="Path_13709" data-name="Path 13709" d="M-397.627,122.451c-3.868,8.8-1.309-6.5-1.618-8.366a1.93,1.93,0,0,0-2.112-1.8c.065,2.189-.076,6.491-.276,8.763-2.341-.827-3.676,1.948-3.3,3.575a3,3,0,0,1-.566.949l-.028.041a.085.085,0,0,0-.041.02c-.01,0-.019.007-.028.02s-.028.007-.028.021h-.041l-.042.02h-.028l-.013-.02-.014-.021a7.746,7.746,0,0,1,0-1.752c.391-4.044-.7-3.556-1.624-1.182-.017-.121.069-4.2-2-3.2a14.6,14.6,0,0,1-.093,2.946,6.718,6.718,0,0,1-.9.315h-.041c-.243-4.665-4.223-3.825-4.343,1.5-.768,1.455-2.055,3.411-2.305,2.7-.387-1.212.826-5.32-.5-6.4a1.834,1.834,0,0,0-1.569-.265c-.147.328-.6-.459-1.418,3.179-.06-.286.1-2.637-.688-2.873h-.041l-.028-.02h-.028c-.044.065-.275-.1-.606.754a10.913,10.913,0,0,0-.316,1.1c.262-3.144-1.054-3.785-1.968-3.342.166.985-.241,3.505-.317,5.588-1.621,2.5-1.563,1.016-1.6.219-.081-5.089.037-3.541.647-5.2.936-2.515.263-7.622-1.8-7.622-.683-.042-.679,1.541-.771,2.874-.393,7.259,1.605,12.281,2.7,12.114.465-.071.564-.811.824-1.26.054,1.2.321,2.051,1.047,2.024,1.642-.1,1.1-3.227,2.147-6.338l.042-.061c.424.643.046,3.586.77,3.586l.028-.02c.026-.039.087.026.193-.285a.415.415,0,0,1,.028-.122c0-.283.3-3.5,1.211-3.953l.014-.021c1.412-.434-.489,6.044.262,7.948.51,1.3,2.409.2,4.081-3.394.425,3.622,3.767,3.2,4.273-1.293a2.788,2.788,0,0,0,.876-.439c-.205,2.331-.31,4.661.914,4.617,1.632-.072,1.194-3.986,2.285-6.053.85-1.085-.537,4.28.757,4.28l.014-.02h.041a.2.2,0,0,1,.069-.041c.131-.2.2.084.731-1.143.659,1.167,2.189.57,2.82-1.119-.1,1.214-.27,3.164.949,3.261,2.148.163,3.164-2.352,3.689-4.443Zm-28.23-7.377a6.493,6.493,0,0,1-.207,4.89Q-425.995,117.785-425.857,115.074Zm13.337,8.293a1.648,1.648,0,0,0,1.6.632C-411.461,127.981-413.325,126.354-412.52,123.368Zm1.266-.611a1.013,1.013,0,0,1-.675-.611c.542-.6.9-.147,1,.673A.939.939,0,0,1-411.253,122.756Zm9.084.448c-1.491,2.806-2.311-1.273.427-1.141A5.558,5.558,0,0,1-402.169,123.2Z" transform="translate(435.973 -112.098)" fill="#392116"/>
      </g>
      <path id="Path_13710" data-name="Path 13710" d="M-433.951,216.428a2.35,2.35,0,0,1-2.35,2.35,2.35,2.35,0,0,1-2.35-2.35,2.312,2.312,0,0,1,.079-.609,1.413,1.413,0,0,1,.938.129c.958.48,1.134.585,1.889.48a1.715,1.715,0,0,0,1.334-1.4A2.338,2.338,0,0,1-433.951,216.428Z" transform="translate(446.846 -138.846)" fill="#392116"/>
      <path id="Path_13711" data-name="Path 13711" d="M-433.345,215.737a.735.735,0,0,0-.586-.72,2.966,2.966,0,0,0-2.872-2.244,2.967,2.967,0,0,0-2.872,2.241.732.732,0,0,0-.619.722.733.733,0,0,0,.619.723A2.967,2.967,0,0,0-436.8,218.7a2.967,2.967,0,0,0,2.872-2.245A.734.734,0,0,0-433.345,215.737Zm-3.459,2.671a2.671,2.671,0,0,1-2.67-2.671,2.67,2.67,0,0,1,2.67-2.67,2.67,2.67,0,0,1,2.67,2.67A2.671,2.671,0,0,1-436.8,218.408Z" transform="translate(447.348 -138.157)" fill="#392116"/>
      <g id="Group_25069" data-name="Group 25069" transform="translate(15.556 75.9)">
        <g id="Group_25068" data-name="Group 25068">
          <path id="Path_13712" data-name="Path 13712" d="M-428.043,217.493c2.383-.052,1.712,2.015.423,1.511v.9l-.423-.066Zm.423,1.169c.868.407,1.058-.883,0-.8Z" transform="translate(428.043 -215.501)" fill="#392116"/>
          <path id="Path_13713" data-name="Path 13713" d="M-425.282,217.664l.428.054v2.5l-.428-.054Z" transform="translate(427.198 -215.554)" fill="#392116"/>
          <path id="Path_13714" data-name="Path 13714" d="M-422.693,220.823l-.388-.039-.032-.194h-.01c-.7.854-1.914-1.138-.028-.933,0-.442-.56-.417-.8-.289l-.083-.291c.346-.173,1.317-.2,1.317.715A7.526,7.526,0,0,0-422.693,220.823Zm-.448-.883c-.823-.094-.65.5-.349.53C-423.1,220.512-423.141,220.127-423.141,219.939Z" transform="translate(426.854 -215.957)" fill="#392116"/>
          <path id="Path_13715" data-name="Path 13715" d="M-421.45,219.217l.375.033.021.26h.011c.255-.423,1.154-.369,1.154.527v1.019l-.432-.031c0-.865.1-1.394-.326-1.427-.5-.039-.358.731-.358,1.374l-.431-.037C-421.435,219.553-421.432,219.592-421.45,219.217Z" transform="translate(426.025 -216.029)" fill="#392116"/>
          <path id="Path_13716" data-name="Path 13716" d="M-418.142,218.841v.44l.411.021v.324l-.411-.021c0,.795-.1,1.193.39,1.077,0,.131,0,.2.008.328-.949.325-.823-.707-.823-1.429l-.242-.015c0-.13,0-.195,0-.325l.243.015v-.321Z" transform="translate(425.217 -215.914)" fill="#392116"/>
          <path id="Path_13717" data-name="Path 13717" d="M-413.752,219.061h-.011c-.125.465-.183.616-.632,1.933l-.332,0c-.248-.8-.416-1.289-.557-1.95h-.007c-.028.8-.038.931-.1,1.964l-.406-.012c.064-.948.1-1.422.159-2.37l.571.015a18.6,18.6,0,0,1,.529,1.789h.01a17.322,17.322,0,0,1,.564-1.774h.565c.056.949.083,1.425.138,2.374h-.423C-413.724,220.062-413.757,219.47-413.752,219.061Z" transform="translate(424.294 -215.846)" fill="#392116"/>
          <path id="Path_13718" data-name="Path 13718" d="M-411.272,219.045a.235.235,0,1,1,0-.469C-411.12,218.574-410.938,219.04-411.272,219.045Zm-.215,1.965v-1.716l.434-.006V221Z" transform="translate(422.984 -215.833)" fill="#392116"/>
          <path id="Path_13719" data-name="Path 13719" d="M-410.172,218.451l.435-.011v2.5l-.434.011C-410.171,219.952-410.171,219.452-410.172,218.451Z" transform="translate(422.574 -215.791)" fill="#392116"/>
          <path id="Path_13720" data-name="Path 13720" d="M-408.426,219.932h.007c.119-.194.113-.176.556-.78l.523-.028-.641.736.729.975-.534.03-.5-.733c-.058.071-.087.107-.145.179v.584l-.435.017v-2.5l.434-.017C-408.426,219.008-408.426,219.316-408.426,219.932Z" transform="translate(422.172 -215.776)" fill="#392116"/>
          <path id="Path_13721" data-name="Path 13721" d="M-404.747,218.351c0,.95,0,1.425,0,2.375l-.436.033v-2.375Z" transform="translate(421.046 -215.764)" fill="#392116"/>
          <path id="Path_13722" data-name="Path 13722" d="M-403.85,219.184l.379-.034.022.255h.01a.611.611,0,0,1,1.165.324v1.018c-.174.019-.262.028-.436.046,0-.877.1-1.411-.329-1.369-.509.049-.362.807-.362,1.436l-.435.039C-403.835,219.529-403.832,219.556-403.85,219.184Z" transform="translate(420.639 -215.978)" fill="#392116"/>
          <path id="Path_13723" data-name="Path 13723" d="M-399.653,220.943a1.284,1.284,0,0,1-1.266.228l.1-.339c.34.157,1,.185,1-.659h-.007a.671.671,0,0,1-.5.317c-1,.124-.971-1.623.049-1.75a.471.471,0,0,1,.5.2h.007l.018-.232.378-.051c-.007.117-.014.259-.014.495C-399.4,220.093-399.328,220.608-399.653,220.943Zm-.972-1.269c0,.7.793.579.793.014C-399.833,218.629-400.625,219.058-400.625,219.674Z" transform="translate(419.787 -215.859)" fill="#392116"/>
          <path id="Path_13724" data-name="Path 13724" d="M-398.028,218.5l.375-.055c.007.128.01.193.018.321h.01a.607.607,0,0,1,.576-.441v.405c-.674-.016-.53.659-.53,1.42l-.434.064C-398.013,218.974-398.01,218.754-398.028,218.5Z" transform="translate(418.857 -215.755)" fill="#392116"/>
          <path id="Path_13725" data-name="Path 13725" d="M-395.981,219.156c.017.486.575.417,1.006.193l.063.285c-1.723,1.049-1.961-1.341-.645-1.568.578-.1.813.389.727.89C-395.29,219.04-395.52,219.08-395.981,219.156Zm.756-.432c.013-.561-.7-.443-.756.129C-395.678,218.8-395.528,218.778-395.225,218.724Z" transform="translate(418.358 -215.673)" fill="#392116"/>
          <path id="Path_13726" data-name="Path 13726" d="M-392.082,216.261c0,2.109,0,2.2.015,2.5l-.384.08-.021-.267h-.008a.787.787,0,0,1-.556.421c-.985.194-.991-1.6.031-1.8a.457.457,0,0,1,.483.126l.006,0v-.969C-392.341,216.315-392.254,216.3-392.082,216.261Zm-.816,1.248c-.571.113-.593,1.228,0,1.111C-392.356,218.512-392.364,217.4-392.9,217.509Z" transform="translate(417.554 -215.124)" fill="#392116"/>
          <path id="Path_13727" data-name="Path 13727" d="M-390.216,216.33c0,.3-.484.423-.484.107S-390.22,216.013-390.216,216.33Zm-.46,2.3V216.91l.432-.1v1.716Z" transform="translate(416.614 -215.087)" fill="#392116"/>
          <path id="Path_13728" data-name="Path 13728" d="M-389.111,217.765c.017.487.577.376,1,.125l.062.28c-1.711,1.166-1.949-1.208-.641-1.523.574-.139.808.332.722.84C-388.424,217.6-388.653,217.658-389.111,217.765Zm.751-.483c.012-.563-.7-.395-.751.18C-388.81,217.392-388.66,217.356-388.36,217.282Z" transform="translate(416.255 -215.235)" fill="#392116"/>
          <path id="Path_13729" data-name="Path 13729" d="M-386.78,216.191l.375-.1.021.252.011,0c.252-.505,1.149-.777,1.149.128v1.018l-.43.119v-.969c0-.636-.681-.325-.681.141v1.011l-.43.112C-386.765,216.645-386.76,216.588-386.78,216.191Z" transform="translate(415.414 -215.007)" fill="#392116"/>
          <path id="Path_13730" data-name="Path 13730" d="M-383.487,214.709v.44l.407-.121v.324l-.407.121c0,.8-.094,1.225.386.942l.008.326c-.937.65-.815-.431-.815-1.146l-.24.069v-.324l.24-.069v-.321Z" transform="translate(414.609 -214.649)" fill="#392116"/>
          <path id="Path_13731" data-name="Path 13731" d="M-382.205,216.223c.549.182,1.037-.42.424-.448-1-.046-.218-1.334.625-1.131l-.087.33c-.219-.063-.593.034-.593.272,0,.294.742-.054.746.525s-.788.9-1.2.795Z" transform="translate(414.041 -214.623)" fill="#392116"/>
        </g>
      </g>
      <g id="Group_25070" data-name="Group 25070" transform="translate(10.544 34.608)">
        <path id="Path_13732" data-name="Path 13732" d="M-409.885,156.477a9.728,9.728,0,0,0-6.552-1.25c-3.966.561-8.579,2.058-8.3,8.185l5.67,2.549a38.048,38.048,0,0,1,3.664-5.992A9.664,9.664,0,0,1-409.885,156.477Z" transform="translate(432.046 -155.12)" fill="#fcecd6" stroke="#ab6a3b" stroke-linecap="round" stroke-linejoin="round" stroke-width="1"/>
        <path id="Path_13733" data-name="Path 13733" d="M-416.561,166.56a21.079,21.079,0,0,1,2.586-6.035,7.487,7.487,0,0,1,6.6-3.449,6.64,6.64,0,0,1-.215,2.544,2.57,2.57,0,0,0-2.759-.259c-3.276,1.9-4.341,5.69-4.8,6.293A3.3,3.3,0,0,1-416.561,166.56Z" transform="translate(429.541 -155.718)" fill="#ab6a3b"/>
        <path id="Path_13734" data-name="Path 13734" d="M-435.265,171.3a11.474,11.474,0,0,1,3.392-3.216,7.113,7.113,0,0,1,5.907-.643c1.872.643,3.567,2.456,5.088,2.865,0,0-.176,4.094-3.158,5.5s-6.375-.234-7.311-.935S-435.265,171.3-435.265,171.3Z" transform="translate(435.265 -158.775)" fill="#fcecd6" stroke="#ab6a3b" stroke-linecap="round" stroke-linejoin="round" stroke-width="1"/>
        <path id="Path_13735" data-name="Path 13735" d="M-432.568,172.176a7,7,0,0,1,5.088-2.047,11.8,11.8,0,0,1,5.79,1.813,4.11,4.11,0,0,1-3.509,3.333C-428.3,175.742-432.568,172.176-432.568,172.176Z" transform="translate(434.44 -159.713)" fill="#ab6a3b"/>
        <path id="Path_13736" data-name="Path 13736" d="M-397.631,163.347a3,3,0,0,1,4.026-2.4c2.284.581,2.517,3.368,1.471,5.846a33.544,33.544,0,0,1-3.219,5.324.645.645,0,0,1-1.133-.158A18.5,18.5,0,0,1-397.631,163.347Z" transform="translate(423.791 -156.86)" fill="#ab6a3b"/>
        <path id="Path_13737" data-name="Path 13737" d="M-413.41,164.839a20.156,20.156,0,0,0,7.517-2.785.677.677,0,0,0,.1-1.024,5.849,5.849,0,0,0-1.4-1.1C-408.312,159.327-410.533,159.143-413.41,164.839Z" transform="translate(428.576 -156.503)" fill="#fcecd6" stroke="#ab6a3b" stroke-linecap="round" stroke-linejoin="round" stroke-width="1"/>
        <path id="Path_13738" data-name="Path 13738" d="M-400.454,159.718a23.124,23.124,0,0,0-6.892,4.375c-3.073,2.93.039,3.717,1.9,2.942s6.311-3.484,7.357-4.956S-397.538,158.746-400.454,159.718Z" transform="translate(427.117 -156.445)" fill="#fcecd6" stroke="#ab6a3b" stroke-linecap="round" stroke-linejoin="round" stroke-width="1"/>
        <path id="Path_13739" data-name="Path 13739" d="M-396.153,169.639a.662.662,0,0,0-.5-.974,9.866,9.866,0,0,0-5.929.987c-3.1,1.765-3.795,4.2-3.214,5.714.628,1.634,3.756,1.743,6.117-.736A24.791,24.791,0,0,0-396.153,169.639Z" transform="translate(426.303 -159.238)" fill="#fcecd6" stroke="#ab6a3b" stroke-linecap="round" stroke-linejoin="round" stroke-width="1"/>
        <path id="Path_13740" data-name="Path 13740" d="M-414.629,176.306a.718.718,0,0,1-1.009-.333,10.392,10.392,0,0,1-.836-5.311,4.019,4.019,0,0,1,5.491-3.5,3.661,3.661,0,0,1,1.349,5.554C-410.563,173.938-413.349,175.587-414.629,176.306Z" transform="translate(429.533 -158.711)" fill="#fcecd6" stroke="#ab6a3b" stroke-linecap="round" stroke-linejoin="round" stroke-width="1"/>
      </g>
    </g>
  </g>
</svg>
