<svg xmlns="http://www.w3.org/2000/svg" width="85.857" height="143.923" viewBox="0 0 85.857 143.923">
  <g id="Group_25099" data-name="Group 25099" transform="translate(-55.948 -26.746)">
    <g id="Group_25094" data-name="Group 25094" transform="translate(55.948 26.746)">
      <g id="Group_25085" data-name="Group 25085" transform="translate(0 10.012)">
        <path id="Path_13971" data-name="Path 13971" d="M66.95,173.407A10.265,10.265,0,0,1,56.7,163.153V70.627a14.98,14.98,0,0,1,3.062-9.046l7.682-10.048V46.8a2.584,2.584,0,0,1,.11-5.165H97.146a2.584,2.584,0,0,1,.111,5.165v4.733l7.681,10.048A14.975,14.975,0,0,1,108,70.627v92.526a10.264,10.264,0,0,1-10.252,10.253Z" transform="translate(-56.167 -41.105)" fill="#f2e9e0"/>
        <path id="Path_13972" data-name="Path 13972" d="M96.928,41.948a2.052,2.052,0,0,1,0,4.1h-.421v5.442L104.3,61.685a14.359,14.359,0,0,1,2.953,8.723v92.526a9.721,9.721,0,0,1-9.721,9.721h-30.8a9.721,9.721,0,0,1-9.721-9.721V70.408a14.366,14.366,0,0,1,2.952-8.724l7.792-10.19V46.053h-.421a2.052,2.052,0,0,1,0-4.1h29.6m0-1.062h-29.6a3.115,3.115,0,0,0-.641,6.163v4.086l-7.573,9.9a15.51,15.51,0,0,0-3.171,9.369v92.526a10.8,10.8,0,0,0,10.784,10.784h30.8a10.8,10.8,0,0,0,10.784-10.784V70.408a15.51,15.51,0,0,0-3.171-9.369l-7.573-9.9V47.049a3.115,3.115,0,0,0-.641-6.163Z" transform="translate(-55.948 -40.886)" fill="#f2cb9c"/>
      </g>
      <path id="Path_13973" data-name="Path 13973" d="M74.881,175.154a7.921,7.921,0,0,1-7.921-7.921V79.4a24.651,24.651,0,0,1,1.668-8.914l3.742-9.646a7.781,7.781,0,0,1,7.254-4.967H91.066a7.78,7.78,0,0,1,7.254,4.967l3.742,9.647a24.646,24.646,0,0,1,1.668,8.913v87.839a7.921,7.921,0,0,1-7.921,7.921Z" transform="translate(-59.163 -35.247)" fill="#fff"/>
      <g id="Group_25086" data-name="Group 25086" transform="translate(11.835 42.25)">
        <path id="Path_13974" data-name="Path 13974" d="M74.226,86.448v2.145h-.262v-.976H72.923v.976h-.261V86.448h.261V87.4h1.041v-.956Z" transform="translate(-72.662 -86.424)" fill="#575756"/>
        <path id="Path_13975" data-name="Path 13975" d="M80.078,87.511a1.359,1.359,0,0,1-.069.443,1.037,1.037,0,0,1-.194.346.872.872,0,0,1-.3.226.989.989,0,0,1-.776,0,.873.873,0,0,1-.3-.226,1.037,1.037,0,0,1-.194-.346,1.458,1.458,0,0,1,0-.884,1.051,1.051,0,0,1,.194-.348.875.875,0,0,1,.3-.227.973.973,0,0,1,.776,0,.874.874,0,0,1,.3.227,1.051,1.051,0,0,1,.194.348A1.351,1.351,0,0,1,80.078,87.511Zm-.268,0a1.217,1.217,0,0,0-.049-.355.785.785,0,0,0-.137-.266.591.591,0,0,0-.216-.166.707.707,0,0,0-.564,0,.6.6,0,0,0-.216.166.774.774,0,0,0-.138.266,1.31,1.31,0,0,0,0,.709.77.77,0,0,0,.138.265.589.589,0,0,0,.216.166.715.715,0,0,0,.564,0,.584.584,0,0,0,.216-.166.781.781,0,0,0,.137-.265A1.208,1.208,0,0,0,79.811,87.511Z" transform="translate(-74.271 -86.414)" fill="#575756"/>
        <path id="Path_13976" data-name="Path 13976" d="M86.176,86.448v2.145h-.229V87.017c0-.021,0-.043,0-.067s0-.048,0-.074l-.662,1.341a.1.1,0,0,1-.095.067h-.038a.1.1,0,0,1-.094-.067l-.676-1.347c0,.053.008.1.008.147v1.576h-.229V86.448h.193a.154.154,0,0,1,.054.007.081.081,0,0,1,.036.042l.667,1.321c.011.024.021.049.032.075s.02.052.029.079c.008-.028.018-.054.028-.08a.738.738,0,0,1,.032-.076l.655-1.319a.075.075,0,0,1,.036-.042.152.152,0,0,1,.054-.007Z" transform="translate(-76.021 -86.424)" fill="#575756"/>
        <path id="Path_13977" data-name="Path 13977" d="M91.669,88.356v.236h-1.19V86.448h1.19v.236h-.928V87.4h.752v.227h-.752v.732Z" transform="translate(-77.863 -86.424)" fill="#575756"/>
        <path id="Path_13978" data-name="Path 13978" d="M97.462,86.448v2.145h-.229V87.017c0-.021,0-.043,0-.067s0-.048,0-.074l-.662,1.341a.1.1,0,0,1-.095.067h-.038a.1.1,0,0,1-.094-.067l-.676-1.347c0,.053.008.1.008.147v1.576h-.229V86.448h.193a.154.154,0,0,1,.054.007.081.081,0,0,1,.036.042l.667,1.321c.011.024.021.049.032.075s.02.052.029.079c.008-.028.018-.054.028-.08a.738.738,0,0,1,.032-.076L97.18,86.5a.075.075,0,0,1,.036-.042.152.152,0,0,1,.054-.007Z" transform="translate(-79.315 -86.424)" fill="#575756"/>
        <path id="Path_13979" data-name="Path 13979" d="M103.235,88.593h-.2a.083.083,0,0,1-.057-.019.126.126,0,0,1-.033-.05l-.18-.518H101.9l-.18.518a.116.116,0,0,1-.031.047.081.081,0,0,1-.057.021h-.2l.773-2.145h.263Zm-.545-.8-.3-.872c-.009-.026-.018-.056-.028-.091s-.02-.071-.029-.11a1.67,1.67,0,0,1-.057.2l-.3.871Z" transform="translate(-81.059 -86.424)" fill="#575756"/>
        <path id="Path_13980" data-name="Path 13980" d="M108.791,87.521a1.325,1.325,0,0,1-.068.439.989.989,0,0,1-.194.338.86.86,0,0,1-.3.218.95.95,0,0,1-.389.077h-.72V86.448h.72a.95.95,0,0,1,.389.077.851.851,0,0,1,.3.218,1,1,0,0,1,.194.339A1.321,1.321,0,0,1,108.791,87.521Zm-.268,0a1.18,1.18,0,0,0-.049-.353.763.763,0,0,0-.137-.263.587.587,0,0,0-.215-.164.682.682,0,0,0-.284-.057h-.459v1.675h.459a.694.694,0,0,0,.284-.057.6.6,0,0,0,.215-.164.747.747,0,0,0,.137-.263A1.177,1.177,0,0,0,108.523,87.521Z" transform="translate(-82.72 -86.424)" fill="#575756"/>
        <path id="Path_13981" data-name="Path 13981" d="M113.98,88.356v.236h-1.19V86.448h1.19v.236h-.928V87.4h.752v.227h-.752v.732Z" transform="translate(-84.375 -86.424)" fill="#575756"/>
      </g>
      <g id="Group_25087" data-name="Group 25087" transform="translate(12.937 55.836)">
        <path id="Path_13982" data-name="Path 13982" d="M77.34,109.083h-.555a.226.226,0,0,1-.15-.048.305.305,0,0,1-.087-.123l-.182-.6H75.192l-.183.6a.276.276,0,0,1-.084.118.217.217,0,0,1-.149.053h-.559l1.195-3.429h.733ZM76.2,107.772l-.286-.939c-.021-.059-.043-.13-.067-.21s-.048-.169-.072-.263c-.021.1-.044.184-.067.266s-.047.152-.068.212l-.284.934Z" transform="translate(-74.218 -105.616)" fill="#8cbe3c"/>
        <path id="Path_13983" data-name="Path 13983" d="M82.923,108.447v.635H81.064v-3.429h.716v2.793Z" transform="translate(-76.216 -105.616)" fill="#8cbe3c"/>
        <path id="Path_13984" data-name="Path 13984" d="M89.768,105.654v3.429h-.632v-1.972c0-.045,0-.095,0-.148s.006-.108.012-.162l-.82,1.762a.292.292,0,0,1-.1.125.262.262,0,0,1-.147.042h-.1a.262.262,0,0,1-.147-.042.292.292,0,0,1-.1-.125l-.82-1.767q.006.085.011.166c0,.054,0,.1,0,.149v1.972H86.3v-3.429h.547c.031,0,.058,0,.081,0a.171.171,0,0,1,.062.013.135.135,0,0,1,.05.037.267.267,0,0,1,.043.069l.794,1.739c.028.059.056.122.082.186s.05.13.075.2q.035-.1.074-.2c.027-.067.055-.129.084-.188l.793-1.732a.267.267,0,0,1,.043-.069.136.136,0,0,1,.05-.037.175.175,0,0,1,.062-.013c.024,0,.051,0,.081,0Z" transform="translate(-77.745 -105.616)" fill="#8cbe3c"/>
        <path id="Path_13985" data-name="Path 13985" d="M97.09,107.351a2.022,2.022,0,0,1-.115.693,1.7,1.7,0,0,1-.326.557,1.486,1.486,0,0,1-.5.37,1.677,1.677,0,0,1-1.313,0,1.5,1.5,0,0,1-.507-.37,1.689,1.689,0,0,1-.326-.557,2.144,2.144,0,0,1,0-1.384,1.671,1.671,0,0,1,.326-.556,1.515,1.515,0,0,1,.507-.37,1.669,1.669,0,0,1,1.313,0,1.515,1.515,0,0,1,.5.37,1.681,1.681,0,0,1,.326.556A2.007,2.007,0,0,1,97.09,107.351Zm-.733,0a1.631,1.631,0,0,0-.059-.457,1.014,1.014,0,0,0-.17-.345.75.75,0,0,0-.273-.217.852.852,0,0,0-.366-.075.869.869,0,0,0-.37.075.744.744,0,0,0-.273.217,1,1,0,0,0-.171.345,1.821,1.821,0,0,0,0,.918,1,1,0,0,0,.171.345.733.733,0,0,0,.273.215.88.88,0,0,0,.37.074.863.863,0,0,0,.366-.074.739.739,0,0,0,.273-.215,1.014,1.014,0,0,0,.17-.345A1.641,1.641,0,0,0,96.357,107.351Z" transform="translate(-79.959 -105.601)" fill="#8cbe3c"/>
        <path id="Path_13986" data-name="Path 13986" d="M103.795,105.654v3.429h-.372a.3.3,0,0,1-.139-.029.351.351,0,0,1-.111-.1l-1.455-2.045c.006.062.009.12.012.178s0,.111,0,.161v1.837H101.1v-3.429h.377a.494.494,0,0,1,.079,0,.181.181,0,0,1,.057.017.194.194,0,0,1,.048.037.5.5,0,0,1,.054.064l1.467,2.059c-.007-.066-.012-.13-.015-.192s0-.12,0-.176v-1.814Z" transform="translate(-82.065 -105.616)" fill="#8cbe3c"/>
        <path id="Path_13987" data-name="Path 13987" d="M110.642,107.367a1.985,1.985,0,0,1-.115.686,1.636,1.636,0,0,1-.325.544,1.475,1.475,0,0,1-.506.358,1.627,1.627,0,0,1-.656.128h-1.2v-3.429h1.2a1.615,1.615,0,0,1,.656.13,1.494,1.494,0,0,1,.506.358,1.622,1.622,0,0,1,.325.542A1.977,1.977,0,0,1,110.642,107.367Zm-.733,0a1.673,1.673,0,0,0-.059-.459,1.019,1.019,0,0,0-.171-.347.753.753,0,0,0-.272-.219.848.848,0,0,0-.367-.076h-.478v2.205h.478a.848.848,0,0,0,.367-.076.753.753,0,0,0,.272-.219,1.019,1.019,0,0,0,.171-.347A1.683,1.683,0,0,0,109.909,107.367Z" transform="translate(-84.033 -105.616)" fill="#8cbe3c"/>
      </g>
      <g id="Group_25088" data-name="Group 25088" transform="translate(19.014 93.995)">
        <path id="Path_13988" data-name="Path 13988" d="M86.271,159.491v3.429h-.632v-1.972c0-.045,0-.095,0-.149s.006-.107.011-.162l-.819,1.763a.3.3,0,0,1-.1.125.267.267,0,0,1-.147.042h-.1a.269.269,0,0,1-.147-.042.3.3,0,0,1-.1-.125l-.819-1.768c0,.057.008.112.011.166s0,.1,0,.149v1.972H82.8v-3.429h.547l.082,0a.191.191,0,0,1,.062.014.139.139,0,0,1,.049.036.294.294,0,0,1,.044.069l.794,1.74c.028.059.055.121.081.186s.051.13.075.2c.023-.069.049-.137.075-.2s.054-.129.084-.189l.792-1.732a.294.294,0,0,1,.044-.069.133.133,0,0,1,.049-.036.191.191,0,0,1,.063-.014l.081,0Z" transform="translate(-82.801 -159.491)" fill="#8cbe3c"/>
        <path id="Path_13989" data-name="Path 13989" d="M91.358,162.92h-.72v-3.429h.72Z" transform="translate(-85.089 -159.491)" fill="#8cbe3c"/>
        <path id="Path_13990" data-name="Path 13990" d="M96.451,162.284v.636H94.592v-3.429h.715v2.793Z" transform="translate(-86.243 -159.491)" fill="#8cbe3c"/>
        <path id="Path_13991" data-name="Path 13991" d="M100.541,160.88h.115a.25.25,0,0,0,.229-.111l.695-1.119a.354.354,0,0,1,.132-.124.409.409,0,0,1,.177-.034h.623l-.916,1.386a.646.646,0,0,1-.21.207.516.516,0,0,1,.146.091.692.692,0,0,1,.123.153l.931,1.591h-.639a.489.489,0,0,1-.1-.01.24.24,0,0,1-.076-.028.216.216,0,0,1-.055-.046.425.425,0,0,1-.045-.062l-.7-1.193a.223.223,0,0,0-.1-.093.383.383,0,0,0-.157-.027h-.174v1.459h-.715v-3.429h.715Z" transform="translate(-87.771 -159.491)" fill="#8cbe3c"/>
      </g>
      <g id="Group_25089" data-name="Group 25089" transform="translate(20.634 126.339)">
        <path id="Path_13992" data-name="Path 13992" d="M85.139,205.88a.771.771,0,0,1,.063-.225.542.542,0,0,1,.119-.165.5.5,0,0,1,.165-.1.569.569,0,0,1,.2-.035.555.555,0,0,1,.2.034.457.457,0,0,1,.155.1.441.441,0,0,1,.1.152.515.515,0,0,1,.036.2.537.537,0,0,1-.021.158.382.382,0,0,1-.059.122A.354.354,0,0,1,86,206.2a.516.516,0,0,1-.12.059.439.439,0,0,1,.246.161.47.47,0,0,1,.083.285.589.589,0,0,1-.044.232.517.517,0,0,1-.3.285.608.608,0,0,1-.217.038.626.626,0,0,1-.228-.037.475.475,0,0,1-.161-.1.543.543,0,0,1-.107-.154,1.175,1.175,0,0,1-.072-.193l.09-.042a.1.1,0,0,1,.068-.009.069.069,0,0,1,.049.043c.01.024.023.053.038.087a.406.406,0,0,0,.062.1.348.348,0,0,0,.1.079.338.338,0,0,0,.156.033.354.354,0,0,0,.154-.032.34.34,0,0,0,.11-.083.357.357,0,0,0,.066-.113.362.362,0,0,0,.022-.123.5.5,0,0,0-.018-.138.221.221,0,0,0-.065-.108.325.325,0,0,0-.131-.072.731.731,0,0,0-.215-.026V206.2a.624.624,0,0,0,.183-.026.338.338,0,0,0,.122-.067.255.255,0,0,0,.069-.1.374.374,0,0,0,.022-.132.386.386,0,0,0-.023-.14.277.277,0,0,0-.063-.1.259.259,0,0,0-.094-.059.35.35,0,0,0-.118-.019.332.332,0,0,0-.117.021.307.307,0,0,0-.1.058.312.312,0,0,0-.069.088.364.364,0,0,0-.04.112.108.108,0,0,1-.038.06.087.087,0,0,1-.066.009Z" transform="translate(-85.088 -205.223)" fill="#575756"/>
        <path id="Path_13993" data-name="Path 13993" d="M88.063,207.02a.066.066,0,0,1,.054.022.082.082,0,0,1,.02.057v.14H87.018v-.079a.145.145,0,0,1,.01-.051.131.131,0,0,1,.029-.048l.537-.6c.044-.05.085-.1.122-.145a.953.953,0,0,0,.093-.139.687.687,0,0,0,.06-.142.546.546,0,0,0,.021-.154.39.39,0,0,0-.024-.144.275.275,0,0,0-.064-.1.26.26,0,0,0-.1-.061.35.35,0,0,0-.118-.02.332.332,0,0,0-.118.021.312.312,0,0,0-.1.058.325.325,0,0,0-.069.088.362.362,0,0,0-.04.112.108.108,0,0,1-.038.06.093.093,0,0,1-.067.009l-.109-.021a.729.729,0,0,1,.064-.225.554.554,0,0,1,.119-.165.5.5,0,0,1,.165-.1.586.586,0,0,1,.4,0,.446.446,0,0,1,.16.1.462.462,0,0,1,.107.164.584.584,0,0,1,.039.218.651.651,0,0,1-.028.193.81.81,0,0,1-.076.169,1.328,1.328,0,0,1-.11.158c-.042.051-.086.1-.133.154l-.443.5a.889.889,0,0,1,.1-.023.518.518,0,0,1,.092-.008Z" transform="translate(-85.651 -205.223)" fill="#575756"/>
        <path id="Path_13994" data-name="Path 13994" d="M89.485,206.126a.557.557,0,0,1,.234.048.516.516,0,0,1,.178.137.629.629,0,0,1,.113.214,1.05,1.05,0,0,1,0,.562.626.626,0,0,1-.113.213.5.5,0,0,1-.178.136.606.606,0,0,1-.47,0,.494.494,0,0,1-.178-.136.614.614,0,0,1-.113-.213,1.032,1.032,0,0,1,0-.562.617.617,0,0,1,.113-.214.512.512,0,0,1,.178-.137A.561.561,0,0,1,89.485,206.126Zm0,1.176a.292.292,0,0,0,.262-.131.652.652,0,0,0,.087-.365.66.66,0,0,0-.087-.367.292.292,0,0,0-.262-.131.345.345,0,0,0-.155.033.3.3,0,0,0-.11.1.458.458,0,0,0-.066.156.95.95,0,0,0-.022.21.646.646,0,0,0,.088.365A.3.3,0,0,0,89.485,207.3Z" transform="translate(-86.206 -205.448)" fill="#575756"/>
        <path id="Path_13995" data-name="Path 13995" d="M91.637,206.255a.151.151,0,0,1-.008.047.154.154,0,0,1-.021.04l-.643.95h.649v.181h-.893v-.1a.126.126,0,0,1,.007-.039.148.148,0,0,1,.021-.044l.646-.956h-.638v-.182h.879Z" transform="translate(-86.732 -205.456)" fill="#575756"/>
        <path id="Path_13996" data-name="Path 13996" d="M93.3,206.367a2.285,2.285,0,0,0,.064.541,2.241,2.241,0,0,0,.187.5.079.079,0,0,1,.009.062.081.081,0,0,1-.027.035l-.092.062a2.475,2.475,0,0,1-.149-.3,2.163,2.163,0,0,1-.1-.3,2.409,2.409,0,0,1-.055-.3,2.694,2.694,0,0,1,0-.617,2.384,2.384,0,0,1,.055-.3,2.189,2.189,0,0,1,.1-.295,2.537,2.537,0,0,1,.149-.3l.092.063a.081.081,0,0,1,.027.035.075.075,0,0,1-.009.061,2.24,2.24,0,0,0-.187.5A2.285,2.285,0,0,0,93.3,206.367Z" transform="translate(-87.431 -205.168)" fill="#575756"/>
        <path id="Path_13997" data-name="Path 13997" d="M95.12,207.07v.176h-.9v-.176h.359V205.8c0-.038,0-.076,0-.115l-.3.285a.07.07,0,0,1-.031.018.073.073,0,0,1-.028,0,.081.081,0,0,1-.024-.011.055.055,0,0,1-.017-.017l-.065-.1.5-.48h.17v1.691Z" transform="translate(-87.725 -205.23)" fill="#575756"/>
        <path id="Path_13998" data-name="Path 13998" d="M97.02,207.036v.212h-.951v-1.864h.225v1.652Z" transform="translate(-88.293 -205.231)" fill="#575756"/>
        <path id="Path_13999" data-name="Path 13999" d="M97.872,207.318a.272.272,0,0,1-.216-.087.374.374,0,0,1-.076-.251v-.807h-.142a.043.043,0,0,1-.032-.012.051.051,0,0,1-.012-.038v-.093l.194-.027.047-.407a.057.057,0,0,1,.016-.032.042.042,0,0,1,.032-.013h.106V206h.343v.168h-.343v.791a.182.182,0,0,0,.036.124.12.12,0,0,0,.094.04.159.159,0,0,0,.057-.01.319.319,0,0,0,.041-.021.329.329,0,0,0,.03-.022.039.039,0,0,1,.022-.01c.011,0,.021.008.029.023l.061.11a.379.379,0,0,1-.13.088A.405.405,0,0,1,97.872,207.318Z" transform="translate(-88.68 -205.28)" fill="#575756"/>
        <path id="Path_14000" data-name="Path 14000" d="M98.939,206.41a.6.6,0,0,1,.138-.212.285.285,0,0,1,.2-.076.268.268,0,0,1,.072.009.189.189,0,0,1,.062.028l-.015.173c0,.022-.016.033-.035.033a.2.2,0,0,1-.048-.008.309.309,0,0,0-.071-.008.262.262,0,0,0-.1.018.226.226,0,0,0-.079.054.383.383,0,0,0-.062.089.8.8,0,0,0-.05.12v.832h-.209v-1.317h.119a.065.065,0,0,1,.047.014.094.094,0,0,1,.017.05Z" transform="translate(-89.073 -205.447)" fill="#575756"/>
        <path id="Path_14001" data-name="Path 14001" d="M100.013,206.367a2.285,2.285,0,0,0-.064-.541,2.206,2.206,0,0,0-.187-.5.14.14,0,0,1-.011-.035.054.054,0,0,1,0-.026.065.065,0,0,1,.011-.019.179.179,0,0,1,.017-.016l.093-.063a2.656,2.656,0,0,1,.149.3,2.288,2.288,0,0,1,.1.295,2.263,2.263,0,0,1,.055.3,2.7,2.7,0,0,1,0,.617,2.286,2.286,0,0,1-.055.3,2.26,2.26,0,0,1-.1.3,2.589,2.589,0,0,1-.149.3l-.093-.062a.117.117,0,0,1-.017-.016.066.066,0,0,1-.011-.019.056.056,0,0,1,0-.027.144.144,0,0,1,.011-.035,2.206,2.206,0,0,0,.187-.5A2.285,2.285,0,0,0,100.013,206.367Z" transform="translate(-89.368 -205.168)" fill="#575756"/>
      </g>
      <path id="Path_14002" data-name="Path 14002" d="M103.193,96.528l-1.947-1.947,1.86-1.86H69.443l1.86,1.86-1.947,1.947Z" transform="translate(-59.862 -46.005)" fill="#88af28"/>
      <g id="Group_25090" data-name="Group 25090" transform="translate(15.823 47.669)">
        <path id="Path_14003" data-name="Path 14003" d="M78.657,95.358v.686h-.363V94.1h.634a1.142,1.142,0,0,1,.338.045.653.653,0,0,1,.236.128.5.5,0,0,1,.137.2.7.7,0,0,1,.045.251.683.683,0,0,1-.047.259.541.541,0,0,1-.142.2.657.657,0,0,1-.235.132,1.062,1.062,0,0,1-.332.047Zm0-.283h.272a.558.558,0,0,0,.174-.025.332.332,0,0,0,.123-.072.292.292,0,0,0,.073-.113.431.431,0,0,0,.024-.149.391.391,0,0,0-.024-.142.277.277,0,0,0-.073-.108A.326.326,0,0,0,79.1,94.4a.581.581,0,0,0-.174-.024h-.272Z" transform="translate(-78.294 -94.075)" fill="#fff"/>
        <path id="Path_14004" data-name="Path 14004" d="M81.589,95.745h.78v.3H81.226V94.1h.363Z" transform="translate(-79.15 -94.075)" fill="#fff"/>
        <path id="Path_14005" data-name="Path 14005" d="M85.4,96.044h-.28a.122.122,0,0,1-.078-.024A.131.131,0,0,1,85,95.962l-.145-.4h-.807l-.145.4a.132.132,0,0,1-.043.057.118.118,0,0,1-.077.025H83.5l.765-1.948h.37Zm-1.261-.736h.621l-.237-.648c-.011-.029-.023-.062-.037-.1s-.025-.081-.038-.127c-.013.046-.025.089-.037.128s-.025.074-.036.1Z" transform="translate(-79.813 -94.075)" fill="#fff"/>
        <path id="Path_14006" data-name="Path 14006" d="M87.267,94.1a.1.1,0,0,1,.029.008.094.094,0,0,1,.025.018.3.3,0,0,1,.027.03l1.022,1.3c0-.031-.006-.062-.008-.092s0-.058,0-.084V94.1h.319v1.948h-.188a.174.174,0,0,1-.072-.013.168.168,0,0,1-.055-.048l-1.018-1.3c0,.029,0,.057.006.086s0,.055,0,.078v1.2h-.319V94.1h.19Z" transform="translate(-80.846 -94.075)" fill="#fff"/>
        <path id="Path_14007" data-name="Path 14007" d="M91.789,94.1v.3H91.2v1.651H90.84V94.393h-.588v-.3Z" transform="translate(-81.785 -94.075)" fill="#fff"/>
        <path id="Path_14008" data-name="Path 14008" d="M94.623,96.044V94.1H95.3a1.283,1.283,0,0,1,.326.036.624.624,0,0,1,.222.1.4.4,0,0,1,.127.163.548.548,0,0,1,.04.215.449.449,0,0,1-.019.132.39.39,0,0,1-.063.117.486.486,0,0,1-.108.1.651.651,0,0,1-.156.076c.268.06.4.2.4.433a.547.547,0,0,1-.047.229.5.5,0,0,1-.137.181.642.642,0,0,1-.222.12.981.981,0,0,1-.3.043Zm.363-1.1h.29a.482.482,0,0,0,.28-.068.243.243,0,0,0,.1-.214.256.256,0,0,0-.086-.217.452.452,0,0,0-.27-.065h-.31Zm0,.251v.571h.367a.507.507,0,0,0,.169-.024.3.3,0,0,0,.109-.064.237.237,0,0,0,.059-.094.36.36,0,0,0,.018-.115.306.306,0,0,0-.021-.114.217.217,0,0,0-.063-.086.31.31,0,0,0-.11-.055.607.607,0,0,0-.163-.018Z" transform="translate(-83.061 -94.075)" fill="#fff"/>
        <path id="Path_14009" data-name="Path 14009" d="M99.308,96.044h-.28a.12.12,0,0,1-.077-.024.126.126,0,0,1-.043-.058l-.146-.4h-.807l-.145.4a.136.136,0,0,1-.042.057.12.12,0,0,1-.078.025h-.281l.765-1.948h.37Zm-1.261-.736h.621l-.236-.648c-.011-.029-.023-.062-.036-.1s-.025-.081-.038-.127c-.013.046-.025.089-.037.128s-.024.074-.035.1Z" transform="translate(-83.873 -94.075)" fill="#fff"/>
        <path id="Path_14010" data-name="Path 14010" d="M101.929,94.441a.1.1,0,0,1-.034.042.084.084,0,0,1-.047.012.124.124,0,0,1-.061-.021c-.022-.014-.048-.03-.079-.047a.681.681,0,0,0-.106-.047.474.474,0,0,0-.146-.021.427.427,0,0,0-.131.018.278.278,0,0,0-.094.05.191.191,0,0,0-.057.077.255.255,0,0,0-.018.1.169.169,0,0,0,.038.115.307.307,0,0,0,.1.078.879.879,0,0,0,.144.058l.165.055a1.665,1.665,0,0,1,.164.067.6.6,0,0,1,.145.1.442.442,0,0,1,.1.144.5.5,0,0,1,.039.206.678.678,0,0,1-.045.247.566.566,0,0,1-.132.2.625.625,0,0,1-.212.135.788.788,0,0,1-.287.05.871.871,0,0,1-.183-.019,1,1,0,0,1-.173-.051.946.946,0,0,1-.155-.081.751.751,0,0,1-.128-.1l.1-.174a.129.129,0,0,1,.036-.031.085.085,0,0,1,.046-.013.129.129,0,0,1,.073.028c.026.018.057.039.092.061a.689.689,0,0,0,.125.062.487.487,0,0,0,.173.028.356.356,0,0,0,.239-.074.263.263,0,0,0,.085-.211.2.2,0,0,0-.038-.125.32.32,0,0,0-.1-.081.8.8,0,0,0-.144-.056c-.054-.015-.108-.031-.164-.05a1.456,1.456,0,0,1-.164-.065.53.53,0,0,1-.144-.1.46.46,0,0,1-.1-.152.574.574,0,0,1-.038-.224.536.536,0,0,1,.166-.387.619.619,0,0,1,.2-.125.717.717,0,0,1,.271-.047.922.922,0,0,1,.318.053.721.721,0,0,1,.248.151Z" transform="translate(-84.845 -94.066)" fill="#fff"/>
        <path id="Path_14011" data-name="Path 14011" d="M104.787,94.1v.288h-.863v.54h.68V95.2h-.68v.551h.863v.29h-1.229V94.1Z" transform="translate(-85.669 -94.075)" fill="#fff"/>
        <path id="Path_14012" data-name="Path 14012" d="M108.037,95.07a1.057,1.057,0,0,1-.072.393.879.879,0,0,1-.512.509,1.1,1.1,0,0,1-.4.072h-.744V94.1h.744a1.1,1.1,0,0,1,.4.072.92.92,0,0,1,.312.2.9.9,0,0,1,.2.308A1.056,1.056,0,0,1,108.037,95.07Zm-.371,0a.89.89,0,0,0-.042-.288.62.62,0,0,0-.123-.215.538.538,0,0,0-.193-.136.675.675,0,0,0-.256-.047h-.379v1.371h.379a.661.661,0,0,0,.256-.047.527.527,0,0,0,.193-.135.623.623,0,0,0,.123-.216A.882.882,0,0,0,107.666,95.07Z" transform="translate(-86.471 -94.075)" fill="#fff"/>
      </g>
      <g id="Group_25091" data-name="Group 25091" transform="translate(21.027 109.45)">
        <path id="Path_14013" data-name="Path 14013" d="M86.355,185.337a1.136,1.136,0,0,0,1.528-.518A1.177,1.177,0,0,0,86.355,185.337Z" transform="translate(-85.851 -182.304)" fill="#111113"/>
        <path id="Path_14014" data-name="Path 14014" d="M96.562,184.82a1.137,1.137,0,0,0,1.528.518A1.177,1.177,0,0,0,96.562,184.82Z" transform="translate(-88.831 -182.304)" fill="#111113"/>
        <path id="Path_14015" data-name="Path 14015" d="M95.352,184.286a2.043,2.043,0,0,0-1.129-1.083,1.746,1.746,0,0,0-.494-.068,2.354,2.354,0,0,0-.808.152c-.011-.018-.021-.038-.033-.057a2.647,2.647,0,0,0,.222-1.488c-.052-.32-.258-.717-.53-.107a1.6,1.6,0,0,1-.8.763,3.364,3.364,0,0,0-.64-.143.769.769,0,0,1,.149-.453.9.9,0,0,0-.522.142.521.521,0,0,1,.1-.258.9.9,0,0,0-.606.255,1.1,1.1,0,0,1,.217-.493.842.842,0,0,0-.712.83,3.207,3.207,0,0,0-.494.121,1.608,1.608,0,0,1-.8-.763c-.272-.61-.477-.213-.53.107a2.65,2.65,0,0,0,.222,1.489c-.012.018-.023.038-.033.056a2.354,2.354,0,0,0-.808-.152,1.743,1.743,0,0,0-.494.068,2.043,2.043,0,0,0-1.129,1.083.55.55,0,0,0,0,.456.521.521,0,0,0,.388.229,2.531,2.531,0,0,0,.427.035,3.07,3.07,0,0,0,1.283-.29l-.51,3.026a1.7,1.7,0,0,0-.064.452,2.3,2.3,0,0,0,1.528,1.979,1.512,1.512,0,0,0,1.2.841,2.067,2.067,0,0,0,.362.033,1.756,1.756,0,0,0,1.37-.654,2.543,2.543,0,0,0,2.15-2.2,1.7,1.7,0,0,0-.064-.452l-.51-3.026a3.068,3.068,0,0,0,1.283.29,2.531,2.531,0,0,0,.427-.035.521.521,0,0,0,.388-.229A.55.55,0,0,0,95.352,184.286Zm-8.843.547a2.371,2.371,0,0,1-.4-.032c-.418-.072-.28-.366-.248-.458a1.872,1.872,0,0,1,1.013-.974,1.567,1.567,0,0,1,.445-.061,2.16,2.16,0,0,1,.73.135,1.383,1.383,0,0,0-.113.409l-.11.655A2.835,2.835,0,0,1,86.509,184.833Zm3.8,6.041a1.918,1.918,0,0,1-.331-.03,1.444,1.444,0,0,1-.978-.565,4.174,4.174,0,0,0,.468.139,1.626,1.626,0,0,0,1.416.11,4.708,4.708,0,0,0,.489-.065A1.567,1.567,0,0,1,90.312,190.875Zm.213-.5c-1.728,0-3.133-.976-3.133-2.177a1.764,1.764,0,0,1,.547-1.224.916.916,0,0,1,.889-1.084.906.906,0,0,1,.846.586l.166-.05a1.108,1.108,0,0,0-.183-.316,4.312,4.312,0,0,1,1.738,0,1.091,1.091,0,0,0-.183.316l.166.05a.905.905,0,0,1,.845-.586.916.916,0,0,1,.889,1.084,1.764,1.764,0,0,1,.547,1.224C93.659,189.395,92.253,190.371,90.525,190.371Zm2.77-3.459a.929.929,0,0,0,.008-.118,1.081,1.081,0,0,0-1.081-1.081,1.063,1.063,0,0,0-.683.249,4.436,4.436,0,0,0-2.029,0,1.063,1.063,0,0,0-.683-.249,1.081,1.081,0,0,0-1.081,1.081.93.93,0,0,0,.008.118,2.306,2.306,0,0,0-.2.253l.553-3.284c0-.015.125-1.491,2.417-1.491s2.412,1.432,2.417,1.491l.553,3.284A2.305,2.305,0,0,0,93.295,186.912Zm1.644-2.111a2.356,2.356,0,0,1-.4.032,2.835,2.835,0,0,1-1.318-.326l-.11-.655a1.382,1.382,0,0,0-.113-.409,2.156,2.156,0,0,1,.73-.135,1.567,1.567,0,0,1,.445.061,1.872,1.872,0,0,1,1.013.974C95.219,184.435,95.358,184.729,94.939,184.8Z" transform="translate(-85.644 -181.316)" fill="#111113"/>
        <circle id="Ellipse_1046" data-name="Ellipse 1046" cx="0.239" cy="0.239" r="0.239" transform="translate(3.241 3.135)" fill="#111113"/>
        <circle id="Ellipse_1047" data-name="Ellipse 1047" cx="0.239" cy="0.239" r="0.239" transform="translate(6.043 3.135)" fill="#111113"/>
        <path id="Path_14016" data-name="Path 14016" d="M95.092,188.29a.455.455,0,0,1,0,.644c-.178.178-.595.312-.773.133s-.049-.6.129-.777A.456.456,0,0,1,95.092,188.29Z" transform="translate(-88.151 -183.313)" fill="#111113"/>
        <path id="Path_14017" data-name="Path 14017" d="M89.574,188.29a.455.455,0,0,0,0,.644c.178.178.595.312.773.133s.05-.6-.128-.777A.456.456,0,0,0,89.574,188.29Z" transform="translate(-86.752 -183.313)" fill="#111113"/>
      </g>
      <g id="Group_25092" data-name="Group 25092" transform="translate(16.369 104.777)">
        <path id="Path_14018" data-name="Path 14018" d="M88.6,175.065a13.6,13.6,0,0,1,6.16,1.387,4.1,4.1,0,0,1,1.718,1.76,14.432,14.432,0,0,1-.068,12.2,4.1,4.1,0,0,1-1.76,1.717,13.547,13.547,0,0,1-6.043,1.316h0a13.6,13.6,0,0,1-6.159-1.383,4.105,4.105,0,0,1-1.717-1.76,14.425,14.425,0,0,1,.068-12.2,4.1,4.1,0,0,1,1.76-1.717,13.519,13.519,0,0,1,6.041-1.32h0m0-.347h0a13.849,13.849,0,0,0-6.2,1.356,4.482,4.482,0,0,0-1.915,1.871,14.777,14.777,0,0,0-.069,12.514,4.476,4.476,0,0,0,1.871,1.914,14.82,14.82,0,0,0,12.513.069,4.482,4.482,0,0,0,1.915-1.871,14.777,14.777,0,0,0,.069-12.514,4.484,4.484,0,0,0-1.871-1.914,13.9,13.9,0,0,0-6.317-1.425Z" transform="translate(-79.065 -174.718)" fill="#8bb12e"/>
        <path id="Path_14019" data-name="Path 14019" d="M88.892,178.146a10.581,10.581,0,0,1,4.818,1.069,1.535,1.535,0,0,1,.577.609,11.449,11.449,0,0,1-.056,9.54,1.554,1.554,0,0,1-.609.577,11.495,11.495,0,0,1-9.54-.057,1.535,1.535,0,0,1-.577-.609,11.449,11.449,0,0,1,.056-9.54,1.549,1.549,0,0,1,.609-.577,10.546,10.546,0,0,1,4.722-1.013h0m0-2.428h0a13,13,0,0,0-5.8,1.267,3.948,3.948,0,0,0-1.69,1.65,13.86,13.86,0,0,0-.065,11.723,3.94,3.94,0,0,0,1.65,1.69,13.062,13.062,0,0,0,5.917,1.329h0a13.009,13.009,0,0,0,5.8-1.264,3.938,3.938,0,0,0,1.691-1.65,13.865,13.865,0,0,0,.065-11.722,3.942,3.942,0,0,0-1.65-1.691,13.061,13.061,0,0,0-5.918-1.333Z" transform="translate(-79.357 -175.01)" fill="#8bb12e"/>
        <path id="Path_14020" data-name="Path 14020" d="M92.537,188.191" transform="translate(-82.998 -178.651)" fill="#fafafb"/>
        <path id="Path_14021" data-name="Path 14021" d="M95.117,181.358a1.566,1.566,0,0,0-.6-.629,10.561,10.561,0,0,0-8.813-.052,1.578,1.578,0,0,0-.63.6,10.561,10.561,0,0,0-.052,8.813,1.58,1.58,0,0,0,.6.63,10.6,10.6,0,0,0,8.813.052,1.568,1.568,0,0,0,.629-.6,10.561,10.561,0,0,0,.052-8.813Zm-10.685,4.37a9.433,9.433,0,0,1,.952-4.294,1.246,1.246,0,0,1,.475-.447,9.406,9.406,0,0,1,4.208-.9,9.554,9.554,0,0,1,4.07.844l-8.87,8.869A9.5,9.5,0,0,1,84.432,185.727Zm10.325,4.286a1.243,1.243,0,0,1-.476.447,9.487,9.487,0,0,1-4.208.9,9.647,9.647,0,0,1-4.142-.874l8.907-8.906a10.226,10.226,0,0,1-.081,8.436Z" transform="translate(-80.53 -176.184)" fill="#8bb12e"/>
      </g>
      <g id="Group_25093" data-name="Group 25093" transform="translate(10.143 64.041)">
        <path id="Path_14022" data-name="Path 14022" d="M94.7,118.507a9.443,9.443,0,0,0-6.36-1.214c-3.849.545-8.327,2-8.055,7.945l5.5,2.474a36.88,36.88,0,0,1,3.557-5.816A9.378,9.378,0,0,1,94.7,118.507Z" transform="translate(-73.192 -117.189)" fill="#fcecd6" stroke="#ab6a3b" stroke-linecap="round" stroke-linejoin="round" stroke-width="1"/>
        <path id="Path_14023" data-name="Path 14023" d="M88.064,128.255a20.44,20.44,0,0,1,2.51-5.857,7.265,7.265,0,0,1,6.4-3.348,6.44,6.44,0,0,1-.209,2.469,2.5,2.5,0,0,0-2.678-.251c-3.18,1.841-4.214,5.523-4.659,6.109A3.193,3.193,0,0,1,88.064,128.255Z" transform="translate(-75.466 -117.732)" fill="#ab6a3b"/>
        <path id="Path_14024" data-name="Path 14024" d="M70.272,132.659a11.14,11.14,0,0,1,3.293-3.123,6.9,6.9,0,0,1,5.733-.624c1.817.624,3.463,2.384,4.939,2.781,0,0-.171,3.973-3.065,5.335s-6.187-.227-7.1-.908S70.272,132.659,70.272,132.659Z" transform="translate(-70.272 -120.505)" fill="#fcecd6" stroke="#ab6a3b" stroke-linecap="round" stroke-linejoin="round" stroke-width="1"/>
        <path id="Path_14025" data-name="Path 14025" d="M72.837,133.453a6.8,6.8,0,0,1,4.939-1.986,11.456,11.456,0,0,1,5.619,1.76,3.989,3.989,0,0,1-3.406,3.235C76.981,136.916,72.837,133.453,72.837,133.453Z" transform="translate(-71.021 -121.356)" fill="#ab6a3b"/>
        <path id="Path_14026" data-name="Path 14026" d="M106.074,125.065a2.911,2.911,0,0,1,3.909-2.33c2.217.564,2.443,3.269,1.428,5.675a32.559,32.559,0,0,1-3.125,5.168.626.626,0,0,1-1.1-.154A17.962,17.962,0,0,1,106.074,125.065Z" transform="translate(-80.682 -118.767)" fill="#ab6a3b"/>
        <path id="Path_14027" data-name="Path 14027" d="M91.062,126.535a19.562,19.562,0,0,0,7.3-2.7.657.657,0,0,0,.1-.993,5.675,5.675,0,0,0-1.36-1.068C96.01,121.185,93.854,121.007,91.062,126.535Z" transform="translate(-76.341 -118.444)" fill="#fcecd6" stroke="#ab6a3b" stroke-linecap="round" stroke-linejoin="round" stroke-width="1"/>
        <path id="Path_14028" data-name="Path 14028" d="M103.545,121.568a22.433,22.433,0,0,0-6.69,4.247c-2.982,2.844.038,3.608,1.842,2.856s6.126-3.383,7.141-4.811S106.375,120.625,103.545,121.568Z" transform="translate(-77.665 -118.391)" fill="#fcecd6" stroke="#ab6a3b" stroke-linecap="round" stroke-linejoin="round" stroke-width="1"/>
        <path id="Path_14029" data-name="Path 14029" d="M107.668,131.021a.642.642,0,0,0-.485-.945,9.577,9.577,0,0,0-5.755.959c-3.007,1.713-3.683,4.08-3.119,5.546.61,1.587,3.645,1.692,5.938-.714A24.063,24.063,0,0,0,107.668,131.021Z" transform="translate(-78.403 -120.925)" fill="#fcecd6" stroke="#ab6a3b" stroke-linecap="round" stroke-linejoin="round" stroke-width="1"/>
        <path id="Path_14030" data-name="Path 14030" d="M89.939,137.526a.7.7,0,0,1-.979-.324,10.083,10.083,0,0,1-.811-5.155,3.9,3.9,0,0,1,5.329-3.4,3.555,3.555,0,0,1,1.309,5.392C93.886,135.228,91.181,136.828,89.939,137.526Z" transform="translate(-75.473 -120.447)" fill="#fcecd6" stroke="#ab6a3b" stroke-linecap="round" stroke-linejoin="round" stroke-width="1"/>
      </g>
      <path id="Rectangle_7735" data-name="Rectangle 7735" d="M3.932,0h20.66a3.932,3.932,0,0,1,3.932,3.932V8.881a2.289,2.289,0,0,1-2.289,2.289H2.289A2.289,2.289,0,0,1,0,8.881V3.932A3.932,3.932,0,0,1,3.932,0Z" transform="translate(11.835)" fill="#88af28"/>
      <rect id="Rectangle_7736" data-name="Rectangle 7736" width="11.599" height="3.755" rx="1.878" transform="translate(24.483 15.657)" fill="#fff"/>
      <path id="Path_14031" data-name="Path 14031" d="M105,44.206H84.95a.764.764,0,0,0,0,1.527H105a.764.764,0,0,0,0-1.527Z" transform="translate(-64.191 -31.843)" fill="#fff"/>
    </g>
    <g id="Group_25098" data-name="Group 25098" transform="translate(99.161 103.164)">
      <path id="Path_14032" data-name="Path 14032" d="M138.3,136.083a79.66,79.66,0,0,1,13.428,1.084c5.288.971,6.478,2.231,6.478,2.612l0,.033,0,.033-3.622,57.288c-.177,1.518-6.43,3.623-16.278,3.623s-16.1-2.105-16.278-3.623L118.4,139.845l0-.049,0-.033c0-.26.945-1.43,5.567-2.418a73.21,73.21,0,0,1,14.339-1.263m0-1.416c-10.6,0-21.322,1.75-21.322,5.1a1.535,1.535,0,0,0,.009.171l3.623,57.314c.3,3.233,9.046,4.923,17.69,4.923s17.391-1.69,17.689-4.923l3.623-57.314a1.537,1.537,0,0,0,.009-.171c0-3.844-13.263-5.1-21.322-5.1Z" transform="translate(-116.975 -134.667)" fill="#c6c1c7"/>
      <path id="Path_14033" data-name="Path 14033" d="M138.3,136.083a73.21,73.21,0,0,1,14.339,1.263c4.622.987,5.567,2.158,5.567,2.418s-.945,1.431-5.567,2.418a73.21,73.21,0,0,1-14.339,1.263,73.21,73.21,0,0,1-14.339-1.263c-4.622-.987-5.567-2.158-5.567-2.418s.945-1.431,5.567-2.418a73.21,73.21,0,0,1,14.339-1.263m0-1.416c-10.6,0-21.322,1.75-21.322,5.1s10.726,5.1,21.322,5.1,21.322-1.75,21.322-5.1-10.726-5.1-21.322-5.1Z" transform="translate(-116.975 -134.667)" fill="#c6c1c7"/>
      <path id="Path_14034" data-name="Path 14034" d="M139.827,216.667a49,49,0,0,1,11.726,1.27c3.527.929,4.468,2.009,4.468,2.5s-.941,1.572-4.468,2.5a54.788,54.788,0,0,1-23.453,0c-3.526-.928-4.467-2.009-4.467-2.5s.941-1.572,4.467-2.5a49,49,0,0,1,11.727-1.27m0-1.416c-8.751,0-17.61,1.782-17.61,5.187s8.859,5.186,17.61,5.186,17.61-1.782,17.61-5.186-8.859-5.187-17.61-5.187Z" transform="translate(-118.505 -158.19)" fill="#c6c1c7"/>
      <g id="Group_25095" data-name="Group 25095" transform="translate(5.036 26.686)">
        <path id="Path_14035" data-name="Path 14035" d="M140.592,209.84c-4.963,0-13.443-.877-13.746-4.161l-2-28.069a1.471,1.471,0,0,1-.008-.166c0-3.426,9.9-4.339,15.755-4.339,1.612,0,15.755.122,15.755,4.339a1.661,1.661,0,0,1-.011.188l-2,28.036C154.035,208.963,145.555,209.84,140.592,209.84Z" transform="translate(-124.306 -172.573)" fill="#f2e9e0"/>
        <path id="Path_14036" data-name="Path 14036" d="M140.373,173.416c5.755,0,15.224.936,15.224,3.808a1.081,1.081,0,0,1-.007.127l-2,28.059c-.223,2.416-6.759,3.679-13.217,3.679s-12.995-1.263-13.217-3.679l-2-28.059a1.261,1.261,0,0,1-.006-.127c0-2.5,7.659-3.808,15.224-3.808m0-1.062c-2.72,0-16.286.234-16.286,4.87,0,.08,0,.159.012.238l2,28.024c.409,4.442,11.964,4.666,14.277,4.666s13.867-.224,14.275-4.644c1.7-23.89,1.959-27.482,2-28.046h0a2.211,2.211,0,0,0,.013-.238c0-4.519-12.466-4.87-16.286-4.87Z" transform="translate(-124.087 -172.354)" fill="#f2cb9c"/>
      </g>
      <g id="Group_25097" data-name="Group 25097" transform="translate(4.886 25.883)">
        <ellipse id="Ellipse_1048" data-name="Ellipse 1048" cx="15.905" cy="4.676" rx="15.905" ry="4.676" transform="translate(0.531 0.531)" fill="#fff"/>
        <g id="Group_25096" data-name="Group 25096">
          <path id="Path_14037" data-name="Path 14037" d="M140.311,172.282c8.491,0,15.374,1.856,15.374,4.145s-6.883,4.145-15.374,4.145-15.374-1.856-15.374-4.145,6.883-4.145,15.374-4.145m0-1.062c-7.916,0-16.436,1.629-16.436,5.207s8.52,5.207,16.436,5.207,16.436-1.629,16.436-5.207-8.52-5.207-16.436-5.207Z" transform="translate(-123.875 -171.22)" fill="#f2cb9c"/>
        </g>
      </g>
      <ellipse id="Ellipse_1049" data-name="Ellipse 1049" cx="12.746" cy="2.724" rx="12.746" ry="2.724" transform="translate(8.576 27.654)" fill="#fff" stroke="#f2e9e0" stroke-miterlimit="10" stroke-width="1.5"/>
      <ellipse id="Ellipse_1050" data-name="Ellipse 1050" cx="8.04" cy="1.503" rx="8.04" ry="1.503" transform="translate(13.282 28.084)" fill="#fff" stroke="#f2e9e0" stroke-miterlimit="10" stroke-width="1.5"/>
      <path id="Path_14038" data-name="Path 14038" d="M151.736,168.5l-.5,24.889-2.308-2.527V168.5Z" transform="translate(-126.302 -144.542)" fill="#fff" opacity="0.7"/>
      <path id="Path_14039" data-name="Path 14039" d="M160.29,193.838l2.1-43.652c-4.014.9-5.9.507-5.9.507l-.639,44.046A15.107,15.107,0,0,0,160.29,193.838Z" transform="translate(-128.326 -139.197)" fill="#fff"/>
    </g>
  </g>
</svg>
