<svg xmlns="http://www.w3.org/2000/svg" width="100.053" height="143.923" viewBox="0 0 100.053 143.923">
  <g id="Group_25084" data-name="Group 25084" transform="translate(203.137 -22.716)">
    <g id="Group_25073" data-name="Group 25073" transform="translate(-203.137 94.158)">
      <path id="Path_13741" data-name="Path 13741" d="M-160.092,198.428c-2.721,0-5.418-.133-8.019-.393-13.715-1.376-23.045-5.99-23.216-11.481l-.685-22.047c-2.81-1.814-4.3-3.85-4.433-6.054l-.745-12.412a27.666,27.666,0,0,1-5.141-6.848.518.518,0,0,1,.024-.512.518.518,0,0,1,.438-.24l4.6.142c1-3.184,4.875-5.963,11.248-8.059,6.946-2.284,16.153-3.541,25.926-3.541s18.98,1.257,25.926,3.541c7.423,2.441,11.51,5.884,11.51,9.7,0,.107,0,.214-.01.321l-1.075,17.912c-.133,2.2-1.623,4.24-4.433,6.054l-.685,22.047C-129.065,193.212-142.785,198.428-160.092,198.428Z" transform="translate(202.904 -126.464)" fill="#fff"/>
      <path id="Path_13742" data-name="Path 13742" d="M-160.324,127.267c9.719,0,18.87,1.248,25.764,3.516,7.193,2.365,11.154,5.634,11.154,9.2,0,.1,0,.193-.008.288l-1.075,17.913c-.125,2.088-1.654,4.063-4.425,5.8l-.693,22.32c-.2,6.294-13.873,11.373-30.717,11.373-2.756,0-5.427-.136-7.967-.391-12.992-1.3-22.587-5.718-22.75-10.982l-.693-22.32c-2.772-1.732-4.3-3.707-4.425-5.8l-.757-12.621a27.254,27.254,0,0,1-5.184-6.843l4.994.155c.734-3.135,4.576-5.979,11.019-8.1,6.895-2.267,16.044-3.516,25.764-3.516m0-1.035c-9.827,0-19.092,1.266-26.088,3.567-6.293,2.069-10.224,4.829-11.45,8.022l-4.207-.13h-.032a1.036,1.036,0,0,0-.874.48,1.036,1.036,0,0,0-.049,1.024,28.391,28.391,0,0,0,5.1,6.849l.733,12.207c.139,2.316,1.632,4.436,4.44,6.308l.676,21.778c.179,5.762,9.7,10.577,23.681,11.98,2.619.263,5.334.4,8.071.4,8.261,0,16.061-1.2,21.961-3.391,6.2-2.3,9.682-5.491,9.791-8.985l.676-21.778c2.808-1.872,4.3-3.992,4.44-6.308l1.075-17.913c.007-.117.01-.234.01-.351,0-4.054-4.214-7.672-11.867-10.188-7-2.3-16.261-3.567-26.087-3.567Z" transform="translate(203.137 -126.232)" fill="#c6c1c7"/>
    </g>
    <ellipse id="Ellipse_1037" data-name="Ellipse 1037" cx="30.719" cy="11.51" rx="30.719" ry="11.51" transform="translate(-191.044 142.584)" fill="#80c627"/>
    <ellipse id="Ellipse_1038" data-name="Ellipse 1038" cx="30.719" cy="11.51" rx="30.719" ry="11.51" transform="translate(-191.044 142.584)" fill="#80c627"/>
    <path id="Path_13743" data-name="Path 13743" d="M-124.7,189.287c0-3.788-11.6-9.289-29.777-9.289s-29.776,5.5-29.776,9.289v.039h0l.294,13.874v.039c.066,3.138,8.112,7.439,21.252,8.758,2.557.256,5.307.4,8.229.4,17.934,0,29.4-5.409,29.481-9.158V203.2l.293-13.834v-.079Z" transform="translate(-5.852 -48.733)" fill="#f4e8df"/>
    <ellipse id="Ellipse_1039" data-name="Ellipse 1039" cx="28.106" cy="8.282" rx="28.106" ry="8.282" transform="translate(-188.461 132.787)" fill="#fff"/>
    <path id="Path_13744" data-name="Path 13744" d="M-77.84,149.375s-1.1,0-1.1,1.419V177.05a2.339,2.339,0,0,0,.488,1.431c1.064,1.382,3.749,4.406,6.852,4.406H-67a2.339,2.339,0,0,0,2.34-2.339V152.036s.11-1.376-.739-1.376S-77.84,149.375-77.84,149.375Z" transform="translate(-38.483 -39.245)" fill="#80c627"/>
    <g id="Group_25074" data-name="Group 25074" transform="translate(-185.528 133.644)">
      <ellipse id="Ellipse_1040" data-name="Ellipse 1040" cx="24.939" cy="6.91" rx="24.939" ry="6.91" transform="translate(0 0)" fill="none" stroke="#f4e8df" stroke-miterlimit="10" stroke-width="1"/>
      <ellipse id="Ellipse_1041" data-name="Ellipse 1041" cx="18.007" cy="5.104" rx="18.007" ry="5.104" transform="translate(6.933 0.846)" fill="none" stroke="#f4e8df" stroke-miterlimit="10" stroke-width="1.5"/>
      <ellipse id="Ellipse_1042" data-name="Ellipse 1042" cx="11.074" cy="3.297" rx="11.074" ry="3.297" transform="translate(13.866 1.692)" fill="none" stroke="#f4e8df" stroke-miterlimit="10" stroke-width="2"/>
      <ellipse id="Ellipse_1043" data-name="Ellipse 1043" cx="4.141" cy="1.49" rx="4.141" ry="1.49" transform="translate(20.799 2.539)" fill="none" stroke="#f4e8df" stroke-miterlimit="10" stroke-width="2.5"/>
    </g>
    <path id="Path_13745" data-name="Path 13745" d="M-88.687,145.25H-81.6v1.469s2.707,2.324,12.487,1.208a7.843,7.843,0,0,0-1.932-4.649c-1.888-2.374-4.648-4.618-8.361-4.618H-91.084Z" transform="translate(-34.719 -35.925)" fill="#fff" stroke="#c6c1c7" stroke-miterlimit="10" stroke-width="1.5"/>
    <g id="Group_25075" data-name="Group 25075" transform="translate(-188.462 115.787)">
      <path id="Path_13746" data-name="Path 13746" d="M-160.251,168.248a3.522,3.522,0,0,1-3.522,3.522,3.522,3.522,0,0,1-3.521-3.522c0-1.945,3.521-6.912,3.521-6.912S-160.251,166.3-160.251,168.248Z" transform="translate(177.356 -158.738)" fill="#fff" stroke="#f4e8df" stroke-linecap="round" stroke-linejoin="round" stroke-width="2"/>
      <path id="Path_13747" data-name="Path 13747" d="M-144.727,163a2.764,2.764,0,0,1-2.765,2.764A2.764,2.764,0,0,1-150.256,163c0-1.527,2.764-5.426,2.764-5.426S-144.727,161.47-144.727,163Z" transform="translate(172.077 -157.571)" fill="#fff" stroke="#f4e8df" stroke-linecap="round" stroke-linejoin="round" stroke-width="2"/>
      <path id="Path_13748" data-name="Path 13748" d="M-139.208,181.557a3.521,3.521,0,0,1-3.521,3.521,3.522,3.522,0,0,1-3.522-3.521c0-1.945,3.522-6.913,3.522-6.913S-139.208,179.612-139.208,181.557Z" transform="translate(170.836 -162.861)" fill="#fff" stroke="#f4e8df" stroke-linecap="round" stroke-linejoin="round" stroke-width="2"/>
      <path id="Path_13749" data-name="Path 13749" d="M-123.016,170.676a2.764,2.764,0,0,1-2.764,2.764,2.764,2.764,0,0,1-2.764-2.764c0-1.527,2.764-5.426,2.764-5.426S-123.016,169.149-123.016,170.676Z" transform="translate(165.349 -159.95)" fill="#fff" stroke="#f4e8df" stroke-linecap="round" stroke-linejoin="round" stroke-width="2"/>
      <path id="Path_13750" data-name="Path 13750" d="M-108,163.206a1.626,1.626,0,0,1-1.626,1.627,1.626,1.626,0,0,1-1.627-1.627c0-.9,1.627-3.192,1.627-3.192S-108,162.308-108,163.206Z" transform="translate(159.992 -158.328)" fill="#fff" stroke="#f4e8df" stroke-linecap="round" stroke-linejoin="round" stroke-width="2"/>
      <path id="Path_13751" data-name="Path 13751" d="M-178.62,165.1a1.626,1.626,0,0,1-1.626,1.627,1.626,1.626,0,0,1-1.627-1.627c0-.9,1.627-3.192,1.627-3.192S-178.62,164.207-178.62,165.1Z" transform="translate(181.873 -158.916)" fill="#fff" stroke="#f4e8df" stroke-linecap="round" stroke-linejoin="round" stroke-width="2"/>
    </g>
    <path id="Path_13752" data-name="Path 13752" d="M-160.324,127.267c9.719,0,18.87,1.248,25.764,3.516,7.193,2.365,11.154,5.634,11.154,9.2,0,.1,0,.193-.008.288l-1.075,17.913c-.2,3.358-4.026,6.423-10.822,8.657-6.694,2.2-15.577,3.413-25.013,3.413-3.556,0-7.032-.172-10.343-.5a70.325,70.325,0,0,1-14.671-2.908c-6.8-2.235-10.62-5.3-10.822-8.657l-.757-12.621a27.254,27.254,0,0,1-5.184-6.843l4.994.155c.734-3.135,4.576-5.979,11.019-8.1,6.895-2.267,16.044-3.516,25.764-3.516m0-1.035c-9.827,0-19.092,1.266-26.088,3.567-6.293,2.069-10.224,4.829-11.45,8.022l-4.207-.13h-.032a1.036,1.036,0,0,0-.874.48,1.036,1.036,0,0,0-.049,1.024,28.391,28.391,0,0,0,5.1,6.849l.733,12.207c.232,3.862,4.22,7.174,11.532,9.578a71.744,71.744,0,0,0,14.891,2.956c3.369.338,6.883.509,10.446.509,9.543,0,18.542-1.231,25.337-3.465,7.312-2.4,11.3-5.716,11.531-9.578l1.075-17.913c.007-.117.01-.234.01-.351,0-4.054-4.214-7.672-11.867-10.188-7-2.3-16.261-3.567-26.087-3.567Z" transform="translate(0 -32.074)" fill="#c6c1c7"/>
    <g id="Group_25076" data-name="Group 25076" transform="translate(-203.137 94.158)">
      <path id="Path_13753" data-name="Path 13753" d="M-160.092,152.706c-18.785,0-34.384-4.5-37.32-10.724l-3.995-1.518a1.51,1.51,0,0,1-.98-1.421,1.51,1.51,0,0,1,.98-1.421l5.664-2.153c5.262-5.08,19.557-8.487,35.651-8.487,21.211,0,37.825,5.65,37.825,12.862S-138.882,152.706-160.092,152.706Z" transform="translate(202.905 -126.464)" fill="#fff"/>
      <path id="Path_13754" data-name="Path 13754" d="M-160.324,127.267c20.6,0,37.308,5.527,37.308,12.344s-16.7,12.345-37.308,12.345c-18.829,0-34.391-4.616-36.936-10.615l-4.195-1.594a1,1,0,0,1,0-1.874l5.764-2.191c4.961-4.89,18.915-8.415,35.366-8.415m0-1.035c-16.139,0-30.517,3.432-35.933,8.558l-5.565,2.115a2.023,2.023,0,0,0-1.314,1.9,2.023,2.023,0,0,0,1.314,1.9l3.8,1.447c3.251,6.3,18.913,10.83,37.694,10.83,10.073,0,19.557-1.3,26.706-3.668,7.5-2.483,11.637-5.932,11.637-9.712s-4.133-7.229-11.637-9.712c-7.149-2.365-16.633-3.668-26.706-3.668Z" transform="translate(203.137 -126.232)" fill="#c6c1c7"/>
    </g>
    <path id="Path_13755" data-name="Path 13755" d="M-134.1,111.57c-6.894-2.267-16.044-3.516-25.764-3.516s-18.87,1.248-25.764,3.516c-6.443,2.118-10.285,4.962-11.019,8.1l-4.994-.852a25.43,25.43,0,0,0,5.184,7.541l.757,6.494c.2,3.358,4.026,6.423,10.822,8.657a70.279,70.279,0,0,0,14.671,2.909c3.311.333,6.788.5,10.343.5,9.437,0,18.32-1.212,25.013-3.413,6.8-2.234,10.62-5.3,10.822-8.657l1.075-11.786c.006-.1.008-.192.008-.288C-122.941,117.2-126.9,113.935-134.1,111.57Z" transform="translate(-0.465 -26.441)" fill="#d8cec5"/>
    <path id="Path_13756" data-name="Path 13756" d="M-122.555,119.263c0,3.8-5.169,7.185-13.306,9.455a92,92,0,0,1-24,2.892c-1.2,0-2.395-.021-3.568-.055-17.2-.538-30.988-4.948-33.369-10.559l-4.2-1.594a1,1,0,0,1,0-1.877l5.763-2.188c4.962-4.893,18.917-8.413,35.371-8.413C-139.257,106.923-122.555,112.451-122.555,119.263Z" transform="translate(-0.464 -26.091)" fill="#a29fa3"/>
    <path id="Path_13757" data-name="Path 13757" d="M-201.637,85.546a25.514,25.514,0,0,0,5.184,7.49l.757,17.971c.2,3.357,4.026,6.423,10.822,8.657a70.279,70.279,0,0,0,14.671,2.909c3.311.332,6.788.5,10.343.5,9.437,0,18.32-1.213,25.013-3.414,6.8-2.234,10.62-5.3,10.822-8.657l1.057-22.861" transform="translate(-0.465 -19.468)" fill="#fff" stroke="#c6c1c7" stroke-linecap="round" stroke-linejoin="round" stroke-width="1.5"/>
    <path id="Path_13758" data-name="Path 13758" d="M-122.425,105.171c0-3.884-13.25-9.526-34.012-9.526s-34.012,5.641-34.012,9.526v.04h0l.336,9.513v.041c.093,3.944,13.51,9.39,33.675,9.39,20.485,0,33.584-5.547,33.675-9.39v-.041l.335-9.472v-.081Z" transform="translate(-3.931 -22.597)" fill="#fcecd6"/>
    <g id="Group_25078" data-name="Group 25078" transform="translate(-193.926 85.438)">
      <g id="Group_25077" data-name="Group 25077">
        <path id="Path_13759" data-name="Path 13759" d="M-126.787,122.959a.8.8,0,0,1,.888-.586l.569,1.032Z" transform="translate(170.27 -116.314)" fill="#ab6a3b" opacity="0.589"/>
        <path id="Path_13760" data-name="Path 13760" d="M-174.893,120.155a.8.8,0,0,1,.079-1.061l1.164.181Z" transform="translate(185.227 -115.3)" fill="#ab6a3b" opacity="0.488"/>
        <path id="Path_13761" data-name="Path 13761" d="M-126.985,133.012a.8.8,0,0,1-1.026.281l-.219-1.157Z" transform="translate(170.717 -119.341)" fill="#ab6a3b" opacity="0.049"/>
        <path id="Path_13762" data-name="Path 13762" d="M-135.826,130.174a.8.8,0,0,1-.919-.536l.672-.968Z" transform="translate(173.355 -118.268)" fill="#ab6a3b" opacity="0.158"/>
        <path id="Path_13763" data-name="Path 13763" d="M-187.192,124.953a.8.8,0,0,1-1.03-.264l.381-1.115Z" transform="translate(189.305 -116.689)" fill="#ab6a3b" opacity="0.116"/>
        <path id="Path_13764" data-name="Path 13764" d="M-104.637,126.259a.8.8,0,0,1,.7-.8l.825.841Z" transform="translate(163.407 -117.272)" fill="#ab6a3b" opacity="0.592"/>
        <path id="Path_13765" data-name="Path 13765" d="M-150.737,131.389a.8.8,0,0,1,1.015.321l-.443,1.091Z" transform="translate(177.69 -119.089)" fill="#ab6a3b" opacity="0.221"/>
        <path id="Path_13766" data-name="Path 13766" d="M-172.695,120.814a.8.8,0,0,1-.7.8l-.823-.843Z" transform="translate(184.966 -115.82)" fill="#ab6a3b" opacity="0.437"/>
        <path id="Path_13767" data-name="Path 13767" d="M-104.457,119.637a.8.8,0,0,1,.313-1.017l1.1.434Z" transform="translate(163.373 -115.153)" fill="#ab6a3b" opacity="0.04"/>
        <path id="Path_13768" data-name="Path 13768" d="M-163.112,130.791a.8.8,0,0,1-.4.987l-1.055-.525Z" transform="translate(181.975 -118.924)" fill="#ab6a3b" opacity="0.597"/>
        <path id="Path_13769" data-name="Path 13769" d="M-189.551,114.661a.8.8,0,0,1,.006-1.064l1.174.1Z" transform="translate(189.78 -113.597)" fill="#ab6a3b" opacity="0.574"/>
        <path id="Path_13770" data-name="Path 13770" d="M-93.241,115.7a.8.8,0,0,1-.827.669l-.667-.971Z" transform="translate(160.338 -114.156)" fill="#ab6a3b" opacity="0.668"/>
        <path id="Path_13771" data-name="Path 13771" d="M-176.06,132.2a.8.8,0,0,1,.355-1l1.076.48Z" transform="translate(185.554 -119.051)" fill="#ab6a3b" opacity="0.603"/>
        <path id="Path_13772" data-name="Path 13772" d="M-123.16,125.951a.8.8,0,0,1-1.06.088l0-1.178Z" transform="translate(169.476 -117.087)" fill="#ab6a3b" opacity="0.336"/>
        <path id="Path_13773" data-name="Path 13773" d="M-143.62,130.754a.8.8,0,0,1-.65.843l-.873-.791Z" transform="translate(175.957 -118.913)" fill="#ab6a3b" opacity="0.455"/>
        <path id="Path_13774" data-name="Path 13774" d="M-132.364,122.715a.8.8,0,0,1,.314,1.017l-1.15.257Z" transform="translate(172.257 -116.422)" fill="#ab6a3b" opacity="0.753"/>
        <path id="Path_13775" data-name="Path 13775" d="M-152.266,125.231a.8.8,0,0,1,.168,1.05l-1.175.093Z" transform="translate(178.476 -117.202)" fill="#ab6a3b" opacity="0.567"/>
        <path id="Path_13776" data-name="Path 13776" d="M-170.286,121.129a.8.8,0,0,1,.6-.879l.917.739Z" transform="translate(183.749 -115.658)" fill="#ab6a3b" opacity="0.102"/>
        <path id="Path_13777" data-name="Path 13777" d="M-136.133,135.781a.8.8,0,0,1,.729-.774l.791.874Z" transform="translate(173.165 -120.231)" fill="#ab6a3b" opacity="0.692"/>
        <path id="Path_13778" data-name="Path 13778" d="M-111.137,131.9a.8.8,0,0,1,1.064,0l-.094,1.175Z" transform="translate(165.421 -119.204)" fill="#ab6a3b" opacity="0.62"/>
        <path id="Path_13779" data-name="Path 13779" d="M-165.62,126.7a.8.8,0,0,1-.974.429l-.388-1.113Z" transform="translate(182.724 -117.445)" fill="#ab6a3b" opacity="0.74"/>
        <path id="Path_13780" data-name="Path 13780" d="M-154.828,134.7a.8.8,0,0,1,.549-.911l.957.687Z" transform="translate(178.961 -119.853)" fill="#ab6a3b" opacity="0.777"/>
        <path id="Path_13781" data-name="Path 13781" d="M-159.394,129.749a.8.8,0,0,1,1.062.055l-.153,1.168Z" transform="translate(180.373 -118.546)" fill="#ab6a3b" opacity="0.104"/>
        <path id="Path_13782" data-name="Path 13782" d="M-137.178,124.349a.8.8,0,0,1-.181-1.048l1.173-.108Z" transform="translate(173.585 -116.57)" fill="#ab6a3b" opacity="0.155"/>
        <path id="Path_13783" data-name="Path 13783" d="M-168.8,122.255a.8.8,0,0,1,.881.6l-.736.92Z" transform="translate(183.287 -116.278)" fill="#ab6a3b" opacity="0.444"/>
        <path id="Path_13784" data-name="Path 13784" d="M-144.552,136.585a.8.8,0,0,1,.023-1.064l1.173.118Z" transform="translate(175.835 -120.39)" fill="#ab6a3b" opacity="0.798"/>
        <path id="Path_13785" data-name="Path 13785" d="M-170.565,123.593a.8.8,0,0,1,.438.97l-1.108.4Z" transform="translate(184.042 -116.694)" fill="#ab6a3b" opacity="0.33"/>
        <path id="Path_13786" data-name="Path 13786" d="M-181.829,117.365a.8.8,0,0,1,.66.835l-.979.655Z" transform="translate(187.423 -114.764)" fill="#ab6a3b" opacity="0.2"/>
        <path id="Path_13787" data-name="Path 13787" d="M-157.956,133.53a.8.8,0,0,1,1.044-.2l.135,1.171Z" transform="translate(179.927 -119.673)" fill="#ab6a3b" opacity="0.1"/>
        <path id="Path_13788" data-name="Path 13788" d="M-139.193,125.747a.8.8,0,0,1,.8-.7l.7.95Z" transform="translate(174.114 -117.146)" fill="#ab6a3b" opacity="0.105"/>
        <path id="Path_13789" data-name="Path 13789" d="M-116.112,132.244a.8.8,0,0,1,.5-.938l.991.638Z" transform="translate(166.968 -119.084)" fill="#ab6a3b" opacity="0.124"/>
        <path id="Path_13790" data-name="Path 13790" d="M-108.655,118.927a.8.8,0,0,1,.126,1.056l-1.177.048Z" transform="translate(164.977 -115.248)" fill="#ab6a3b" opacity="0.581"/>
        <path id="Path_13791" data-name="Path 13791" d="M-168.077,126.99a.8.8,0,0,1-1-.36l.485-1.073Z" transform="translate(183.373 -117.303)" fill="#ab6a3b" opacity="0.219"/>
        <path id="Path_13792" data-name="Path 13792" d="M-108.919,124.374a.8.8,0,0,1-.844-.647l.788-.875Z" transform="translate(164.995 -116.465)" fill="#ab6a3b" opacity="0.571"/>
        <path id="Path_13793" data-name="Path 13793" d="M-183.609,123.272a.8.8,0,0,1-.188-1.047l1.172-.116Z" transform="translate(187.972 -116.234)" fill="#ab6a3b" opacity="0.77"/>
        <path id="Path_13794" data-name="Path 13794" d="M-96.109,116.025a.8.8,0,0,1,.363,1l-1.135.313Z" transform="translate(161.003 -114.349)" fill="#ab6a3b" opacity="0.579"/>
        <path id="Path_13795" data-name="Path 13795" d="M-148.139,134.964a.8.8,0,0,1,.921.534l-.669.969Z" transform="translate(176.885 -120.214)" fill="#ab6a3b" opacity="0.489"/>
        <path id="Path_13796" data-name="Path 13796" d="M-133.809,128.013a.8.8,0,0,1-1.064-.013l.108-1.173Z" transform="translate(172.775 -117.696)" fill="#ab6a3b" opacity="0.399"/>
        <path id="Path_13797" data-name="Path 13797" d="M-167.866,130.976a.8.8,0,0,1,.712-.791l.811.854Z" transform="translate(182.998 -118.737)" fill="#ab6a3b" opacity="0.537"/>
        <path id="Path_13798" data-name="Path 13798" d="M-163.19,126.052a.8.8,0,0,1,.482-.949l1,.614Z" transform="translate(181.556 -117.162)" fill="#ab6a3b" opacity="0.467"/>
        <path id="Path_13799" data-name="Path 13799" d="M-135.25,132.868a.8.8,0,0,1,1.017.31l-.431,1.1Z" transform="translate(172.892 -119.546)" fill="#ab6a3b" opacity="0.194"/>
        <path id="Path_13800" data-name="Path 13800" d="M-119.307,133.618a.8.8,0,0,1-.048,1.063l-1.169-.146Z" transform="translate(168.329 -119.8)" fill="#ab6a3b" opacity="0.323"/>
        <path id="Path_13801" data-name="Path 13801" d="M-147.857,131.914a.8.8,0,0,1,.718-.785l.8.862Z" transform="translate(176.798 -119.029)" fill="#ab6a3b" opacity="0.574"/>
        <path id="Path_13802" data-name="Path 13802" d="M-166.995,133.08a.8.8,0,0,1,.789-.714l.718.934Z" transform="translate(182.728 -119.412)" fill="#ab6a3b" opacity="0.117"/>
        <path id="Path_13803" data-name="Path 13803" d="M-172.558,125.787a.8.8,0,0,1-.019-1.064l1.176.072Z" transform="translate(184.519 -117.044)" fill="#ab6a3b" opacity="0.775"/>
        <path id="Path_13804" data-name="Path 13804" d="M-166.694,121.785a.8.8,0,0,1-.8-.705l.848-.817Z" transform="translate(182.881 -115.662)" fill="#ab6a3b" opacity="0.651"/>
        <path id="Path_13805" data-name="Path 13805" d="M-102.157,120.6a.8.8,0,0,1-.615-.868l1.012-.6Z" transform="translate(162.83 -115.311)" fill="#ab6a3b" opacity="0.416"/>
        <path id="Path_13806" data-name="Path 13806" d="M-154.646,131.806a.8.8,0,0,1-1.057.112l-.031-1.177Z" transform="translate(179.239 -118.909)" fill="#ab6a3b" opacity="0.482"/>
        <path id="Path_13807" data-name="Path 13807" d="M-113.995,122.912a.8.8,0,0,1-.63.857l-.891-.771Z" transform="translate(166.777 -116.483)" fill="#ab6a3b" opacity="0.643"/>
        <path id="Path_13808" data-name="Path 13808" d="M-182.154,124.176a.8.8,0,0,1,.809-.691l.692.954Z" transform="translate(187.425 -116.661)" fill="#ab6a3b" opacity="0.721"/>
        <path id="Path_13809" data-name="Path 13809" d="M-129.211,124.123a.8.8,0,0,1-.7-.8l.941-.708Z" transform="translate(171.239 -116.392)" fill="#ab6a3b" opacity="0.277"/>
        <path id="Path_13810" data-name="Path 13810" d="M-114.276,129.4a.8.8,0,0,1,.654-.84l.87.8Z" transform="translate(166.394 -118.234)" fill="#ab6a3b" opacity="0.089"/>
        <path id="Path_13811" data-name="Path 13811" d="M-101.749,123.284a.8.8,0,0,1,.571.9l-1.041.551Z" transform="translate(162.657 -116.598)" fill="#ab6a3b" opacity="0.01"/>
        <path id="Path_13812" data-name="Path 13812" d="M-138.745,131.136a.8.8,0,0,1-.969.439l-.4-1.108Z" transform="translate(174.399 -118.824)" fill="#ab6a3b" opacity="0.687"/>
        <path id="Path_13813" data-name="Path 13813" d="M-99.434,124.852a.8.8,0,0,1,.779-.725l.732.923Z" transform="translate(161.795 -116.86)" fill="#ab6a3b" opacity="0.623"/>
        <path id="Path_13814" data-name="Path 13814" d="M-173.643,131.99a.8.8,0,0,1,1.059-.1l.017,1.178Z" transform="translate(184.788 -119.215)" fill="#ab6a3b" opacity="0.086"/>
        <path id="Path_13815" data-name="Path 13815" d="M-144.115,124.283a.8.8,0,0,1-1.046.193l-.122-1.171Z" transform="translate(176.001 -116.605)" fill="#ab6a3b" opacity="0.248"/>
        <path id="Path_13816" data-name="Path 13816" d="M-111.5,122.4a.8.8,0,0,1-.442.968l-1.03-.573Z" transform="translate(165.99 -116.325)" fill="#ab6a3b" opacity="0.711"/>
        <path id="Path_13817" data-name="Path 13817" d="M-133.646,131.818a.8.8,0,0,1,.934-.511l.482,1.075Z" transform="translate(172.395 -119.077)" fill="#ab6a3b" opacity="0.332"/>
        <path id="Path_13818" data-name="Path 13818" d="M-174.1,125.973a.8.8,0,0,1,.059,1.062l-1.177-.028Z" transform="translate(185.274 -117.432)" fill="#ab6a3b" opacity="0.019"/>
        <path id="Path_13819" data-name="Path 13819" d="M-153.671,128.028a.8.8,0,0,1-.181,1.048l-1.141-.291Z" transform="translate(179.009 -118.068)" fill="#ab6a3b" opacity="0.596"/>
        <path id="Path_13820" data-name="Path 13820" d="M-107.6,128.344a.8.8,0,0,1,.814-.685l.684.959Z" transform="translate(164.326 -117.954)" fill="#ab6a3b" opacity="0.458"/>
        <path id="Path_13821" data-name="Path 13821" d="M-126.013,126.449a.8.8,0,0,1-.9-.564l.7-.946Z" transform="translate(170.31 -117.111)" fill="#ab6a3b" opacity="0.564"/>
        <path id="Path_13822" data-name="Path 13822" d="M-139.971,126.929a.8.8,0,0,1-.611.871l-.908-.75Z" transform="translate(174.825 -117.728)" fill="#ab6a3b" opacity="0.585"/>
        <path id="Path_13823" data-name="Path 13823" d="M-178.213,127.918a.8.8,0,0,1-.5-.937l1.079-.473Z" transform="translate(186.367 -117.597)" fill="#ab6a3b" opacity="0.644"/>
        <path id="Path_13824" data-name="Path 13824" d="M-140.693,135.559a.8.8,0,0,1-.995.378l-.33-1.13Z" transform="translate(174.989 -120.168)" fill="#ab6a3b" opacity="0.569"/>
        <path id="Path_13825" data-name="Path 13825" d="M-109.46,128.963a.8.8,0,0,1,.389.99l-1.127.342Z" transform="translate(165.13 -118.358)" fill="#ab6a3b" opacity="0.322"/>
        <path id="Path_13826" data-name="Path 13826" d="M-126.919,130.707a.8.8,0,0,1-1.017.313l-.257-1.15Z" transform="translate(170.705 -118.639)" fill="#ab6a3b" opacity="0.63"/>
        <path id="Path_13827" data-name="Path 13827" d="M-107,119.093a.8.8,0,0,1,1.061.066l-.166,1.166Z" transform="translate(164.138 -115.246)" fill="#ab6a3b" opacity="0.374"/>
        <path id="Path_13828" data-name="Path 13828" d="M-159.274,124.48a.8.8,0,0,1,.82.678l-.82.845Z" transform="translate(180.336 -116.969)" fill="#ab6a3b" opacity="0.524"/>
        <path id="Path_13829" data-name="Path 13829" d="M-176.565,120.894a.8.8,0,0,1-.963-.45l.581-1.025Z" transform="translate(185.991 -115.401)" fill="#ab6a3b" opacity="0.373"/>
        <path id="Path_13830" data-name="Path 13830" d="M-107.284,130.854a.8.8,0,0,1,.75-.754l.767.894Z" transform="translate(164.227 -118.71)" fill="#ab6a3b" opacity="0.464"/>
        <path id="Path_13831" data-name="Path 13831" d="M-110.556,124.856a.8.8,0,0,1-.813.686l-.686-.958Z" transform="translate(165.705 -117.001)" fill="#ab6a3b" opacity="0.277"/>
        <path id="Path_13832" data-name="Path 13832" d="M-98.077,127.078a.8.8,0,0,1-1.055.138l-.06-1.177Z" transform="translate(161.72 -117.452)" fill="#ab6a3b" opacity="0.283"/>
        <path id="Path_13833" data-name="Path 13833" d="M-140.85,123.453a.8.8,0,0,1,.506.935l-1.077.477Z" transform="translate(174.804 -116.651)" fill="#ab6a3b" opacity="0.122"/>
        <path id="Path_13834" data-name="Path 13834" d="M-148.078,128.115a.8.8,0,0,1-.709.792l-.813-.852Z" transform="translate(177.338 -118.077)" fill="#ab6a3b" opacity="0.485"/>
        <path id="Path_13835" data-name="Path 13835" d="M-151.962,132.323a.8.8,0,0,1-1.033-.253l.371-1.119Z" transform="translate(178.39 -118.974)" fill="#ab6a3b" opacity="0.474"/>
        <path id="Path_13836" data-name="Path 13836" d="M-100.419,118.029a.8.8,0,0,1-.719.784l-.8-.862Z" transform="translate(162.571 -114.946)" fill="#ab6a3b" opacity="0.089"/>
        <path id="Path_13837" data-name="Path 13837" d="M-151.623,129.233a.8.8,0,0,1-.678.82l-.846-.821Z" transform="translate(178.437 -118.441)" fill="#ab6a3b" opacity="0.087"/>
        <path id="Path_13838" data-name="Path 13838" d="M-177.086,129.81a.8.8,0,0,1-1.064-.031l.128-1.171Z" transform="translate(186.184 -118.248)" fill="#ab6a3b" opacity="0.303"/>
        <path id="Path_13839" data-name="Path 13839" d="M-116.763,126.174a.8.8,0,0,1-.638.852l-.884-.778Z" transform="translate(167.635 -117.494)" fill="#ab6a3b" opacity="0.235"/>
        <path id="Path_13840" data-name="Path 13840" d="M-127.655,128.776a.8.8,0,0,1,.664-.832l.859.805Z" transform="translate(170.539 -118.042)" fill="#ab6a3b" opacity="0.487"/>
        <path id="Path_13841" data-name="Path 13841" d="M-108.6,121.051a.8.8,0,0,1-.522.927l-.977-.658Z" transform="translate(165.099 -115.907)" fill="#ab6a3b" opacity="0.604"/>
        <path id="Path_13842" data-name="Path 13842" d="M-97.919,120.238a.8.8,0,0,1-1.056.129l-.05-1.177Z" transform="translate(161.668 -115.33)" fill="#ab6a3b" opacity="0.622"/>
        <path id="Path_13843" data-name="Path 13843" d="M-97.388,122.627a.8.8,0,0,1,.727-.777l.794.871Z" transform="translate(161.161 -116.154)" fill="#ab6a3b" opacity="0.722"/>
        <path id="Path_13844" data-name="Path 13844" d="M-145.693,126.611a.8.8,0,0,1,1.025.286l-.406,1.106Z" transform="translate(176.128 -117.604)" fill="#ab6a3b" opacity="0.659"/>
        <path id="Path_13845" data-name="Path 13845" d="M-114.663,120.444a.8.8,0,0,1,0,1.064l-1.175-.088Z" transform="translate(166.876 -115.718)" fill="#ab6a3b" opacity="0.107"/>
        <path id="Path_13846" data-name="Path 13846" d="M-111.787,131.391a.8.8,0,0,1-1.037-.24l.356-1.123Z" transform="translate(165.943 -118.688)" fill="#ab6a3b" opacity="0.547"/>
        <path id="Path_13847" data-name="Path 13847" d="M-184.516,116.1a.8.8,0,0,1-1.06.092l-.009-1.178Z" transform="translate(188.488 -114.038)" fill="#ab6a3b" opacity="0.42"/>
        <path id="Path_13848" data-name="Path 13848" d="M-96.512,118.834a.8.8,0,0,1,.917.539l-.676.965Z" transform="translate(160.889 -115.216)" fill="#ab6a3b" opacity="0.152"/>
        <path id="Path_13849" data-name="Path 13849" d="M-142.218,128.387a.8.8,0,0,1,1.056.133l-.239,1.153Z" transform="translate(175.051 -118.135)" fill="#ab6a3b" opacity="0.301"/>
        <path id="Path_13850" data-name="Path 13850" d="M-148.165,126.2a.8.8,0,0,1,.171-1.05l1.144.281Z" transform="translate(176.933 -117.177)" fill="#ab6a3b" opacity="0.266"/>
        <path id="Path_13851" data-name="Path 13851" d="M-177.947,123a.8.8,0,0,1-1.062.054l.034-1.177Z" transform="translate(186.45 -116.162)" fill="#ab6a3b" opacity="0.723"/>
        <path id="Path_13852" data-name="Path 13852" d="M-141.152,131.534a.8.8,0,0,1-1.064-.021l.116-1.173Z" transform="translate(175.05 -118.785)" fill="#ab6a3b" opacity="0.307"/>
        <path id="Path_13853" data-name="Path 13853" d="M-164.995,127.619a.8.8,0,0,1,.71-.793l.813.853Z" transform="translate(182.108 -117.696)" fill="#ab6a3b" opacity="0.762"/>
        <path id="Path_13854" data-name="Path 13854" d="M-160.226,133.83a.8.8,0,0,1-.529.923l-.972-.665Z" transform="translate(181.096 -119.866)" fill="#ab6a3b" opacity="0.15"/>
        <path id="Path_13855" data-name="Path 13855" d="M-189.508,119.887a.8.8,0,0,1,.95-.478l.445,1.091Z" transform="translate(189.703 -115.389)" fill="#ab6a3b" opacity="0.714"/>
        <path id="Path_13856" data-name="Path 13856" d="M-147.532,129.253a.8.8,0,0,1,.633-.855l.888.774Z" transform="translate(176.698 -118.183)" fill="#ab6a3b" opacity="0.306"/>
        <path id="Path_13857" data-name="Path 13857" d="M-167.638,124.366a.8.8,0,0,1,1-.356l.305,1.137Z" transform="translate(182.927 -116.804)" fill="#ab6a3b" opacity="0.652"/>
        <path id="Path_13858" data-name="Path 13858" d="M-139.07,134.3a.8.8,0,0,1-1,.357l-.307-1.137Z" transform="translate(174.481 -119.77)" fill="#ab6a3b" opacity="0.219"/>
        <path id="Path_13859" data-name="Path 13859" d="M-104.087,129.958a.8.8,0,0,1,.828.668l-.81.855Z" transform="translate(163.236 -118.666)" fill="#ab6a3b" opacity="0.641"/>
        <path id="Path_13860" data-name="Path 13860" d="M-106.637,120.909a.8.8,0,0,1-.4.986l-1.054-.527Z" transform="translate(164.477 -115.863)" fill="#ab6a3b" opacity="0.478"/>
        <path id="Path_13861" data-name="Path 13861" d="M-98.972,117.542a.8.8,0,0,1,.73-.773l.79.874Z" transform="translate(161.651 -114.58)" fill="#ab6a3b" opacity="0.643"/>
        <path id="Path_13862" data-name="Path 13862" d="M-143.453,133.182a.8.8,0,0,1,1.011-.331l.277,1.145Z" transform="translate(175.433 -119.54)" fill="#ab6a3b" opacity="0.32"/>
        <path id="Path_13863" data-name="Path 13863" d="M-94.562,120a.8.8,0,0,1,1.064-.017l-.074,1.175Z" transform="translate(160.285 -115.514)" fill="#ab6a3b" opacity="0.743"/>
        <path id="Path_13864" data-name="Path 13864" d="M-163.222,132.99a.8.8,0,0,1-.1,1.059l-1.161-.2Z" transform="translate(181.949 -119.606)" fill="#ab6a3b" opacity="0.054"/>
        <path id="Path_13865" data-name="Path 13865" d="M-173.023,123.952a.8.8,0,0,1-1.052-.159l.268-1.147Z" transform="translate(184.921 -116.401)" fill="#ab6a3b" opacity="0.264"/>
        <path id="Path_13866" data-name="Path 13866" d="M-164.581,122.9a.8.8,0,0,1-.949.48l-.448-1.09Z" transform="translate(182.413 -116.292)" fill="#ab6a3b" opacity="0.677"/>
        <path id="Path_13867" data-name="Path 13867" d="M-176.025,125.511a.8.8,0,0,1-.478.95l-1.007-.611Z" transform="translate(185.986 -117.288)" fill="#ab6a3b" opacity="0.408"/>
        <path id="Path_13868" data-name="Path 13868" d="M-186.392,119.824a.8.8,0,0,1-.037-1.063l1.177.052Z" transform="translate(188.808 -115.197)" fill="#ab6a3b" opacity="0.156"/>
        <path id="Path_13869" data-name="Path 13869" d="M-116.364,133.252a.8.8,0,0,1-.828.667l-.664-.972Z" transform="translate(167.502 -119.592)" fill="#ab6a3b" opacity="0.718"/>
        <path id="Path_13870" data-name="Path 13870" d="M-131.08,126.458a.8.8,0,0,1-1.048-.187l.3-1.139Z" transform="translate(171.925 -117.171)" fill="#ab6a3b" opacity="0.569"/>
        <path id="Path_13871" data-name="Path 13871" d="M-99.009,128.9a.8.8,0,0,1-1.062-.063l.162-1.167Z" transform="translate(161.992 -117.958)" fill="#ab6a3b" opacity="0.609"/>
        <path id="Path_13872" data-name="Path 13872" d="M-156.787,134.592a.8.8,0,0,1,1.055.142l-.249,1.151Z" transform="translate(179.565 -120.059)" fill="#ab6a3b" opacity="0.414"/>
        <path id="Path_13873" data-name="Path 13873" d="M-185.283,125.945a.8.8,0,0,1,.2-1.044l1.135.318Z" transform="translate(188.429 -117.099)" fill="#ab6a3b" opacity="0.449"/>
        <path id="Path_13874" data-name="Path 13874" d="M-100.216,122.884a.8.8,0,0,1-.813-.686l.828-.838Z" transform="translate(162.289 -116.002)" fill="#ab6a3b" opacity="0.585"/>
        <path id="Path_13875" data-name="Path 13875" d="M-134.521,124.538a.8.8,0,0,1,.754.751l-.9.766Z" transform="translate(172.71 -116.987)" fill="#ab6a3b" opacity="0.103"/>
        <path id="Path_13876" data-name="Path 13876" d="M-151.3,127.662a.8.8,0,0,1,.772-.732l.741.916Z" transform="translate(177.865 -117.728)" fill="#ab6a3b" opacity="0.77"/>
        <path id="Path_13877" data-name="Path 13877" d="M-162.454,127.96a.8.8,0,0,1,.372-1l1.068.5Z" transform="translate(181.337 -117.738)" fill="#ab6a3b" opacity="0.073"/>
        <path id="Path_13878" data-name="Path 13878" d="M-131.6,132.465a.8.8,0,0,1,1.045-.2l.129,1.171Z" transform="translate(171.762 -119.344)" fill="#ab6a3b" opacity="0.141"/>
        <path id="Path_13879" data-name="Path 13879" d="M-119.335,132.9a.8.8,0,0,1-1.046-.193l.305-1.138Z" transform="translate(168.285 -119.164)" fill="#ab6a3b" opacity="0.62"/>
        <path id="Path_13880" data-name="Path 13880" d="M-122.685,130.956a.8.8,0,0,1-1.055-.141l.248-1.152Z" transform="translate(169.326 -118.575)" fill="#ab6a3b" opacity="0.203"/>
        <path id="Path_13881" data-name="Path 13881" d="M-184.436,117.046a.8.8,0,0,1,.892.581l-.72.933Z" transform="translate(188.132 -114.664)" fill="#ab6a3b" opacity="0.689"/>
        <path id="Path_13882" data-name="Path 13882" d="M-124.308,134.518a.8.8,0,0,1-.635-.854l1-.626Z" transform="translate(169.699 -119.621)" fill="#ab6a3b" opacity="0.5"/>
        <path id="Path_13883" data-name="Path 13883" d="M-132.408,134.469a.8.8,0,0,1,.4.985l-1.122.359Z" transform="translate(172.234 -120.064)" fill="#ab6a3b" opacity="0.13"/>
        <path id="Path_13884" data-name="Path 13884" d="M-145.832,134.656a.8.8,0,0,1-.489-.945l1.086-.457Z" transform="translate(176.33 -119.688)" fill="#ab6a3b" opacity="0.633"/>
        <path id="Path_13885" data-name="Path 13885" d="M-158.833,131.821a.8.8,0,0,1,.369,1l-1.133.321Z" transform="translate(180.436 -119.244)" fill="#ab6a3b" opacity="0.288"/>
        <path id="Path_13886" data-name="Path 13886" d="M-121.176,130.267a.8.8,0,0,1,1.029-.271l.208,1.159Z" transform="translate(168.531 -118.65)" fill="#ab6a3b" opacity="0.251"/>
        <path id="Path_13887" data-name="Path 13887" d="M-107.495,126.624a.8.8,0,0,1-1.061-.074l.175-1.165Z" transform="translate(164.621 -117.249)" fill="#ab6a3b" opacity="0.308"/>
        <path id="Path_13888" data-name="Path 13888" d="M-103.715,121.011a.8.8,0,0,1-.716.787l-.806-.859Z" transform="translate(163.593 -115.872)" fill="#ab6a3b" opacity="0.409"/>
        <path id="Path_13889" data-name="Path 13889" d="M-160.3,129.788a.8.8,0,0,1-.928.519l-.492-1.07Z" transform="translate(181.093 -118.443)" fill="#ab6a3b" opacity="0.341"/>
        <path id="Path_13890" data-name="Path 13890" d="M-177.1,122.9a.8.8,0,0,1,1.057-.122l.043,1.177Z" transform="translate(185.859 -116.395)" fill="#ab6a3b" opacity="0.081"/>
        <path id="Path_13891" data-name="Path 13891" d="M-168.127,133.738a.8.8,0,0,1-.649-.843l.988-.643Z" transform="translate(183.28 -119.377)" fill="#ab6a3b" opacity="0.176"/>
        <path id="Path_13892" data-name="Path 13892" d="M-157.525,129.434a.8.8,0,0,1,.909-.553l.531,1.052Z" transform="translate(179.794 -118.328)" fill="#ab6a3b" opacity="0.599"/>
        <path id="Path_13893" data-name="Path 13893" d="M-120.063,128.828a.8.8,0,0,1-.283-1.026l1.157-.222Z" transform="translate(168.301 -117.93)" fill="#ab6a3b" opacity="0.611"/>
        <path id="Path_13894" data-name="Path 13894" d="M-112.6,120.737a.8.8,0,0,1,.852-.637l.629,1Z" transform="translate(165.872 -115.611)" fill="#ab6a3b" opacity="0.728"/>
        <path id="Path_13895" data-name="Path 13895" d="M-178.908,125.4a.8.8,0,0,1-.531.921l-.971-.667Z" transform="translate(186.884 -117.253)" fill="#ab6a3b" opacity="0.774"/>
        <path id="Path_13896" data-name="Path 13896" d="M-103.422,123.914a.8.8,0,0,1-1.025-.284l.4-1.106Z" transform="translate(163.348 -116.363)" fill="#ab6a3b" opacity="0.767"/>
        <path id="Path_13897" data-name="Path 13897" d="M-128.817,127.094a.8.8,0,0,1-.621-.863l1.008-.61Z" transform="translate(171.092 -117.323)" fill="#ab6a3b" opacity="0.151"/>
        <path id="Path_13898" data-name="Path 13898" d="M-94.6,123.954a.8.8,0,0,1-.17-1.05l1.175-.1Z" transform="translate(160.39 -116.451)" fill="#ab6a3b" opacity="0.184"/>
        <path id="Path_13899" data-name="Path 13899" d="M-182.747,127.539a.8.8,0,0,1,.874.607l-.746.912Z" transform="translate(187.608 -117.916)" fill="#ab6a3b" opacity="0.775"/>
        <path id="Path_13900" data-name="Path 13900" d="M-137.068,131.294a.8.8,0,0,1,.6.876l-1.021.589Z" transform="translate(173.585 -119.08)" fill="#ab6a3b" opacity="0.781"/>
        <path id="Path_13901" data-name="Path 13901" d="M-101.866,127.517a.8.8,0,0,1-.025-1.064l1.176.066Z" transform="translate(162.616 -117.58)" fill="#ab6a3b" opacity="0.408"/>
        <path id="Path_13902" data-name="Path 13902" d="M-185.421,122.7a.8.8,0,0,1-1.061-.072l.173-1.165Z" transform="translate(188.766 -116.034)" fill="#ab6a3b" opacity="0.408"/>
        <path id="Path_13903" data-name="Path 13903" d="M-149.568,123.846a.8.8,0,0,1-1.039.226l-.159-1.168Z" transform="translate(177.699 -116.481)" fill="#ab6a3b" opacity="0.047"/>
        <path id="Path_13904" data-name="Path 13904" d="M-171.32,128.1a.8.8,0,0,1-1.016.317l-.26-1.149Z" transform="translate(184.463 -117.834)" fill="#ab6a3b" opacity="0.355"/>
        <path id="Path_13905" data-name="Path 13905" d="M-115.863,125.533a.8.8,0,0,1,.849-.641l.634.994Z" transform="translate(166.885 -117.096)" fill="#ab6a3b" opacity="0.093"/>
        <path id="Path_13906" data-name="Path 13906" d="M-181.373,126.1a.8.8,0,0,1-.331,1.011l-1.087-.454Z" transform="translate(187.622 -117.471)" fill="#ab6a3b" opacity="0.571"/>
        <path id="Path_13907" data-name="Path 13907" d="M-123.1,123.662a.8.8,0,0,1-.091-1.06l1.178-.008Z" transform="translate(169.208 -116.385)" fill="#ab6a3b" opacity="0.048"/>
        <path id="Path_13908" data-name="Path 13908" d="M-121.4,128.831a.8.8,0,0,1-1.064.017l.075-1.175Z" transform="translate(168.931 -117.958)" fill="#ab6a3b" opacity="0.53"/>
        <path id="Path_13909" data-name="Path 13909" d="M-164.716,128.827a.8.8,0,0,1-.471.954l-1.012-.6Z" transform="translate(182.481 -118.316)" fill="#ab6a3b" opacity="0.295"/>
        <path id="Path_13910" data-name="Path 13910" d="M-184.166,127.538a.8.8,0,0,1-1.063.05l.037-1.177Z" transform="translate(188.377 -117.567)" fill="#ab6a3b" opacity="0.722"/>
        <path id="Path_13911" data-name="Path 13911" d="M-180.351,121.691a.8.8,0,0,1-.582-.89l1.034-.565Z" transform="translate(187.049 -115.654)" fill="#ab6a3b" opacity="0.495"/>
        <path id="Path_13912" data-name="Path 13912" d="M-142.4,127.411a.8.8,0,0,1-1.024-.287l.406-1.106Z" transform="translate(175.425 -117.446)" fill="#ab6a3b" opacity="0.252"/>
        <path id="Path_13913" data-name="Path 13913" d="M-119.72,125.32a.8.8,0,0,1-1.023-.293l.413-1.1Z" transform="translate(168.397 -116.796)" fill="#ab6a3b" opacity="0.08"/>
        <path id="Path_13914" data-name="Path 13914" d="M-117.055,130.434a.8.8,0,0,1-1.056-.127l.233-1.155Z" transform="translate(167.581 -118.417)" fill="#ab6a3b" opacity="0.291"/>
        <path id="Path_13915" data-name="Path 13915" d="M-174.167,129.6a.8.8,0,0,1-1.056.131l-.052-1.177Z" transform="translate(185.293 -118.231)" fill="#ab6a3b" opacity="0.725"/>
        <path id="Path_13916" data-name="Path 13916" d="M-110.029,127.392a.8.8,0,0,1-.894.578l-.559-1.037Z" transform="translate(165.528 -117.729)" fill="#ab6a3b" opacity="0.672"/>
        <path id="Path_13917" data-name="Path 13917" d="M-128.562,134.78a.8.8,0,0,1-.856.631l-.621-1Z" transform="translate(171.278 -120.045)" fill="#ab6a3b" opacity="0.399"/>
        <path id="Path_13918" data-name="Path 13918" d="M-132.242,129.83a.8.8,0,0,1-1.056.128l-.048-1.177Z" transform="translate(172.302 -118.301)" fill="#ab6a3b" opacity="0.119"/>
        <path id="Path_13919" data-name="Path 13919" d="M-119.188,121.81a.8.8,0,0,1,0,1.064l-1.175-.09Z" transform="translate(168.279 -116.142)" fill="#ab6a3b" opacity="0.722"/>
        <path id="Path_13920" data-name="Path 13920" d="M-138.274,134.434a.8.8,0,0,1,1.055.135l-.242,1.153Z" transform="translate(173.829 -120.009)" fill="#ab6a3b" opacity="0.045"/>
        <path id="Path_13921" data-name="Path 13921" d="M-155.107,126.811a.8.8,0,0,1-.56.9l-.95-.7Z" transform="translate(179.512 -117.691)" fill="#ab6a3b" opacity="0.285"/>
        <path id="Path_13922" data-name="Path 13922" d="M-116.27,123.906a.8.8,0,0,1-1.056-.129l.235-1.155Z" transform="translate(167.338 -116.393)" fill="#ab6a3b" opacity="0.562"/>
        <path id="Path_13923" data-name="Path 13923" d="M-168.771,128.194a.8.8,0,0,1-.285,1.026l-1.107-.405Z" transform="translate(183.709 -118.12)" fill="#ab6a3b" opacity="0.018"/>
        <path id="Path_13924" data-name="Path 13924" d="M-164.739,125.513a.8.8,0,0,1-.491-.944l1.085-.459Z" transform="translate(182.189 -116.854)" fill="#ab6a3b" opacity="0.288"/>
        <path id="Path_13925" data-name="Path 13925" d="M-121.313,133.622a.8.8,0,0,1-.873.608l-.595-1.017Z" transform="translate(169.028 -119.675)" fill="#ab6a3b" opacity="0.02"/>
        <path id="Path_13926" data-name="Path 13926" d="M-163.9,122.581a.8.8,0,0,1-.281-1.026l1.157-.22Z" transform="translate(181.882 -115.995)" fill="#ab6a3b" opacity="0.085"/>
        <path id="Path_13927" data-name="Path 13927" d="M-95.528,125.365a.8.8,0,0,1-.213,1.042l-1.132-.326Z" transform="translate(161.001 -117.243)" fill="#ab6a3b" opacity="0.252"/>
        <path id="Path_13928" data-name="Path 13928" d="M-117.02,128.77a.8.8,0,0,1,1.012-.326l.271,1.146Z" transform="translate(167.243 -118.174)" fill="#ab6a3b" opacity="0.702"/>
        <path id="Path_13929" data-name="Path 13929" d="M-124.855,131.974a.8.8,0,0,1-1.014-.324l.447-1.09Z" transform="translate(169.985 -118.853)" fill="#ab6a3b" opacity="0.461"/>
        <path id="Path_13930" data-name="Path 13930" d="M-154.384,123.125a.8.8,0,0,1-.5.941l-.995-.632Z" transform="translate(179.283 -116.549)" fill="#ab6a3b" opacity="0.362"/>
        <path id="Path_13931" data-name="Path 13931" d="M-187.91,116.514a.8.8,0,0,1,1-.363l.313,1.136Z" transform="translate(189.208 -114.369)" fill="#ab6a3b" opacity="0.43"/>
        <path id="Path_13932" data-name="Path 13932" d="M-129.335,131.03a.8.8,0,0,1-1.059.1l-.016-1.178Z" transform="translate(171.392 -118.664)" fill="#ab6a3b" opacity="0.193"/>
        <path id="Path_13933" data-name="Path 13933" d="M-170.322,131.689a.8.8,0,0,1,.743-.761l.776.887Z" transform="translate(183.759 -118.967)" fill="#ab6a3b" opacity="0.301"/>
        <path id="Path_13934" data-name="Path 13934" d="M-148.846,132.9a.8.8,0,0,1,.992.384l-.511,1.061Z" transform="translate(177.104 -119.564)" fill="#ab6a3b" opacity="0.289"/>
        <path id="Path_13935" data-name="Path 13935" d="M-171.272,132.5a.8.8,0,0,1,1.061-.088l0,1.178Z" transform="translate(184.053 -119.376)" fill="#ab6a3b" opacity="0.244"/>
        <path id="Path_13936" data-name="Path 13936" d="M-170.7,121.313a.8.8,0,0,1-.172,1.05l-1.144-.282Z" transform="translate(184.283 -115.988)" fill="#ab6a3b" opacity="0.378"/>
        <path id="Path_13937" data-name="Path 13937" d="M-99.16,121.958a.8.8,0,0,1,1.03.268l-.386,1.113Z" transform="translate(161.71 -116.16)" fill="#ab6a3b" opacity="0.568"/>
        <path id="Path_13938" data-name="Path 13938" d="M-161.5,130.972a.8.8,0,0,1,.89.583l-.721.932Z" transform="translate(181.025 -118.979)" fill="#ab6a3b" opacity="0.469"/>
        <path id="Path_13939" data-name="Path 13939" d="M-182.766,119.56a.8.8,0,0,1,.93.516l-.652.981Z" transform="translate(187.614 -115.44)" fill="#ab6a3b" opacity="0.761"/>
        <path id="Path_13940" data-name="Path 13940" d="M-172.84,130.2a.8.8,0,0,1,1.061-.079l0,1.178Z" transform="translate(184.539 -118.665)" fill="#ab6a3b" opacity="0.473"/>
        <path id="Path_13941" data-name="Path 13941" d="M-131.03,129.1a.8.8,0,0,1,.418-.979l1.044.547Z" transform="translate(171.596 -118.097)" fill="#ab6a3b" opacity="0.061"/>
        <path id="Path_13942" data-name="Path 13942" d="M-150.306,130.664a.8.8,0,0,1,.5-.938l.991.637Z" transform="translate(177.563 -118.594)" fill="#ab6a3b" opacity="0.415"/>
        <path id="Path_13943" data-name="Path 13943" d="M-179.741,118.175a.8.8,0,0,1,1.042.213l-.326,1.132Z" transform="translate(186.677 -114.982)" fill="#ab6a3b" opacity="0.703"/>
        <path id="Path_13944" data-name="Path 13944" d="M-103.416,128.345a.8.8,0,0,1-1.03.266l-.2-1.16Z" transform="translate(163.41 -117.89)" fill="#ab6a3b" opacity="0.106"/>
        <path id="Path_13945" data-name="Path 13945" d="M-189.791,116.7a.8.8,0,0,1,1.051.165l-.275,1.146Z" transform="translate(189.791 -114.518)" fill="#ab6a3b" opacity="0.571"/>
        <path id="Path_13946" data-name="Path 13946" d="M-180.08,129.384a.8.8,0,0,1-.89.582l-.565-1.034Z" transform="translate(187.233 -118.349)" fill="#ab6a3b" opacity="0.727"/>
        <path id="Path_13947" data-name="Path 13947" d="M-156.365,125.2a.8.8,0,0,1-1-.366l.491-1.071Z" transform="translate(179.744 -116.747)" fill="#ab6a3b" opacity="0.117"/>
        <path id="Path_13948" data-name="Path 13948" d="M-102.115,128.489a.8.8,0,0,1,.559.9l-1.048.538Z" transform="translate(162.777 -118.211)" fill="#ab6a3b" opacity="0.079"/>
        <path id="Path_13949" data-name="Path 13949" d="M-137.19,128.012a.8.8,0,0,1-.943.491l-.46-1.084Z" transform="translate(173.928 -117.88)" fill="#ab6a3b" opacity="0.512"/>
        <path id="Path_13950" data-name="Path 13950" d="M-124.2,127.627a.8.8,0,0,1,.194,1.046l-1.172.123Z" transform="translate(169.772 -117.944)" fill="#ab6a3b" opacity="0.169"/>
        <path id="Path_13951" data-name="Path 13951" d="M-159.8,127.966a.8.8,0,0,1,.429-.973l1.037.56Z" transform="translate(180.511 -117.748)" fill="#ab6a3b" opacity="0.216"/>
        <path id="Path_13952" data-name="Path 13952" d="M-106.351,124.462a.8.8,0,0,1-1.028-.275l.393-1.11Z" transform="translate(164.256 -116.534)" fill="#ab6a3b" opacity="0.752"/>
        <path id="Path_13953" data-name="Path 13953" d="M-126.966,134.254a.8.8,0,0,1,1.05.17l-.28,1.144Z" transform="translate(170.325 -119.958)" fill="#ab6a3b" opacity="0.221"/>
        <path id="Path_13954" data-name="Path 13954" d="M-150.417,134.862a.8.8,0,0,1-1.057.114l-.033-1.177Z" transform="translate(177.929 -119.856)" fill="#ab6a3b" opacity="0.617"/>
        <path id="Path_13955" data-name="Path 13955" d="M-188.393,121.68a.8.8,0,0,1-.03,1.064l-1.171-.127Z" transform="translate(189.73 -116.101)" fill="#ab6a3b" opacity="0.515"/>
        <path id="Path_13956" data-name="Path 13956" d="M-159.474,122.962a.8.8,0,0,1-.915.542l-.518-1.058Z" transform="translate(180.841 -116.339)" fill="#ab6a3b" opacity="0.088"/>
        <path id="Path_13957" data-name="Path 13957" d="M-112.775,126.814a.8.8,0,0,1-1.006.348l-.3-1.14Z" transform="translate(166.332 -117.447)" fill="#ab6a3b" opacity="0.695"/>
        <path id="Path_13958" data-name="Path 13958" d="M-121.779,126.561a.8.8,0,0,1-1.055-.139l.246-1.152Z" transform="translate(169.045 -117.214)" fill="#ab6a3b" opacity="0.222"/>
      </g>
    </g>
    <path id="Path_13959" data-name="Path 13959" d="M-183.727,118.872a1.293,1.293,0,0,1-1.1.807l-.577-1.277.668-.283Z" transform="translate(-5.495 -29.56)" fill="#ab6a3b"/>
    <g id="Group_25079" data-name="Group 25079" transform="translate(-182.526 50.103)">
      <path id="Path_13960" data-name="Path 13960" d="M-173.135,68.442-172.58,72l21.638-2.275v-3.8l-5.939-2.989a6.622,6.622,0,0,0-3.36-.5L-171.307,63.6c-1.11.117-1.834.5-1.834.972v3.8A.437.437,0,0,0-173.135,68.442Z" transform="translate(173.232 -62.398)" fill="#fff" stroke="#c6c1c7" stroke-linecap="round" stroke-linejoin="round" stroke-width="1.5"/>
      <path id="Path_13961" data-name="Path 13961" d="M-167.1,66.424c-.814.086-1.733-.171-1.86-.522l-.171-.46c-.092-.246.248-.464.821-.525l7.938-.834a2.946,2.946,0,0,1,1.614.268l.681.407c.528.308.244.692-.569.778l-8.454.888m6.819-3.99L-171.347,63.6c-1.168.123-1.908.544-1.828,1.045l-.1,4.563a177.482,177.482,0,0,1,22.588-2.495l-6.236-3.776a6.622,6.622,0,0,0-3.36-.5" transform="translate(173.273 -62.398)" fill="#c6c1c7"/>
    </g>
    <g id="Group_25080" data-name="Group 25080" transform="translate(-194.381 41.2)">
      <path id="Path_13962" data-name="Path 13962" d="M-155.84,99.552c-13.333,0-33.11-3.449-33.11-8.216,0-1.781,2.082-3.555,12.241-6.421,1.869-.527,3.8-.966,5.668-1.389,6.92-1.57,13.455-3.053,13.455-8.662V51h3.492V74.865c0,5.609,6.536,7.092,13.456,8.662,1.868.423,3.8.861,5.667,1.389,10.16,2.866,12.242,4.639,12.242,6.421C-122.729,96.1-142.506,99.552-155.84,99.552Z" transform="translate(189.985 -49.963)" fill="#fff"/>
      <path id="Path_13963" data-name="Path 13963" d="M-155.593,51.568V74.4c0,6.436,7.25,8.081,14.261,9.671,1.855.421,3.772.856,5.616,1.376,2.841.8,11.487,3.24,11.487,5.425,0,.92-2.424,3.16-11.6,5.049A114.659,114.659,0,0,1-156.3,98.052a114.665,114.665,0,0,1-20.478-2.131c-9.173-1.889-11.6-4.129-11.6-5.049,0-2.184,8.646-4.623,11.487-5.425,1.843-.52,3.761-.955,5.615-1.376,7.012-1.59,14.262-3.235,14.262-9.671V51.568h1.422m2.07-2.07h-5.563V74.4c0,6.12-9.7,6.609-18.369,9.054-10.108,2.852-12.995,4.793-12.995,7.418,0,6.537,23.951,9.25,34.146,9.25s34.146-2.713,34.146-9.25c0-2.625-2.887-4.566-13-7.418-8.669-2.445-18.369-2.935-18.369-9.054V49.5Z" transform="translate(190.45 -49.498)" fill="#f4e8df"/>
    </g>
    <path id="Path_13964" data-name="Path 13964" d="M-128.078,102.016s4.81,2.638-.718,5.265c-7.243,3.441-19.368,4.594-27.509,4.594s-20.266-1.153-27.509-4.594c-5.527-2.626-.717-5.265-.717-5.265-4.464,1.745-5.919,3.264-5.919,5.129,0,6.537,23.951,9.25,34.146,9.25s34.146-2.713,34.146-9.25C-122.158,105.28-123.614,103.761-128.078,102.016Z" transform="translate(-3.931 -24.571)" fill="#80c627"/>
    <path id="Path_13965" data-name="Path 13965" d="M-162.552,68.793c-15.268.36-27.986,3.762-32.674,8.383l-5.764,2.191a1,1,0,0,0,0,1.874l4.195,1.594c2.545,6,18.107,10.615,36.936,10.615,20.6,0,37.308-5.527,37.308-12.345,0-6.5-15.174-11.823-34.437-12.308" transform="translate(-0.465 -14.277)" fill="none" stroke="#c6c1c7" stroke-linejoin="round" stroke-width="1.5"/>
    <g id="Group_25081" data-name="Group 25081" transform="translate(-172.759 22.716)">
      <path id="Path_13966" data-name="Path 13966" d="M-134.233,29.654h-24.846a4.654,4.654,0,0,0,1.8,4.374c2.282,1.63,6.717,2.514,6.717,7.831,0,2.27,2.471,3.189,3.909,3.189s3.909-.626,3.909-3.189c0-5.318,4.434-6.2,6.717-7.831A4.654,4.654,0,0,0-134.233,29.654Z" transform="translate(159.122 -24.865)" fill="#80c627"/>
      <ellipse id="Ellipse_1044" data-name="Ellipse 1044" cx="12.423" cy="4.788" rx="12.423" ry="4.788" transform="translate(0.043)" fill="#a3e545"/>
      <ellipse id="Ellipse_1045" data-name="Ellipse 1045" cx="8.665" cy="2.761" rx="8.665" ry="2.761" transform="translate(3.801 1.382)" fill="#fff"/>
    </g>
    <g id="Group_25082" data-name="Group 25082" transform="translate(-161.315 103.055)">
      <path id="Path_13967" data-name="Path 13967" d="M-142.539,144.621c6.906,4.43,7.672,5.516,10.707,5.179,10.4-1.233,14.139-1.145,14.139-2.476h0v-3.148a.9.9,0,0,0-.03-.222l-1.984-4.83a76.2,76.2,0,0,1-19.876,2.395c-.995,0-1.984-.017-2.955-.046Z" transform="translate(142.539 -139.123)" fill="#a29fa3"/>
      <path id="Path_13968" data-name="Path 13968" d="M-117.724,143.953l-1.984-4.83a76.2,76.2,0,0,1-19.876,2.395c-.995,0-1.984-.017-2.955-.046,6.906,4.43,7.672,5.516,10.707,5.179C-120.885,145.354-117.318,145.519-117.724,143.953Zm-4.893-.5c-.315.108-9.187,1.04-9.244,1.046a2.853,2.853,0,0,1-1.641-.383c-.571-.423-1.8-1.2-.657-1.355.4-.055,9.575-1.086,9.832-1.1.56-.028,1.479-.245,1.9.675C-122.178,142.88-121.908,143.216-122.617,143.45Z" transform="translate(142.539 -139.123)" fill="#d8cec5"/>
    </g>
    <g id="Group_25083" data-name="Group 25083" transform="translate(-161.315 77.219)">
      <path id="Path_13969" data-name="Path 13969" d="M-142.539,107.186c6.906,4.43,7.672,5.516,10.707,5.179,10.4-1.233,14.139-1.145,14.139-2.476h0v-3.148a.9.9,0,0,0-.03-.222l-1.984-4.83a76.2,76.2,0,0,1-19.876,2.4c-.995,0-1.984-.017-2.955-.046Z" transform="translate(142.539 -101.688)" fill="#c6c1c7"/>
      <path id="Path_13970" data-name="Path 13970" d="M-117.724,106.518l-1.984-4.83a76.2,76.2,0,0,1-19.876,2.4c-.995,0-1.984-.017-2.955-.046,6.906,4.43,7.672,5.516,10.707,5.18C-120.885,107.919-117.318,108.085-117.724,106.518Zm-4.893-.5c-.315.109-9.187,1.041-9.244,1.046a2.852,2.852,0,0,1-1.641-.383c-.571-.423-1.8-1.2-.657-1.355.4-.055,9.575-1.086,9.832-1.1.56-.028,1.479-.245,1.9.675C-122.178,105.445-121.908,105.781-122.617,106.015Z" transform="translate(142.539 -101.688)" fill="#fff"/>
    </g>
  </g>
</svg>
