<svg xmlns="http://www.w3.org/2000/svg" width="14" height="16" viewBox="0 0 14 16">
  <path id="Path_14046" data-name="Path 14046" d="M2.8-4.5C1.9-4.5,1.472-4,0-4s-1.9-.5-2.8-.5A4.2,4.2,0,0,0-7-.3V.5A1.5,1.5,0,0,0-5.5,2h11A1.5,1.5,0,0,0,7,.5V-.3A4.2,4.2,0,0,0,2.8-4.5ZM5.5.5h-11V-.3A2.7,2.7,0,0,1-2.8-3,12.235,12.235,0,0,0,0-2.5,12.117,12.117,0,0,0,2.8-3,2.7,2.7,0,0,1,5.5-.3ZM0-5A4.5,4.5,0,0,0,4.5-9.5,4.5,4.5,0,0,0,0-14,4.5,4.5,0,0,0-4.5-9.5,4.5,4.5,0,0,0,0-5Zm0-7.5a3,3,0,0,1,3,3,3,3,0,0,1-3,3,3,3,0,0,1-3-3A3,3,0,0,1,0-12.5Z" transform="translate(7 14)" fill="#fff"/>
</svg>
